<?xml version="1.0" encoding="UTF-8" ?>
<!DOCTYPE svg PUBLIC "-//W3C//DTD SVG 1.1//EN" "http://www.w3.org/Graphics/SVG/1.1/DTD/svg11.dtd">
<svg width="32pt" height="32pt" viewBox="0 0 32 32" version="1.1" xmlns="http://www.w3.org/2000/svg">
<g id="#ffffffff">
<path fill="#ffffff" opacity="1.00" d=" M 15.65 0.00 L 16.41 0.00 C 24.38 0.15 31.37 6.79 32.00 14.73 L 32.00 17.11 C 31.49 25.14 24.43 31.89 16.38 32.00 L 15.54 32.00 C 7.57 31.84 0.61 25.20 0.00 17.27 L 0.00 14.90 C 0.52 6.88 7.60 0.12 15.65 0.00 M 11.41 3.63 C 4.77 5.92 0.95 14.07 3.64 20.61 C 5.85 27.00 13.41 30.75 19.83 28.61 C 26.90 26.72 31.16 18.21 28.37 11.43 C 26.09 4.74 17.98 1.01 11.41 3.63 Z" />
<path fill="#ffffff" opacity="1.00" d=" M 13.48 11.70 C 14.70 8.46 18.77 10.22 21.36 9.88 C 21.66 12.83 21.74 15.82 21.22 18.75 C 18.63 18.25 13.97 20.44 13.48 16.63 C 15.48 16.58 17.47 16.60 19.46 16.55 C 19.46 14.99 19.45 13.42 19.42 11.85 C 17.44 11.81 15.46 11.79 13.48 11.70 Z" />
<path fill="#ffffff" opacity="1.00" d=" M 11.17 13.33 C 13.42 13.09 15.71 13.12 17.96 13.34 C 19.17 16.65 14.44 14.96 12.53 15.50 C 12.54 17.05 12.55 18.60 12.58 20.15 C 14.56 20.19 16.54 20.21 18.52 20.30 C 17.31 23.54 13.23 21.78 10.64 22.12 C 10.67 19.25 9.58 15.88 11.17 13.33 Z" />
</g>
</svg>
