<?xml version="1.0" encoding="UTF-8" ?>
<!DOCTYPE svg PUBLIC "-//W3C//DTD SVG 1.1//EN" "http://www.w3.org/Graphics/SVG/1.1/DTD/svg11.dtd">
<svg width="30pt" height="48pt" viewBox="0 0 30 48" version="1.1" xmlns="http://www.w3.org/2000/svg">
<g id="#ffffffff">
<path fill="#ffffff" opacity="1.00" d=" M 14.73 0.00 L 15.37 0.00 C 22.84 0.14 29.39 6.36 30.00 13.80 L 30.00 34.00 C 29.54 41.55 22.86 47.91 15.29 48.00 L 14.58 48.00 C 7.11 47.84 0.58 41.60 0.00 34.18 L 0.00 13.98 C 0.49 6.43 7.17 0.08 14.73 0.00 M 14.36 10.35 C 12.90 10.92 13.03 12.70 12.98 13.96 C 13.06 16.20 12.68 18.55 13.35 20.71 C 14.29 22.73 17.62 22.21 17.90 20.01 C 18.10 17.34 18.10 14.64 17.90 11.97 C 17.68 10.49 15.64 9.40 14.36 10.35 Z" />
</g>
</svg>
