<?xml version="1.0" encoding="UTF-8" ?>
<!DOCTYPE svg PUBLIC "-//W3C//DTD SVG 1.1//EN" "http://www.w3.org/Graphics/SVG/1.1/DTD/svg11.dtd">
<svg width="64pt" height="64pt" viewBox="0 0 64 64" version="1.1" xmlns="http://www.w3.org/2000/svg">
<g id="#ffffffff">
<path fill="#ffffff" opacity="1.00" d=" M 30.76 0.00 L 33.26 0.00 C 49.61 0.40 63.98 14.98 64.00 31.36 L 64.00 32.68 C 63.96 49.01 49.66 63.56 33.36 64.00 L 30.59 64.00 C 14.61 63.53 0.60 49.55 0.00 33.59 L 0.00 30.48 C 0.56 14.43 14.69 0.39 30.76 0.00 M 25.50 6.73 C 14.51 9.28 6.10 19.80 5.85 31.04 C 5.31 41.63 12.03 52.09 21.82 56.08 C 31.56 60.39 43.72 57.81 50.95 50.03 C 58.08 42.75 60.18 31.15 56.11 21.82 C 51.44 10.13 37.61 3.35 25.50 6.73 Z" />
<path fill="#ffffff" opacity="1.00" d=" M 27.65 23.32 C 32.02 26.19 36.36 29.10 40.70 32.01 C 36.36 34.90 32.02 37.82 27.65 40.68 C 27.65 34.89 27.65 29.11 27.65 23.32 Z" />
</g>
</svg>
