<?xml version="1.0" encoding="UTF-8" ?>
<!DOCTYPE svg PUBLIC "-//W3C//DTD SVG 1.1//EN" "http://www.w3.org/Graphics/SVG/1.1/DTD/svg11.dtd">
<svg width="113pt" height="25pt" viewBox="0 0 113 25" version="1.1" xmlns="http://www.w3.org/2000/svg">
<g id="#222222ff">
<path fill="#222222" opacity="1.00" d=" M 31.18 0.00 L 36.75 0.00 C 36.77 1.50 36.78 2.99 36.80 4.49 C 35.61 4.60 34.42 4.72 33.23 4.82 C 33.19 6.17 33.15 7.52 33.11 8.87 C 34.60 8.99 36.09 9.10 37.58 9.22 C 37.86 8.85 38.42 8.11 38.71 7.74 C 40.21 7.77 41.72 7.80 43.23 7.83 C 43.24 13.42 43.24 19.01 43.23 24.59 C 41.52 24.60 39.81 24.60 38.11 24.60 C 38.16 19.45 38.11 14.30 38.06 9.16 C 37.69 12.11 36.10 13.84 33.18 13.70 C 33.18 17.13 33.17 20.56 33.17 24.00 C 31.37 24.00 29.57 24.00 27.76 24.00 C 27.76 20.49 27.76 16.98 27.78 13.47 C 26.83 13.42 25.88 13.38 24.92 13.34 C 24.93 11.84 24.94 10.34 24.95 8.84 C 25.62 8.82 26.96 8.78 27.63 8.76 C 27.60 5.44 27.61 1.53 31.18 0.00 Z" />
<path fill="#222222" opacity="1.00" d=" M 39.08 0.86 C 42.19 -1.05 45.39 3.80 41.95 5.53 C 38.93 6.89 36.55 2.88 39.08 0.86 Z" />
<path fill="#222222" opacity="1.00" d=" M 62.37 8.51 C 64.27 5.35 67.22 2.32 71.03 1.82 C 74.53 5.06 73.32 10.75 75.49 14.80 C 78.09 14.93 79.23 11.12 79.95 8.99 C 80.38 6.79 77.78 7.16 76.46 6.57 C 77.99 4.30 79.91 1.71 82.97 1.78 C 85.77 1.25 87.58 4.35 86.81 6.80 C 85.38 13.28 80.74 18.75 75.38 22.45 C 73.23 23.78 71.08 21.68 70.39 19.73 C 68.87 15.78 67.87 11.64 66.29 7.71 C 65.31 7.91 63.35 8.31 62.37 8.51 Z" />
<path fill="#222222" opacity="1.00" d=" M 88.53 4.41 C 91.66 4.44 94.82 4.14 97.92 4.66 C 100.84 5.64 100.84 9.34 99.29 11.50 C 101.48 13.68 101.72 18.08 98.62 19.56 C 95.39 20.65 91.88 20.09 88.53 20.20 C 88.53 14.94 88.53 9.68 88.53 4.41 M 91.88 7.19 C 91.88 8.32 91.89 9.46 91.89 10.60 C 93.56 10.60 95.23 10.61 96.91 10.61 C 97.01 9.49 97.11 8.36 97.20 7.24 C 95.43 7.22 93.65 7.20 91.88 7.19 M 91.88 12.88 C 91.88 14.43 91.88 15.98 91.89 17.53 C 93.92 17.40 95.95 17.20 97.96 16.85 C 97.53 15.72 97.97 14.01 96.82 13.29 C 95.19 12.96 93.53 12.99 91.88 12.88 Z" />
<path fill="#222222" opacity="1.00" d=" M 104.05 5.21 C 106.08 5.20 108.12 5.19 110.15 5.17 C 110.16 5.68 110.17 6.69 110.17 7.20 C 108.13 7.20 106.10 7.20 104.06 7.20 C 104.06 6.70 104.05 5.71 104.05 5.21 Z" />
<path fill="#222222" opacity="1.00" d=" M 11.84 11.44 C 12.35 9.31 12.80 6.64 15.16 5.76 C 17.16 4.75 19.17 6.03 21.03 6.73 C 22.05 6.45 23.07 6.17 24.09 5.89 C 23.66 6.32 22.79 7.17 22.36 7.60 L 24.17 8.30 C 23.52 8.90 22.88 9.50 22.23 10.10 C 22.03 15.97 18.73 22.03 12.91 23.94 C 8.87 25.58 4.48 24.62 0.65 22.92 C 2.95 22.58 5.24 22.07 7.29 20.95 C 5.94 20.01 4.61 19.04 3.29 18.07 C 3.43 17.67 3.70 16.88 3.84 16.49 C 3.00 15.58 2.17 14.68 1.34 13.78 C 1.66 13.43 2.30 12.73 2.62 12.38 C 1.89 10.39 1.44 8.32 1.72 6.19 C 4.61 8.76 7.93 10.89 11.84 11.44 Z" />
<path fill="#222222" opacity="1.00" d=" M 46.20 7.72 C 48.02 8.01 50.84 7.01 51.09 9.65 C 53.87 6.65 59.62 6.47 61.28 10.70 C 62.64 15.18 61.78 19.98 61.99 24.60 C 60.28 24.60 58.58 24.60 56.87 24.60 C 56.80 20.86 57.19 17.09 56.60 13.39 C 56.10 10.93 52.28 11.13 51.71 13.44 C 51.16 17.13 51.56 20.88 51.48 24.59 C 49.77 24.60 48.07 24.60 46.36 24.61 C 46.36 18.98 46.39 13.35 46.20 7.72 Z" />
<path fill="#222222" opacity="1.00" d=" M 103.10 18.94 C 99.50 15.26 102.32 7.32 107.98 8.41 C 111.56 8.50 112.35 12.35 112.67 15.17 C 109.87 15.19 107.08 15.19 104.29 15.29 C 105.16 16.19 105.52 18.07 107.08 17.97 C 108.97 17.38 110.68 16.36 112.57 15.77 C 112.44 20.56 106.16 21.89 103.10 18.94 M 106.11 11.14 C 103.13 12.54 107.78 14.07 108.98 12.62 C 110.00 11.09 107.06 10.60 106.11 11.14 Z" />
</g>
</svg>
