<?xml version="1.0" standalone="no"?>
<!DOCTYPE svg PUBLIC "-//W3C//DTD SVG 1.1//EN" "http://www.w3.org/Graphics/SVG/1.1/DTD/svg11.dtd" >
<svg>
<metadata>
Created by FontForge 20090914 at Fri Jul 10 09:13:34 2015
 By www-data
Font data copyright Punchcut 2009
</metadata>
<defs>
<font id="Amble-Light" horiz-adv-x="1209" >
  <font-face 
    font-family="Amble Lt"
    font-weight="300"
    font-stretch="normal"
    units-per-em="2048"
    panose-1="0 0 0 0 0 0 0 0 0 0"
    ascent="1548"
    descent="-500"
    x-height="1000"
    cap-height="1360"
    bbox="-179 -560 1862 1860"
    underline-thickness="100"
    underline-position="-100"
    unicode-range="U+0020-U+FB02"
  />
<missing-glyph horiz-adv-x="445" 
 />
    <glyph glyph-name="fi" unicode="fi" horiz-adv-x="1248" 
d="M92 1000l167.999 0.00195312v43c0 69.333 10.333 128.5 31 177.5s50.834 89 90.501 120s88 53.5 145 67.5s121.5 21 193.5 21c24.667 0 50.667 -0.833008 78 -2.5s54.5 -3.83398 81.5 -6.50098s52.667 -5.83398 77 -9.50098s45.5 -7.5 63.5 -11.5v-106
c-16 2.66699 -35.667 5.5 -59 8.5s-48 5.83301 -74 8.5s-52.333 4.83398 -79 6.50098s-51.667 2.5 -75 2.5c-58 0 -108.167 -4.83301 -150.5 -14.5s-77.333 -25.334 -105 -47.001s-48.167 -50.167 -61.5 -85.5s-20 -78.333 -20 -129v-43h284v-110h-284v-890h-136v890h-196z
M900.999 1000h136v-1000h-136v1000z" />
    <glyph glyph-name="fl" unicode="fl" horiz-adv-x="1367" 
d="M92 1000l168 0.00195312v43c0 69.333 10.333 128.5 31 177.5s50.834 89 90.501 120s88 53.5 145 67.5s121.5 21 193.5 21c24 0 49.5 -0.833008 76.5 -2.5s53.667 -3.83398 80 -6.50098s51.5 -5.66699 75.5 -9s45 -7 63 -11h118v-1400h-136v1296
c-17.333 2.66699 -37 5.33398 -59 8.00098s-44.667 5.16699 -68 7.5s-46.833 4.16602 -70.5 5.49902s-45.834 2 -66.501 2c-58 0 -108.167 -4.83301 -150.5 -14.5s-77.333 -25.334 -105 -47.001s-48.167 -50.167 -61.5 -85.5s-20 -78.333 -20 -129v-43h284v-110h-284v-890
h-136v890h-196z" />
    <glyph glyph-name=".notdef" horiz-adv-x="445" 
 />
    <glyph glyph-name="space" unicode=" " horiz-adv-x="509" 
 />
    <glyph glyph-name="space" unicode="&#xa0;" horiz-adv-x="509" 
 />
    <glyph glyph-name="exclam" unicode="!" horiz-adv-x="583" 
d="M226 1360h136v-976h-136v976zM214 126h162v-126h-162v126z" />
    <glyph glyph-name="quotedbl" unicode="&#x22;" horiz-adv-x="573" 
d="M78 1360h156l-73 -420l-83 10v410zM344 1360h158l-74 -420l-84 10v410z" />
    <glyph glyph-name="numbersign" unicode="#" horiz-adv-x="1342" 
d="M769 344h-296l-45 -344h-136l46 344h-242v110h257l59 436h-264v110h279l49 360h132l-48 -360h296l48 360h134l-48 -360h252v-110h-267l-57 -436h270v-110h-285l-45 -344h-135zM488 454h295l58 436h-296z" />
    <glyph glyph-name="dollar" unicode="$" 
d="M526 -20c-39.333 0.666992 -78.168 2.99902 -116.501 6.99902s-74.666 9 -108.999 15s-65.666 12.833 -93.999 20.5s-51.833 16.167 -70.5 25.5l32 108c28 -9.33301 55.833 -18 83.5 -26s56.834 -15 87.501 -21s63.5 -10.667 98.5 -14s74.167 -5 117.5 -5
c47.333 0 90.833 5.5 130.5 16.5s73.667 27.167 102 48.5s50.5 47.666 66.5 78.999s24 67.333 24 108c0 36.667 -8.66699 69.667 -26 99s-41.666 55.666 -72.999 78.999s-68.833 44.333 -112.5 63s-91.834 35.667 -144.501 51c-54 16 -104.5 35.333 -151.5 58
s-87.833 49.5 -122.5 80.5s-62 66.167 -82 105.5s-30 83.333 -30 132c0 52 8.83301 99.667 26.5 143s43.167 80.833 76.5 112.5s74.166 57.167 122.499 76.5s103.166 31.333 164.499 36v218h136v-220c33.333 -2.66699 65 -6.66699 95 -12s57.667 -11.166 83 -17.499
s48.166 -12.666 68.499 -18.999s37.833 -12.166 52.5 -17.499l-38 -108l-70.5 25c-23.667 8 -49 15.167 -76 21.5s-56.667 11.5 -89 15.5s-69.166 6 -110.499 6c-51.333 0 -96 -5.83301 -134 -17.5s-69.667 -28.5 -95 -50.5s-44.333 -48.333 -57 -79s-19 -65 -19 -103
c0 -30.667 5.5 -59.5 16.5 -86.5s28.5 -52.5 52.5 -76.5s55.333 -46.167 94 -66.5s86 -39.166 142 -56.499c70.667 -22 133.167 -45.5 187.5 -70.5s100 -52.833 137 -83.5s65 -65 84 -103s28.5 -81 28.5 -129s-8.16699 -92 -24.5 -132s-39.833 -75.5 -70.5 -106.5
s-67.667 -56.833 -111 -77.5s-92 -35.334 -146 -44.001v-248h-136v240z" />
    <glyph glyph-name="percent" unicode="%" horiz-adv-x="1788" 
d="M196 1076c0 47.333 7 89.833 21 127.5s34 69.5 60 95.5s57.667 46 95 60s79.333 21 126 21c44.667 0 85.667 -7 123 -21s69.333 -34 96 -60s47.334 -57.833 62.001 -95.5s22 -80.167 22 -127.5c0 -48 -7.33301 -90.833 -22 -128.5s-35.334 -69.5 -62.001 -95.5
s-58.667 -45.833 -96 -59.5s-78.333 -20.5 -123 -20.5c-46.667 0 -88.667 6.83301 -126 20.5s-69 33.5 -95 59.5s-46 57.833 -60 95.5s-21 80.5 -21 128.5zM332 1076c0 -27.333 3.83301 -52.666 11.5 -75.999s18.667 -43.833 33 -61.5s31.833 -31.5 52.5 -41.5
s43.667 -15 69 -15c24.667 0 47.334 5 68.001 15s38.334 23.833 53.001 41.5s26 38.167 34 61.5s12 48.666 12 75.999c0 26.667 -4 51.834 -12 75.501s-19.333 44.334 -34 62.001s-32.334 31.5 -53.001 41.5s-43.334 15 -68.001 15c-25.333 0 -48.333 -5 -69 -15
s-38.167 -23.833 -52.5 -41.5s-25.333 -38.334 -33 -62.001s-11.5 -48.834 -11.5 -75.501zM994 284c0 47.333 7.16699 89.833 21.5 127.5s34.5 69.5 60.5 95.5s57.667 46 95 60s79 21 125 21s87.667 -7 125 -21s69.166 -34 95.499 -60s46.666 -57.833 60.999 -95.5
s21.5 -80.167 21.5 -127.5c0 -48 -7.16699 -90.833 -21.5 -128.5s-34.666 -69.5 -60.999 -95.5s-58.166 -45.833 -95.499 -59.5s-79 -20.5 -125 -20.5s-87.667 6.83301 -125 20.5s-69 33.5 -95 59.5s-46.167 57.833 -60.5 95.5s-21.5 80.5 -21.5 128.5zM1130 284
c0 -27.333 4 -52.666 12 -75.999s19.167 -43.833 33.5 -61.5s31.666 -31.5 51.999 -41.5s43.166 -15 68.499 -15c24.667 0 47.334 5 68.001 15s38.334 23.833 53.001 41.5s26 38.167 34 61.5s12 48.666 12 75.999c0 26.667 -4 51.834 -12 75.501s-19.333 44.334 -34 62.001
s-32.334 31.5 -53.001 41.5s-43.334 15 -68.001 15c-25.333 0 -48.166 -5 -68.499 -15s-37.666 -23.833 -51.999 -41.5s-25.5 -38.334 -33.5 -62.001s-12 -48.834 -12 -75.501zM1314 1360h107l-938 -1360h-112z" />
    <glyph glyph-name="ampersand" unicode="&#x26;" horiz-adv-x="1380" 
d="M1284 58l-94.002 -78.001l-180 189c-61.333 -57.333 -129.666 -103.166 -204.999 -137.499s-158.333 -51.5 -249 -51.5c-64 0 -124 8.16699 -180 24.5s-105 39.833 -147 70.5s-75 67.667 -99 111s-36 92 -36 146c0 47.333 9 90 27 128s42.833 73.667 74.5 107
s69.167 65.5 112.5 96.5s90.666 63.167 141.999 96.5l-70 74c-24 24.667 -44 48 -60 70s-28.5 43 -37.5 63s-15.333 39.833 -19 59.5s-5.5 40.167 -5.5 61.5c0 44.667 8 85.167 24 121.5s39 67 69 92s66.167 44.333 108.5 58s89.833 20.5 142.5 20.5
c48 0 92.167 -6.83301 132.5 -20.5s75.333 -32.834 105 -57.501s52.834 -54.167 69.501 -88.5s25 -72.166 25 -113.499c0 -34 -6.66699 -65 -20 -93s-31.833 -54.5 -55.5 -79.5s-51.667 -49.833 -84 -74.5l-105.5 -77l-21.5 -15l-21.5 -15l389 -407
c30.667 37.333 58.334 75.5 83.001 114.5s46.667 77.167 66 114.5l86 -72c-22.667 -43.333 -47 -85 -73 -125s-54 -78 -84 -114zM229.998 331.999c0 -34.667 8.16895 -66.667 24.502 -96s39.166 -54.833 68.499 -76.5s64 -38.667 104 -51s83.667 -18.5 131 -18.5
c75.333 0 144.166 15 206.499 45s118.5 68.333 168.5 115l-407 429l-114 -76.5c-36 -25 -67.5 -51.167 -94.5 -78.5s-48.333 -56.5 -64 -87.5s-23.5 -65.833 -23.5 -104.5zM628 879.999l70.501 48.499c21 15 38.833 30.833 53.5 47.5s26 35 34 55s12 43.667 12 71
c0 22.667 -5.66699 44.334 -17 65.001s-26.5 38.5 -45.5 53.5s-40.667 27 -65 36s-49.5 13.5 -75.5 13.5c-28.667 0 -55.334 -4.33301 -80.001 -13s-46 -20.834 -64 -36.501s-32 -34.667 -42 -57s-15 -46.833 -15 -73.5c0 -19.333 2.5 -37.833 7.5 -55.5
s11.333 -34.5 19 -50.5s16.167 -30.667 25.5 -44s18.333 -24.666 27 -33.999l76 -80l39.5 26.5z" />
    <glyph glyph-name="quotesingle" unicode="'" horiz-adv-x="356" 
d="M94 1360h150l-52 -400l-98 10v390z" />
    <glyph glyph-name="parenleft" unicode="(" horiz-adv-x="704" 
d="M292 560c0 -102 9.50098 -196.167 28.501 -282.5s43.5 -165.333 73.5 -237s63.167 -136 99.5 -193s71.833 -106.833 106.5 -149.5l-98 -60c-49.333 62 -95 127.833 -137 197.5s-78.5 143 -109.5 220s-55.333 157.5 -73 241.5s-26.5 171.667 -26.5 263
c0 94.667 9 187.667 27 279s43 178.333 75 261s69.667 159.167 113 229.5s90.333 131.833 141 184.5l100 -60c-36.667 -44 -74 -95.333 -112 -154s-72.333 -125 -103 -199s-55.834 -156 -75.501 -246s-29.5 -188.333 -29.5 -295z" />
    <glyph glyph-name="parenright" unicode=")" horiz-adv-x="708" 
d="M418 592c0 102 -9.66895 196.165 -29.002 282.498s-44.166 165.333 -74.499 237s-64 135.834 -101 192.501s-72.833 106.667 -107.5 150l100 60c114 -124.667 200.5 -263.667 259.5 -417s88.5 -321.666 88.5 -504.999c0 -94.667 -9 -187.667 -27 -279
s-43 -178.333 -75 -261s-69.667 -159.167 -113 -229.5s-90.333 -131.833 -141 -184.5l-104 60c36.667 44 74.334 95.167 113.001 153.5s73.5 124.5 104.5 198.5s56.5 156 76.5 246s30 188.667 30 296z" />
    <glyph glyph-name="asterisk" unicode="*" horiz-adv-x="992" 
d="M575 1380l-29 -344l4 -3l309 177l65 -128l-335 -132l-6 -13l251 -262l-114 -87l-207 298h-9l-199 -310l-122 84l239 271l-8 15l-338 114l64 134l309 -164l6 5l-28 345h148z" />
    <glyph glyph-name="plus" unicode="+" horiz-adv-x="1026" 
d="M445 484h-327v110h327v316h136v-316h334v-110h-334v-318h-136v318z" />
    <glyph glyph-name="comma" unicode="," horiz-adv-x="498" 
d="M204 158h146l-122 -404l-94 14z" />
    <glyph glyph-name="hyphen" unicode="-" horiz-adv-x="794" 
d="M118 586v120h566v-120h-566z" />
    <glyph glyph-name="period" unicode="." horiz-adv-x="597" 
d="M246 132h152v-132h-152v132z" />
    <glyph glyph-name="slash" unicode="/" horiz-adv-x="843" 
d="M630 1360h131l-580 -1500h-131z" />
    <glyph glyph-name="zero" unicode="0" 
d="M122 670c0 107.333 10.333 204.666 31 291.999s51.5 162 92.5 224s91.833 109.833 152.5 143.5s130.667 50.5 210 50.5c80 0 150.667 -16.833 212 -50.5s112.833 -81.5 154.5 -143.5s73.167 -136.667 94.5 -224s32 -184.666 32 -291.999
c0 -108 -10.667 -204.667 -32 -290s-52.833 -157.666 -94.5 -216.999s-93.167 -104.666 -154.5 -135.999s-132 -47 -212 -47c-79.333 0 -149.333 15.667 -210 47s-111.5 76.666 -152.5 135.999s-71.833 131.666 -92.5 216.999s-31 182 -31 290zM258 670
c0 -88 7.16699 -167.667 21.5 -239s36 -132.333 65 -183s65.5 -89.667 109.5 -117s95.333 -41 154 -41c57.333 0 108.166 13.667 152.499 41s81.666 66.333 111.999 117s53.333 111.667 69 183s23.5 151 23.5 239s-7.83301 168.667 -23.5 242s-38.667 136.5 -69 189.5
s-67.666 94.333 -111.999 124s-95.166 44.5 -152.499 44.5c-58.667 0 -110 -14.833 -154 -44.5s-80.5 -71 -109.5 -124s-50.667 -116.167 -65 -189.5s-21.5 -154 -21.5 -242z" />
    <glyph glyph-name="one" unicode="1" 
d="M271 0v110h350v1110l-355 -82v110l416 112h75v-1250h333v-110h-819z" />
    <glyph glyph-name="two" unicode="2" 
d="M1071 110v-110.001h-885v36c0 93.333 9.16699 173.166 27.5 239.499s46.833 124.833 85.5 175.5s88 96.167 148 136.5s131.333 81.166 214 122.499c44 22.667 81.667 46.167 113 70.5s56.666 49.5 75.999 75.5s33.5 52.833 42.5 80.5s13.5 56.167 13.5 85.5
c0 36.667 -7.16699 70.334 -21.5 101.001s-34.5 56.834 -60.5 78.501s-57.667 38.5 -95 50.5s-79 18 -125 18c-37.333 0 -73 -3.16699 -107 -9.5s-66.833 -14.833 -98.5 -25.5s-62 -23 -91 -37s-57.167 -28.667 -84.5 -44l-50 94c21.333 14 47.333 28.667 78 44
s64.5 29.5 101.5 42.5s76.833 23.833 119.5 32.5s86.667 13 132 13c66.667 0 127 -8.5 181 -25.5s100 -41.333 138 -73s67.333 -70 88 -115s31 -95.833 31 -152.5c0 -51.333 -9.5 -97.166 -28.5 -137.499s-44.167 -76.5 -75.5 -108.5s-67.666 -61.167 -108.999 -87.5
s-84 -51.166 -128 -74.499c-56 -30 -107 -60.5 -153 -91.5s-85.5 -65.667 -118.5 -104s-58.667 -81.833 -77 -130.5s-28.5 -105.334 -30.5 -170.001h749z" />
    <glyph glyph-name="three" unicode="3" 
d="M1006 1004c0 -72.667 -19.6699 -135.332 -59.0029 -187.999s-96 -92.334 -170 -119.001c88.667 -26.667 156.834 -68.5 204.501 -125.5s71.5 -125.5 71.5 -205.5c0 -57.333 -11.833 -109.666 -35.5 -156.999s-57.834 -88 -102.501 -122s-99.167 -60.333 -163.5 -79
s-136.833 -28 -217.5 -28c-36 0 -72.5 2 -109.5 6s-72.5 10 -106.5 18s-65.667 17.667 -95 29s-55 24.333 -77 39l54 88c24.667 -10 49.334 -19.333 74.001 -28s50 -16 76 -22s53.5 -10.833 82.5 -14.5s60.167 -5.5 93.5 -5.5c56.667 0 109 5.5 157 16.5
s89.333 27.667 124 50s61.667 50.5 81 84.5s29 73.667 29 119c0 48 -9.16699 89.5 -27.5 124.5s-44 64 -77 87s-72 40.167 -117 51.5s-94.167 17 -147.5 17h-182v110h182c46.667 0 89.834 5.16699 129.501 15.5s73.667 26.166 102 47.499s50.5 48.333 66.5 81
s24 71.334 24 116.001c0 46.667 -8.83301 86.5 -26.5 119.5s-42 60 -73 81s-67.833 36.167 -110.5 45.5s-89 14 -139 14c-31.333 0 -60.333 -1.83301 -87 -5.5s-52.167 -9 -76.5 -16s-48 -15.167 -71 -24.5s-45.833 -19.333 -68.5 -30l-60 88
c21.333 15.333 46.833 29.166 76.5 41.499s61.5 22.666 95.5 30.999s69.167 14.666 105.5 18.999s71.5 6.5 105.5 6.5c73.333 0 138.833 -8.66699 196.5 -26s106.334 -42.166 146.001 -74.499s70 -71.666 91 -117.999s31.5 -98.833 31.5 -157.5z" />
    <glyph glyph-name="four" unicode="4" 
d="M931 314v-314h-136v314h-725v76l691 970h170v-936h218v-110h-218zM795 424v785l-551 -785h551z" />
    <glyph glyph-name="five" unicode="5" 
d="M1073 420c0 -65.333 -10.499 -125.002 -31.499 -179.002s-52.667 -100.333 -95 -139s-95.333 -68.667 -159 -90s-137.834 -32 -222.501 -32c-42 0 -83 2.33301 -123 7s-77.667 11 -113 19s-67.833 17.167 -97.5 27.5s-54.834 21.166 -75.501 32.499l46 100
c22.667 -11.333 45.834 -21.5 69.501 -30.5s49.334 -17 77.001 -24s58 -12.333 91 -16s69.833 -5.5 110.5 -5.5c127.333 0 223.666 26.833 288.999 80.5s98 136.834 98 249.501c0 51.333 -9.83301 95.833 -29.5 133.5s-46.834 68.834 -81.501 93.501s-75.167 43 -121.5 55
s-96.5 18 -150.5 18c-51.333 0 -102.333 -4 -153 -12s-95.667 -20.667 -135 -38l-106 40l108 650h731v-110h-633l-79 -455c40 11.333 85.833 20 137.5 26s110.834 9 177.501 9c72 0 137 -9.83301 195 -29.5s107.5 -47.5 148.5 -83.5s72.5 -79.167 94.5 -129.5
s33 -106.166 33 -167.499z" />
    <glyph glyph-name="six" unicode="6" 
d="M666 852c78 0 145.167 -9.99707 201.5 -29.9971s102.5 -48.5 138.5 -85.5s62.667 -81.333 80 -133s26 -108.834 26 -171.501c0 -55.333 -10.167 -109.833 -30.5 -163.5s-50.333 -102 -90 -145s-88.5 -77.667 -146.5 -104s-124.667 -39.5 -200 -39.5
c-86 0 -161.167 15.5 -225.5 46.5s-118.166 75 -161.499 132s-75.833 125.5 -97.5 205.5s-32.5 168.667 -32.5 266c0 113.333 13 216.166 39 308.499s63.833 171.166 113.5 236.499s110.667 115.833 183 151.5s154.833 53.5 247.5 53.5c38.667 0 73.667 -1.66699 105 -5
s59.833 -8 85.5 -14s49.167 -13 70.5 -21s41.333 -16.667 60 -26l-42 -96c-40 17.333 -81.333 30.333 -124 39s-90.334 13 -143.001 13c-68 0 -129.667 -11.833 -185 -35.5s-103 -60.5 -143 -110.5s-71.333 -113.667 -94 -191s-35 -169.333 -37 -276c24 32 51.333 60 82 84
s63.5 44.333 98.5 61s71.167 29.167 108.5 37.5s75 12.5 113 12.5zM679 742.003c-33.333 0 -68.166 -2.99805 -104.499 -8.99805s-72.5 -16.5 -108.5 -31.5s-71.167 -35 -105.5 -60s-65.833 -56.5 -94.5 -94.5c10 -158 49 -273.667 117 -347s163.333 -110 286 -110
c50 0 94.167 9.5 132.5 28.5s70.333 44.333 96 76s45.167 67.667 58.5 108s20 82.166 20 125.499c0 44 -5.5 85.167 -16.5 123.5s-28.5 71.666 -52.5 99.999s-54.833 50.5 -92.5 66.5s-82.834 24 -135.501 24z" />
    <glyph glyph-name="seven" unicode="7" 
d="M1088 1360v-112l-574 -1248h-140l571 1240h-823v120h966z" />
    <glyph glyph-name="eight" unicode="8" 
d="M110 366c0 38.667 6.33301 75 19 109s31 65.333 55 94s53.167 53.834 87.5 75.501s73.166 39.167 116.499 52.5c-73.333 25.333 -130 64 -170 116s-60 116.333 -60 193c0 58.667 10.333 111.167 31 157.5s50.167 85.5 88.5 117.5s84.833 56.5 139.5 73.5
s116.334 25.5 185.001 25.5s131.167 -8.5 187.5 -25.5s104.666 -41.5 144.999 -73.5s71.666 -71.167 93.999 -117.5s33.5 -98.833 33.5 -157.5c0 -76.667 -21.667 -141 -65 -193s-102.666 -90.667 -177.999 -116c44 -13.333 83.833 -30.833 119.5 -52.5
s65.834 -46.834 90.501 -75.501s43.667 -60 57 -94s20 -70.333 20 -109c0 -62 -12.167 -117 -36.5 -165s-58.5 -88.333 -102.5 -121s-97 -57.5 -159 -74.5s-130.667 -25.5 -206 -25.5c-74.667 0 -142.167 8.5 -202.5 25.5s-112 41.833 -155 74.5s-76.167 73 -99.5 121
s-35 103 -35 165zM246 366c0 -44.667 8.66699 -84.166 26 -118.499s41.666 -63.166 72.999 -86.499s68.833 -41 112.5 -53s91.834 -18 144.501 -18s101.5 6 146.5 18s83.833 29.667 116.5 53s58.334 52.166 77.001 86.499s28 73.833 28 118.5
c0 39.333 -9.33301 75.833 -28 109.5s-44.334 62.834 -77.001 87.501s-71.5 44 -116.5 58s-93.833 21 -146.5 21s-100.834 -6.83301 -144.501 -20.5s-81.167 -32.834 -112.5 -57.501s-55.666 -53.834 -72.999 -87.501s-26 -70.5 -26 -110.5zM294 1006
c0 -40.667 7.33301 -76.667 22 -108s35.5 -57.833 62.5 -79.5s59.5 -38.167 97.5 -49.5s80 -17 126 -17c45.333 0 87.833 5.66699 127.5 17s74 27.833 103 49.5s51.833 48.167 68.5 79.5s25 67.333 25 108c0 42 -8.33301 79.333 -25 112s-39.5 60.334 -68.5 83.001
s-63.333 39.834 -103 51.501s-82.167 17.5 -127.5 17.5c-46 0 -88 -5.83301 -126 -17.5s-70.5 -28.834 -97.5 -51.501s-47.833 -50.334 -62.5 -83.001s-22 -70 -22 -112z" />
    <glyph glyph-name="nine" unicode="9" 
d="M550 518c-63.333 0 -121.169 10.6631 -173.502 31.9961s-97.166 50.833 -134.499 88.5s-66.5 82.167 -87.5 133.5s-31.5 106.666 -31.5 165.999c0 54.667 10.5 108.334 31.5 161.001s51.5 99.834 91.5 141.501s89 75.334 147 101.001s124 38.5 198 38.5
c78.667 0 148.5 -13.167 209.5 -39.5s112.167 -67.5 153.5 -123.5s72.833 -127.667 94.5 -215s32.5 -192 32.5 -314c0 -106.667 -12.333 -203.5 -37 -290.5s-59.834 -161.5 -105.501 -223.5s-101.167 -109.833 -166.5 -143.5s-138.666 -50.5 -219.999 -50.5
c-42.667 0 -80.5 1.66699 -113.5 5s-63 8 -90 14s-51.5 13 -73.5 21s-43 16.667 -63 26l34 102c42 -18 87.333 -32.167 136 -42.5s102.334 -15.5 161.001 -15.5c57.333 0 110.333 11.333 159 34s90.834 57.834 126.501 105.501s63.667 108.334 84 182.001
s31.166 161.5 32.499 263.5c-47.333 -51.333 -105 -90.333 -173 -117s-142 -40 -222 -40zM533.997 627.996c36 0 72.167 2.66504 108.5 7.99805s72 14.833 107 28.5s68.667 32 101 55s62.5 52.167 90.5 87.5c-6 94 -19 171 -39 231s-46.333 107.167 -79 141.5
s-71.167 58 -115.5 71s-93.5 19.5 -147.5 19.5c-48.667 0 -91.667 -9.16699 -129 -27.5s-68.833 -43 -94.5 -74s-45 -66.667 -58 -107s-19.5 -82.166 -19.5 -125.499s5.16699 -83.666 15.5 -120.999s26.5 -69.833 48.5 -97.5s50.333 -49.5 85 -65.5s76.667 -24 126 -24z" />
    <glyph glyph-name="colon" unicode=":" horiz-adv-x="612" 
d="M234 838h152v-132h-152v132zM234 132h152v-132h-152v132z" />
    <glyph glyph-name="semicolon" unicode=";" horiz-adv-x="587" 
d="M204 158h146l-122 -404l-94 14zM207 848h152v-132h-152v132z" />
    <glyph glyph-name="less" unicode="&#x3c;" horiz-adv-x="1084" 
d="M973 224v-132l-855 348v118l855 348v-134l-717 -274z" />
    <glyph glyph-name="equal" unicode="=" horiz-adv-x="1253" 
d="M146 704v110h966v-110h-966zM146 362v110h966v-110h-966z" />
    <glyph glyph-name="greater" unicode="&#x3e;" horiz-adv-x="1084" 
d="M118 774v132l855 -348v-118l-855 -348v134l717 274z" />
    <glyph glyph-name="question" unicode="?" horiz-adv-x="1043" 
d="M402 356c0 51.333 2.99707 96.8369 8.99707 136.504s15.833 75.5 29.5 107.5s31.167 61 52.5 87s47 51.667 77 77l88 69c26.667 21.333 49.667 42.666 69 63.999s34.333 43.666 45 66.999s16 49.333 16 78c0 32 -5.33301 61.5 -16 88.5s-27.5 50.5 -50.5 70.5
s-52.833 35.5 -89.5 46.5s-81 16.5 -133 16.5c-36.667 0 -70.667 -3.33301 -102 -10s-61 -15.5 -89 -26.5s-54.667 -23.667 -80 -38s-50.333 -29.5 -75 -45.5l-54 94c20 14.667 44.333 30 73 46s60.5 30.667 95.5 44s72.667 24.333 113 33s82.5 13 126.5 13
c65.333 0 123.833 -7.66699 175.5 -23s95.334 -37 131.001 -65s63 -62.167 82 -102.5s28.5 -85.5 28.5 -135.5c0 -46.667 -10.167 -89.167 -30.5 -127.5s-45.666 -73.5 -75.999 -105.5s-63.166 -61.667 -98.499 -89l-99 -78c-17.333 -14.667 -31.333 -30.834 -42 -48.501
s-19 -38.167 -25 -61.5s-10 -49.833 -12 -79.5s-3 -63.834 -3 -102.501h-136zM383.997 158.004h162v-158h-162v158z" />
    <glyph glyph-name="at" unicode="@" horiz-adv-x="1877" 
d="M1745 522c-2 -42 -6.82812 -84.667 -14.4951 -128s-19.167 -85.166 -34.5 -125.499s-34.5 -78 -57.5 -113s-50.5 -65.5 -82.5 -91.5s-69 -46.5 -111 -61.5s-89 -22.5 -141 -22.5c-46 0 -85.333 14.5 -118 43.5s-54.667 69.5 -66 121.5
c-32 -54.667 -71.333 -95.834 -118 -123.501s-103.334 -41.5 -170.001 -41.5c-40.667 0 -77.5 8 -110.5 24s-61 38.667 -84 68s-40.667 65 -53 107s-18.5 88.667 -18.5 140c0 13.333 0.5 26.666 1.5 39.999s2.16699 27 3.5 41c8 80.667 24 153.834 48 219.501
s53.333 121.667 88 168s73.334 82 116.001 107s86.667 37.5 132 37.5s84.5 -2.83301 117.5 -8.5s62.5 -13.5 88.5 -23.5s50.167 -21.333 72.5 -34l68.5 -40l-46 -544c-0.666992 -7.33301 -1.16699 -14.5 -1.5 -21.5s-0.5 -13.833 -0.5 -20.5
c0 -31.333 2.83301 -56.666 8.5 -75.999s13.167 -34.5 22.5 -45.5s20 -18.5 32 -22.5s24.333 -6 37 -6c40 0 75.333 11.167 106 33.5s56.667 53 78 92s38 84.667 50 137s19 108.833 21 169.5c0.666992 11.333 1.16699 22.666 1.5 33.999s0.5 22.666 0.5 33.999
c0 106.667 -12.333 202.167 -37 286.5s-63 155.666 -115 213.999s-118 102.833 -198 133.5s-175 46 -285 46c-105.333 0 -199.833 -18.5 -283.5 -55.5s-155.5 -90.333 -215.5 -160s-107 -154.5 -141 -254.5s-53.333 -213.333 -58 -340
c-0.666992 -12.667 -1.16699 -25 -1.5 -37s-0.5 -24 -0.5 -36c0 -112.667 14.167 -213.167 42.5 -301.5s69.333 -163 123 -224s119.5 -107.5 197.5 -139.5s166.667 -48 266 -48c34.667 0 70 2.16699 106 6.5s71 10.5 105 18.5s66.5 17.333 97.5 28
s59.167 22.334 84.5 35.001l12 -112c-25.333 -14.667 -54.5 -27.334 -87.5 -38.001s-67.667 -19.5 -104 -26.5s-73.333 -12.333 -111 -16s-73.834 -5.5 -108.501 -5.5c-118 0 -224 18.667 -318 56s-173.833 90.666 -239.5 159.999s-115.834 153.833 -150.501 253.5
s-52 211.834 -52 336.501c0 28.667 1 58.667 3 90c2.66699 140.667 25.167 267.834 67.5 381.501s100.166 210.334 173.499 290.001s160.666 141 261.999 184s213 64.5 335 64.5s230.5 -18.333 325.5 -55s175.167 -89.334 240.5 -158.001s115.166 -152 149.499 -250
s51.5 -208.333 51.5 -331c0 -10.667 -0.166992 -21.167 -0.5 -31.5s-0.833008 -21.166 -1.5 -32.499zM708.005 400c-1.33301 -14 -2.5 -27.4971 -3.5 -40.4971s-1.5 -25.833 -1.5 -38.5c0 -70.667 12.667 -126.834 38 -168.501s62.666 -62.5 111.999 -62.5
c24.667 0 49.334 4 74.001 12s48.334 21.167 71.001 39.5s44.167 42 64.5 71s39.166 64.5 56.499 106.5l36 468c-21.333 10 -45.5 18.333 -72.5 25s-56.5 10 -88.5 10c-44 0 -82.5 -9 -115.5 -27s-61 -44.833 -84 -80.5s-41.5 -79.834 -55.5 -132.501
s-24.333 -113.334 -31 -182.001z" />
    <glyph glyph-name="A" unicode="A" horiz-adv-x="1375" 
d="M982 422h-581l-157 -422h-142l513 1360h148l519 -1360h-142zM442 532h499l-249 667z" />
    <glyph glyph-name="B" unicode="B" horiz-adv-x="1303" 
d="M216 1360l364.001 -0.000976562c77.333 0 146 -8.66699 206 -26s110.5 -42 151.5 -74s72 -70.333 93 -115s31.5 -94.334 31.5 -149.001c0 -37.333 -4.33301 -70.833 -13 -100.5s-19.834 -56.167 -33.501 -79.5s-29.167 -43.666 -46.5 -60.999s-34.333 -32 -51 -44
c36 -10.667 68.667 -26 98 -46s54.5 -44 75.5 -72s37.167 -59.5 48.5 -94.5s17 -73.167 17 -114.5c0 -57.333 -11.333 -109.666 -34 -156.999s-55.667 -87.833 -99 -121.5s-96.5 -59.667 -159.5 -78s-134.833 -27.5 -215.5 -27.5h-433v1360zM352.001 647.999
l-0.00195312 -537.997h274c58.667 0 112.334 5.16699 161.001 15.5s90.334 26.166 125.001 47.499s61.5 48.666 80.5 81.999s28.5 73 28.5 119c0 45.333 -7.83301 85.166 -23.5 119.499s-37.5 63 -65.5 86s-61.167 40.167 -99.5 51.5s-79.833 17 -124.5 17h-356z
M351.999 1250l0.000976562 -491.998h451c10 10.667 22 22.667 36 36s27.5 29.5 40.5 48.5s24 42 33 69s13.5 59.833 13.5 98.5c0 42 -8.83301 78.167 -26.5 108.5s-42.667 55.166 -75 74.499s-71.333 33.666 -117 42.999s-96.834 14 -153.501 14h-202z" />
    <glyph glyph-name="C" unicode="C" 
d="M136 682c0 105.333 14.4971 201.003 43.4971 287.003s70.333 159.5 124 220.5s118.667 108 195 141s162.166 49.5 257.499 49.5c70.667 0 131 -7.33301 181 -22s92.667 -31 128 -49l-46 -95c-36 17.333 -77.5 31 -124.5 41s-95.5 15 -145.5 15
c-70 0 -134.167 -11.333 -192.5 -34s-108.666 -57.834 -150.999 -105.501s-75.166 -108.667 -98.499 -183s-35 -162.833 -35 -265.5c0 -103.333 12.667 -192.166 38 -266.499s60.833 -135.666 106.5 -183.999s99.834 -84 162.501 -107s131 -34.5 205 -34.5
c30.667 0 59.834 2.16699 87.501 6.5s53.167 9.66602 76.5 15.999s44.5 13.166 63.5 20.499s35.833 14.333 50.5 21l39 -92c-34.667 -23.333 -80 -42.833 -136 -58.5s-121.333 -23.5 -196 -23.5c-96.667 0 -184 16.833 -262 50.5s-144.5 81.167 -199.5 142.5
s-97.333 135.166 -127 221.499s-44.5 182.166 -44.5 287.499z" />
    <glyph glyph-name="D" unicode="D" horiz-adv-x="1411" 
d="M216 1360l399 0.00292969c100.667 0 192 -16.167 274 -48.5s151.667 -78 209 -137s101.666 -130.167 132.999 -213.5s47 -176.333 47 -279s-15.667 -195.834 -47 -279.501s-75.666 -155.334 -132.999 -215.001s-127 -105.834 -209 -138.501s-173.333 -49 -274 -49h-399
v1360zM352 1250v-1140h243c79.333 0 152.5 11.167 219.5 33.5s124.667 56.833 173 103.5s86.166 106 113.499 178s41 157.667 41 257s-13.667 184.833 -41 256.5s-65.166 130.5 -113.499 176.5s-106 80 -173 102s-140.167 33 -219.5 33h-243z" />
    <glyph glyph-name="E" unicode="E" horiz-adv-x="1099" 
d="M216 0v1360h774v-110h-638v-492h571v-110h-571v-538h638v-110h-774z" />
    <glyph glyph-name="F" unicode="F" horiz-adv-x="1007" 
d="M352 648v-648h-136v1360h731v-110h-595v-492h526v-110h-526z" />
    <glyph glyph-name="G" unicode="G" horiz-adv-x="1425" 
d="M749 664l499 -0.00292969v-596c-65.333 -27.333 -133.5 -48.833 -204.5 -64.5s-147.833 -23.5 -230.5 -23.5c-68 0 -132 8.5 -192 25.5s-115.167 41 -165.5 72s-95.166 68 -134.499 111s-72.833 90.333 -100.5 142s-48.667 107 -63 166s-21.5 120.167 -21.5 183.5
c0 111.333 17 210.5 51 297.5s82.333 160.333 145 220s138.667 105 228 136s189.666 46.5 300.999 46.5c36 0 69.667 -1.83301 101 -5.5s60 -8.5 86 -14.5s49 -12.333 69 -19s37 -13 51 -19l-34 -106c-32.667 12 -71.5 24 -116.5 36s-95.833 18 -152.5 18
c-87.333 0 -167.333 -11.667 -240 -35s-135.167 -59.166 -187.5 -107.499s-93 -109.666 -122 -183.999s-43.5 -162.166 -43.5 -263.499c0 -76 13.333 -149.5 40 -220.5s63.834 -133.833 111.501 -188.5s104.667 -98.5 171 -131.5s139.166 -49.5 218.499 -49.5
c52 0 104.5 2.83301 157.5 8.5s100.167 16.167 141.5 31.5v424h-363v110z" />
    <glyph glyph-name="H" unicode="H" horiz-adv-x="1432" 
d="M216 1360h136v-626h747v626h136v-1360h-136v624h-747v-624h-136v1360z" />
    <glyph glyph-name="I" unicode="I" horiz-adv-x="856" 
d="M156 0v110h211v1140h-211v110h548v-110h-201v-1140h201v-110h-548z" />
    <glyph glyph-name="J" unicode="J" horiz-adv-x="989" 
d="M148 156c14.667 -8 32.5 -16.001 53.5 -24.001s42.833 -15 65.5 -21s45 -11 67 -15s42 -6 60 -6c43.333 0 81.333 5.33301 114 16s60 27.667 82 51s38.5 53.5 49.5 90.5s16.5 81.833 16.5 134.5v978h136v-972c0 -78.667 -9.5 -144.167 -28.5 -196.5
s-46 -94.166 -81 -125.499s-77 -53.5 -126 -66.5s-103.167 -19.5 -162.5 -19.5c-63.333 0 -121.333 8 -174 24s-96.667 34 -132 54z" />
    <glyph glyph-name="K" unicode="K" horiz-adv-x="1301" 
d="M558 628h-206v-628h-136v1360h136v-622h204l450 622h174l-496 -674h-2l574 -686h-180z" />
    <glyph glyph-name="L" unicode="L" horiz-adv-x="1080" 
d="M216 1360h136v-1250h674v-110h-810v1360z" />
    <glyph glyph-name="M" unicode="M" horiz-adv-x="1743" 
d="M882 639l492 721h172v-1360h-136v1206l-475 -702h-106l-477 705v-1209h-136v1360h173z" />
    <glyph glyph-name="N" unicode="N" horiz-adv-x="1482" 
d="M216 1360h136l799 -1145v1145h136v-1360h-136l-799 1126v-1126h-136v1360z" />
    <glyph glyph-name="O" unicode="O" horiz-adv-x="1438" 
d="M135 680c0 107.333 14 204.166 42 290.499s67.167 159.833 117.5 220.5s110.833 107.334 181.5 140.001s148.667 49 234 49c84.667 0 163.5 -16.333 236.5 -49s136.333 -79.334 190 -140.001s95.834 -134.167 126.501 -220.5s46 -183.166 46 -290.499
c0 -108 -15.333 -205.167 -46 -291.5s-72.834 -159.833 -126.501 -220.5s-117 -107.167 -190 -139.5s-151.833 -48.5 -236.5 -48.5c-85.333 0 -163.333 16.167 -234 48.5s-131.167 78.833 -181.5 139.5s-89.5 134.167 -117.5 220.5s-42 183.5 -42 291.5zM271 680
c0 -100 11 -187 33 -261s52.667 -135.333 92 -184s85.666 -85 138.999 -109s111.666 -36 174.999 -36c64 0 124.167 12 180.5 36s105.5 60.333 147.5 109s75 110 99 184s36 161 36 261s-12 187 -36 261s-57 135.333 -99 184s-91.167 85 -147.5 109s-116.5 36 -180.5 36
c-63.333 0 -121.666 -12 -174.999 -36s-99.666 -60.333 -138.999 -109s-70 -110 -92 -184s-33 -161 -33 -261z" />
    <glyph glyph-name="P" unicode="P" horiz-adv-x="1228" 
d="M216 1360l388 0.000976562c82.667 0 156 -9.66699 220 -29s118 -47 162 -83s77.5 -79.333 100.5 -130s34.5 -107.334 34.5 -170.001s-11.5 -119.5 -34.5 -170.5s-56.5 -94.667 -100.5 -131s-98 -64.5 -162 -84.5s-137.333 -30 -220 -30h-252v-532h-136v1360zM352 1250
v-607.999h228c62 0 118 6.16699 168 18.5s92.5 31 127.5 56s62 56.667 81 95s28.5 83.833 28.5 136.5s-9.5 98.167 -28.5 136.5s-46 69.666 -81 93.999s-77.5 42.333 -127.5 54s-106 17.5 -168 17.5h-228z" />
    <glyph glyph-name="Q" unicode="Q" horiz-adv-x="1407" 
d="M121 680c0 107.333 13.999 204.167 41.999 290.5s67.167 159.833 117.5 220.5s110.833 107.334 181.5 140.001s148.667 49 234 49c84.667 0 163.5 -16.333 236.5 -49s136.333 -79.334 190 -140.001s95.834 -134.167 126.501 -220.5s46 -183.166 46 -290.499
c0 -124 -19.667 -233.333 -59 -328s-93.333 -172.334 -162 -233.001l286 -289h-162l-220 221c-42 -23.333 -86.5 -41 -133.5 -53s-96.5 -18 -148.5 -18c-85.333 0 -163.333 16.167 -234 48.5s-131.167 78.833 -181.5 139.5s-89.5 134.167 -117.5 220.5s-42 183.5 -42 291.5z
M256.999 680.001c0 -100 11 -187 33 -261s52.667 -135.333 92 -184s85.666 -85 138.999 -109s111.666 -36 174.999 -36c64 0 124.167 12 180.5 36s105.5 60.333 147.5 109s75 110 99 184s36 161 36 261s-12 187 -36 261s-57 135.333 -99 184s-91.167 85 -147.5 109
s-116.5 36 -180.5 36c-63.333 0 -121.666 -12 -174.999 -36s-99.666 -60.333 -138.999 -109s-70 -110 -92 -184s-33 -161 -33 -261z" />
    <glyph glyph-name="R" unicode="R" horiz-adv-x="1259" 
d="M216 1360l425 0.000976562c73.333 0 138.333 -8.16699 195 -24.5s104.5 -40.166 143.5 -71.499s68.667 -69.833 89 -115.5s30.5 -97.834 30.5 -156.501c0 -36.667 -6 -71.834 -18 -105.501s-28.333 -65.167 -49 -94.5s-45 -56 -73 -80s-58.333 -44 -91 -60l292 -652h-139
l-277 626h-392v-626h-136v1360zM352 1250v-514h457l53 40.5c18 14.333 34.5 31 49.5 50s27.333 41.833 37 68.5s14.5 59 14.5 97c0 48 -8.33301 88.5 -25 121.5s-40.167 59.5 -70.5 79.5s-67.333 34.5 -111 43.5s-92.5 13.5 -146.5 13.5h-258z" />
    <glyph glyph-name="S" unicode="S" horiz-adv-x="1115" 
d="M1004 348c0 -55.333 -11.0039 -105.665 -33.0039 -150.998s-53.167 -84 -93.5 -116s-89 -56.833 -146 -74.5s-120.5 -26.5 -190.5 -26.5c-41.333 0 -82.5 1.83301 -123.5 5.5s-79.667 8.5 -116 14.5s-69.666 13.167 -99.999 21.5s-55.5 17.166 -75.5 26.499l32 108
c28 -9.33301 55.833 -18 83.5 -26s56.834 -15 87.501 -21s63.5 -10.667 98.5 -14s74.167 -5 117.5 -5c47.333 0 90.833 5.5 130.5 16.5s73.667 27.167 102 48.5s50.5 47.666 66.5 78.999s24 67.333 24 108c0 36.667 -8.66699 69.667 -26 99s-41.666 55.666 -72.999 78.999
s-68.833 44.333 -112.5 63s-91.834 35.667 -144.501 51c-54 16 -104.5 35.333 -151.5 58s-87.833 49.5 -122.5 80.5s-62 66.167 -82 105.5s-30 83.333 -30 132c0 56 10.167 106.833 30.5 152.5s49.5 84.5 87.5 116.5s84.333 56.833 139 74.5s116.667 26.5 186 26.5
c42.667 0 83.5 -2.5 122.5 -7.5s74.833 -11 107.5 -18s61.834 -14.5 87.501 -22.5s47.167 -15.333 64.5 -22l-38 -108l-70.5 25c-23.667 8 -49 15.167 -76 21.5s-56.667 11.5 -89 15.5s-69.166 6 -110.499 6c-51.333 0 -96 -5.83301 -134 -17.5s-69.667 -28.5 -95 -50.5
s-44.333 -48.333 -57 -79s-19 -65 -19 -103c0 -30.667 5.5 -59.5 16.5 -86.5s28.5 -52.5 52.5 -76.5s55.333 -46.167 94 -66.5s86 -39.166 142 -56.499c70.667 -22 133.167 -45.5 187.5 -70.5s100 -52.833 137 -83.5s65 -65 84 -103s28.5 -81 28.5 -129z" />
    <glyph glyph-name="T" unicode="T" horiz-adv-x="1255" 
d="M705 1250v-1250h-136v1250h-473v110h1068v-110h-459z" />
    <glyph glyph-name="U" unicode="U" horiz-adv-x="1457" 
d="M1123 1360h136.005v-960c0 -67.333 -12.833 -127 -38.5 -179s-61.834 -95.833 -108.501 -131.5s-102.334 -62.834 -167.001 -81.501s-136.334 -28 -215.001 -28c-78 0 -148.667 9.16699 -212 27.5s-117.333 45.333 -162 81s-79.167 79.334 -103.5 131.001
s-36.5 111.167 -36.5 178.5v962h136v-962c0 -49.333 9.33301 -93 28 -131s44.667 -70.167 78 -96.5s73.166 -46.333 119.499 -60s97.166 -20.5 152.499 -20.5c56 0 108 6.83301 156 20.5s89.5 33.667 124.5 60s62.5 58.5 82.5 96.5s30 81.667 30 131v962z" />
    <glyph glyph-name="V" unicode="V" horiz-adv-x="1353" 
d="M537 588l142 -401l138 393l299 780h150l-521 -1360h-133l-522 1360h148z" />
    <glyph glyph-name="W" unicode="W" horiz-adv-x="1891" 
d="M1627 1360h150l-323 -1360h-155l-348 1104l-356 -1104h-151l-324 1360h149l257 -1177l347 1177h153l343 -1171z" />
    <glyph glyph-name="X" unicode="X" horiz-adv-x="1190" 
d="M598 781l347 579h167l-416 -671l416 -689h-170l-345 590l-345 -590h-170l416 689l-416 671h168z" />
    <glyph glyph-name="Y" unicode="Y" horiz-adv-x="1184" 
d="M594 636l353 724h152l-434 -870v-490h-136v484l-439 876h152z" />
    <glyph glyph-name="Z" unicode="Z" horiz-adv-x="1315" 
d="M164 1360h962v-80l-808 -1170h888l-46 -110h-1004v102l775 1148h-767v110z" />
    <glyph glyph-name="bracketleft" unicode="[" horiz-adv-x="749" 
d="M290 1524h303v-110h-167v-1598h167v-110h-303v1818z" />
    <glyph glyph-name="backslash" unicode="\" horiz-adv-x="817" 
d="M53 1360h138l578 -1500h-136z" />
    <glyph glyph-name="bracketright" unicode="]" horiz-adv-x="761" 
d="M465 1524v-1818h-303v110h168v1598h-168v110h303z" />
    <glyph glyph-name="asciicircum" unicode="^" horiz-adv-x="926" 
d="M236 708h-143l307 652h132l305 -652h-143l-227 503z" />
    <glyph glyph-name="underscore" unicode="_" horiz-adv-x="955" 
d="M0 -198v110h955v-110h-955z" />
    <glyph glyph-name="grave" unicode="`" horiz-adv-x="591" 
d="M483 1146l-107 -34l-270 248l158 66z" />
    <glyph glyph-name="a" unicode="a" horiz-adv-x="1136" 
d="M811 584l0.00585938 37.999c0 54 -5.5 99.333 -16.5 136s-27.333 66.334 -49 89.001s-48.834 38.834 -81.501 48.501s-70.667 14.5 -114 14.5c-27.333 0 -54.833 -1.83301 -82.5 -5.5s-54.667 -8.83398 -81 -15.501s-51.333 -14.167 -75 -22.5
s-44.834 -17.166 -63.501 -26.499l-38 98c22 12.667 47 24 75 34s57.333 18.5 88 25.5s62.167 12.5 94.5 16.5s63.833 6 94.5 6c58 0 110.833 -6 158.5 -18s88.167 -33 121.5 -63s59.166 -70.667 77.499 -122s27.5 -116.333 27.5 -195v-622h-98l-23 113
c-12.667 -10 -30.834 -22.5 -54.501 -37.5s-52 -29.5 -85 -43.5s-70.333 -26.167 -112 -36.5s-86.834 -15.5 -135.501 -15.5c-52.667 0 -98.334 7.83301 -137.001 23.5s-70.5 37 -95.5 64s-43.5 58.5 -55.5 94.5s-18 74 -18 114c0 40.667 10 79.667 30 117
s48 70.166 84 98.499s79.167 50.833 129.5 67.5s105.833 25 166.5 25h268zM469.006 89.999c45.333 0 87.3311 5.50195 125.998 16.502s72.667 23.833 102 38.5s53.833 29.167 73.5 43.5s33.167 24.833 40.5 31.5v264h-245c-58 0 -106.167 -7.16699 -144.5 -21.5
s-68.666 -32.5 -90.999 -54.5s-38.166 -46.333 -47.499 -73s-14 -52.334 -14 -77.001c0 -26.667 5.16699 -50.334 15.5 -71.001s24.5 -38.167 42.5 -52.5s39.167 -25.333 63.5 -33s50.5 -11.5 78.5 -11.5z" />
    <glyph glyph-name="b" unicode="b" horiz-adv-x="1230" 
d="M212 1402l136 0.000976562v-476c36.667 28 80.167 50.667 130.5 68s108.833 26 175.5 26c65.333 0 124.5 -12.333 177.5 -37s98.167 -59.5 135.5 -104.5s66.166 -99.333 86.499 -163s30.5 -134.834 30.5 -213.501s-10.167 -150 -30.5 -214
s-49.166 -118.833 -86.499 -164.5s-82.5 -81 -135.5 -106s-112.167 -37.5 -177.5 -37.5c-38 0 -72.333 2.5 -103 7.5s-59 12.5 -85 22.5s-50.167 22.167 -72.5 36.5s-44.5 30.833 -66.5 49.5l-25 -96h-90v1402zM949 502.001c0 132.667 -28.498 233.833 -85.498 303.5
s-142.833 104.5 -257.5 104.5c-48.667 0 -95.334 -7.5 -140.001 -22.5s-84 -34.167 -118 -57.5v-655c35.333 -22.667 75.166 -42.5 119.499 -59.5s90.5 -25.5 138.5 -25.5c114.667 0 200.5 35.333 257.5 106s85.5 172.667 85.5 306z" />
    <glyph glyph-name="c" unicode="c" horiz-adv-x="1004" 
d="M148 502c0 78.667 10.834 149.831 32.501 213.498s53.334 118 95.001 163s92.834 79.833 153.501 104.5s129.667 37 207 37c64 0 118.5 -4.66699 163.5 -14s83.5 -22.666 115.5 -39.999l-50 -98l-39 14.5c-13.333 5 -28.5 9.5 -45.5 13.5s-36.333 7.33301 -58 10
s-46.834 4 -75.501 4c-54 0 -103.333 -7.83301 -148 -23.5s-83 -40 -115 -73s-56.667 -75.333 -74 -127s-26 -113.167 -26 -184.5s8.5 -133 25.5 -185s41.167 -94.833 72.5 -128.5s69.166 -58.5 113.499 -74.5s93.5 -24 147.5 -24c59.333 0 110.333 5.5 153 16.5
s79.334 23.5 110.001 37.5l54 -98c-32.667 -21.333 -73.834 -37.666 -123.501 -48.999s-108.167 -17 -175.5 -17c-81.333 0 -153.833 12.5 -217.5 37.5s-117.334 60.333 -161.001 106s-77 100.5 -100 164.5s-34.5 135.333 -34.5 214z" />
    <glyph glyph-name="d" unicode="d" horiz-adv-x="1217" 
d="M890 0v72.999c-20 -15.333 -40.167 -28.666 -60.5 -39.999s-42.333 -21 -66 -29s-50 -14 -79 -18s-61.833 -6 -98.5 -6c-66 0 -124.833 12.5 -176.5 37.5s-95.334 60.333 -131.001 106s-62.667 100.5 -81 164.5s-27.5 135.333 -27.5 214s9.16699 149.834 27.5 213.501
s45.333 118 81 163s79.334 79.833 131.001 104.5s110.5 37 176.5 37c35.333 0 67.333 -2 96 -6s55 -9.83301 79 -17.5s46.5 -17.334 67.5 -29.001s41.5 -25.167 61.5 -40.5v473h136v-1400h-136zM306 501.999c0 -66.667 6.16699 -125.499 18.5 -176.499s31.5 -94 57.5 -129
s59.667 -61.5 101 -79.5s91 -27 149 -27c49.333 0 96 7.33301 140 22s83.333 33.667 118 57v662c-34.667 22.667 -74 41.5 -118 56.5s-90.667 22.5 -140 22.5c-58 0 -107.667 -8.83301 -149 -26.5s-75 -43.667 -101 -78s-45.167 -76.833 -57.5 -127.5
s-18.5 -109.334 -18.5 -176.001z" />
    <glyph glyph-name="e" unicode="e" horiz-adv-x="1145" 
d="M282 516l-0.00195312 -23.9971c0 -63.333 7.16699 -120 21.5 -170s36 -92.167 65 -126.5s65.333 -60.5 109 -78.5s94.5 -27 152.5 -27c38.667 0 73.167 2.16699 103.5 6.5s57.666 9.66602 81.999 15.999s45.833 13.166 64.5 20.499s35.334 14.333 50.001 21l41 -102
c-40.667 -22 -90 -39.5 -148 -52.5s-120.333 -19.5 -187 -19.5c-81.333 0 -152.5 11.5 -213.5 34.5s-112 56.333 -153 100s-71.833 97.167 -92.5 160.5s-31 135.666 -31 216.999c0 83.333 10 157.833 30 223.5s49.333 121 88 166s85.834 79.333 141.501 103
s119.5 35.5 191.5 35.5c58.667 0 112.334 -8.66699 161.001 -26s90.5 -42.833 125.5 -76.5s62.167 -75 81.5 -124s29 -104.833 29 -167.5v-110h-712zM603.998 910.003c-42 0 -80.667 -4.66797 -116 -14.001s-66.333 -25 -93 -47s-48.834 -51.167 -66.501 -87.5
s-30.5 -81.5 -38.5 -135.5h568c0 50.667 -7 93.834 -21 129.501s-32.833 65 -56.5 88s-50.667 39.833 -81 50.5s-62.166 16 -95.499 16z" />
    <glyph glyph-name="f" unicode="f" horiz-adv-x="772" 
d="M92 1000l168.002 -0.000976562v74c0 61.333 7.16699 113.833 21.5 157.5s35.166 79.5 62.499 107.5s60.666 48.5 99.999 61.5s84 19.5 134 19.5c34.667 0 70 -3 106 -9s66.667 -13 92 -21l-3 -102c-10 2.66699 -22.167 5.33398 -36.5 8.00098s-29.5 5 -45.5 7
s-32.333 3.66699 -49 5s-33 2 -49 2c-35.333 0 -65.5 -4.16699 -90.5 -12.5s-45.333 -21.833 -61 -40.5s-27.167 -43 -34.5 -73s-11 -66.667 -11 -110v-74h284v-110h-284v-890h-136v890h-196z" />
    <glyph glyph-name="g" unicode="g" horiz-adv-x="1226" 
d="M176 660c0 59.333 10.001 111.499 30.001 156.499s48.5 82.5 85.5 112.5s81.667 52.667 134 68s111.166 23 176.499 23c58.667 0 114 -6.66699 166 -20h376l-21 -110h-164c26 -29.333 46 -63 60 -101s21 -81 21 -129c0 -56 -10.833 -106.333 -32.5 -151
s-51.834 -82.5 -90.501 -113.5s-84.834 -54.667 -138.501 -71s-112.5 -24.5 -176.5 -24.5c-35.333 0 -68.333 2.33301 -99 7s-60 11.667 -88 21c-16.667 -16 -29.667 -33.833 -39 -53.5s-14 -42.834 -14 -69.501c0 -6 1 -13.5 3 -22.5s4.83301 -18 8.5 -27s8 -17.667 13 -26
s10.167 -14.833 15.5 -19.5h330c56.667 0 107.834 -6.33301 153.501 -19s84.5 -31 116.5 -55s56.667 -53 74 -87s26 -72.333 26 -115c0 -45.333 -12 -86.833 -36 -124.5s-58.167 -70.334 -102.5 -98.001s-97.833 -49.167 -160.5 -64.5s-132.667 -23 -210 -23
c-38 0 -76 1.66699 -114 5s-74.833 9 -110.5 17s-69 18.833 -100 32.5s-57.833 30.667 -80.5 51s-40.667 44.5 -54 72.5s-20 60.667 -20 98c0 52.667 12.5 98.834 37.5 138.501s67.5 74.167 127.5 103.5c-12.667 17.333 -24.667 38 -36 62s-17 52.333 -17 85
c0 42 8.83301 77 26.5 105s41.834 53.667 72.501 77c-48 30.667 -84.833 70.334 -110.5 119.001s-38.5 105.334 -38.5 170.001zM312.001 659.999c0 -37.333 6.00098 -71.333 18.001 -102s30 -57 54 -79s54.167 -39 90.5 -51s78.833 -18 127.5 -18c46.667 0 88.667 6 126 18
s69 29 95 51s46 48.333 60 79s21 64.667 21 102c0 42 -8.16699 78.667 -24.5 110s-38.166 57.333 -65.499 78s-59.333 36.167 -96 46.5s-75.334 15.5 -116.001 15.5c-42 0 -80.667 -5.16699 -116 -15.5s-65.833 -25.833 -91.5 -46.5s-45.834 -46.667 -60.501 -78
s-22 -68 -22 -110zM390.002 -0.000976562c-22.667 -14.667 -42.6689 -28.8359 -60.002 -42.5029s-32 -28.167 -44 -43.5s-21 -32.166 -27 -50.499s-9 -38.833 -9 -61.5c0 -21.333 6 -40.5 18 -57.5s27.667 -31.667 47 -44s41.333 -22.833 66 -31.5
s49.834 -15.5 75.501 -20.5s50.834 -8.66699 75.501 -11s46.334 -3.5 65.001 -3.5c52.667 0 101.667 4.83301 147 14.5s84.5 22.834 117.5 39.501s58.833 36.5 77.5 59.5s28 48.167 28 75.5c0 24.667 -4.33301 47.834 -13 69.501s-23.334 40.5 -44.001 56.5
s-48.5 28.5 -83.5 37.5s-78.833 13.5 -131.5 13.5h-305z" />
    <glyph glyph-name="h" unicode="h" horiz-adv-x="1221" 
d="M212 1400l136.002 -0.000976562v-511c101.333 87.333 220 131 356 131c59.333 0 109.833 -7.16699 151.5 -21.5s75.5 -36.166 101.5 -65.499s44.833 -66.5 56.5 -111.5s17.5 -98.167 17.5 -159.5v-662h-136v662c0 46.667 -4.66699 85.834 -14 117.501
s-23.333 57.167 -42 76.5s-41.5 33.166 -68.5 41.499s-58.5 12.5 -94.5 12.5c-64.667 0 -124.334 -11.333 -179.001 -34s-104.334 -52 -149.001 -88v-788h-136v1400z" />
    <glyph glyph-name="i" unicode="i" horiz-adv-x="583" 
d="M230 1000h137v-1000h-137v1000zM206 1402h176v-158h-176v158z" />
    <glyph glyph-name="j" unicode="j" horiz-adv-x="622" 
d="M-50 -292c10.667 -2.66699 22.999 -4.99805 36.999 -6.99805s28.5 -3.83301 43.5 -5.5s30 -3 45 -4s29.167 -1.5 42.5 -1.5c28.667 0 54.167 4.33301 76.5 13s41 23 56 43s26.333 46.5 34 79.5s11.5 73.833 11.5 122.5v1052h136v-1052
c0 -73.333 -7.16699 -133.833 -21.5 -181.5s-35.333 -85.334 -63 -113.001s-61.667 -46.834 -102 -57.501s-86.166 -16 -137.499 -16c-30 0 -60.167 2 -90.5 6s-57.5 9.66699 -81.5 17zM268.999 1402h177v-158h-177v158z" />
    <glyph glyph-name="k" unicode="k" horiz-adv-x="1113" 
d="M461 468h-113v-468h-136v1400h136v-822h114l370 422h162l-421 -474h-2l509 -526h-172z" />
    <glyph glyph-name="l" unicode="l" horiz-adv-x="583" 
d="M233 1400h136v-1400h-136v1400z" />
    <glyph glyph-name="m" unicode="m" horiz-adv-x="1873" 
d="M212 1000l125.004 0.000976562l7 -92c50.667 38.667 106.5 67 167.5 85s125.833 27 194.5 27c67.333 0 125.666 -8.33301 174.999 -25s87 -47 113 -91c45.333 36 99.5 64.333 162.5 85s128.833 31 197.5 31c49.333 0 94.166 -5.66699 134.499 -17s74.666 -31 102.999 -59
s50.333 -66 66 -114s23.5 -108.667 23.5 -182v-648h-136v648c0 48.667 -4.66699 89.834 -14 123.501s-23 60.667 -41 81s-40.5 35 -67.5 44s-57.833 13.5 -92.5 13.5c-60.667 0 -115.667 -9.66699 -165 -29s-95 -45 -137 -77c1.33301 -10.667 2.5 -21.834 3.5 -33.501
s1.5 -23.834 1.5 -36.501v-734h-136v746c0 60 -18.333 102.333 -55 127s-91.334 37 -164.001 37c-62.667 0 -122.167 -11.667 -178.5 -35s-106.833 -53.333 -151.5 -90v-785h-136v1000z" />
    <glyph glyph-name="n" unicode="n" horiz-adv-x="1221" 
d="M212 1000l125.002 -0.000976562l9 -113c50 44 105 77.167 165 99.5s124.333 33.5 193 33.5c59.333 0 109.833 -7.16699 151.5 -21.5s75.5 -36.166 101.5 -65.499s44.833 -66.5 56.5 -111.5s17.5 -98.167 17.5 -159.5v-662h-136v662c0 46.667 -4.66699 85.834 -14 117.501
s-23.333 57.167 -42 76.5s-41.5 33.166 -68.5 41.499s-58.5 12.5 -94.5 12.5c-64.667 0 -124.334 -11.333 -179.001 -34s-104.334 -52 -149.001 -88v-788h-136v1000z" />
    <glyph glyph-name="o" unicode="o" horiz-adv-x="1213" 
d="M147 500c0 80.667 10.5 153 31.5 217s51.167 118.5 90.5 163.5s87.666 79.5 144.999 103.5s122 36 194 36s137.667 -12 197 -36s110.166 -58.5 152.499 -103.5s75.333 -99.5 99 -163.5s35.5 -136.333 35.5 -217c0 -81.333 -11.833 -154 -35.5 -218
s-56.667 -118.5 -99 -163.5s-93.166 -79.333 -152.499 -103s-125 -35.5 -197 -35.5s-136.667 11.833 -194 35.5s-105.666 58 -144.999 103s-69.5 99.5 -90.5 163.5s-31.5 136.667 -31.5 218zM283 500c0 -70.667 7.66699 -131.667 23 -183s37.333 -93.833 66 -127.5
s62.834 -58.667 102.501 -75s84.167 -24.5 133.5 -24.5c50 0 96.167 8.16699 138.5 24.5s79 41.333 110 75s55.333 76.167 73 127.5s26.5 112.333 26.5 183s-8.83301 131.834 -26.5 183.501s-42 94.334 -73 128.001s-67.667 58.5 -110 74.5s-88.5 24 -138.5 24
c-49.333 0 -93.833 -8 -133.5 -24s-73.834 -40.833 -102.501 -74.5s-50.667 -76.334 -66 -128.001s-23 -112.834 -23 -183.501z" />
    <glyph glyph-name="p" unicode="p" horiz-adv-x="1230" 
d="M212 1000h117.999l10 -79c20 16 40.333 30 61 42s43.334 22.333 68.001 31s52 15.167 82 19.5s64.333 6.5 103 6.5c65.333 0 124.666 -12.167 177.999 -36.5s98.833 -59 136.5 -104s66.834 -99.167 87.501 -162.5s31 -134.333 31 -213s-10.333 -150.167 -31 -214.5
s-49.834 -119.5 -87.501 -165.5s-83.167 -81.5 -136.5 -106.5s-112.666 -37.5 -177.999 -37.5c-66.667 0 -124 7.5 -172 22.5s-92.667 38.167 -134 69.5v-472h-136v1400zM950.999 504c0 132 -28.833 232.668 -86.5 302.001s-143.834 104 -258.501 104
c-48.667 0 -95.334 -7.5 -140.001 -22.5s-84 -34.167 -118 -57.5v-660c34 -23.333 73.333 -42.5 118 -57.5s91.334 -22.5 140.001 -22.5c114.667 0 200.834 35.667 258.501 107s86.5 173.666 86.5 306.999z" />
    <glyph glyph-name="q" unicode="q" horiz-adv-x="1217" 
d="M890 70c-20 -15.333 -40.167 -28.668 -60.5 -40.001s-42.5 -20.666 -66.5 -27.999s-50.333 -12.833 -79 -16.5s-61.334 -5.5 -98.001 -5.5c-66 0 -124.833 12.5 -176.5 37.5s-95.334 60.5 -131.001 106.5s-62.667 101.167 -81 165.5s-27.5 135.833 -27.5 214.5
s9.16699 149.667 27.5 213s45.333 117.5 81 162.5s79.334 79.667 131.001 104s110.5 36.5 176.5 36.5c36.667 0 69.834 -2.16699 99.501 -6.5s57 -10.833 82 -19.5s48.333 -19.5 70 -32.5s43.167 -27.833 64.5 -44.5l19 83h105v-1400h-136v470zM306 503.998
c0 -66.667 6.16602 -125.668 18.499 -177.001s31.5 -94.5 57.5 -129.5s59.667 -61.667 101 -80s91 -27.5 149 -27.5c48.667 0 95.334 7.33301 140.001 22s84 33.334 118 56.001v663c-34.667 22.667 -74 41.5 -118 56.5s-90.667 22.5 -140 22.5
c-58 0 -107.667 -8.83301 -149 -26.5s-75 -43.5 -101 -77.5s-45.167 -76.333 -57.5 -127s-18.5 -109 -18.5 -175z" />
    <glyph glyph-name="r" unicode="r" horiz-adv-x="772" 
d="M212 1000h125.001l7 -128c42 54 87.167 92.167 135.5 114.5s97.833 33.5 148.5 33.5c15.333 0 30.166 -0.333008 44.499 -1s29.166 -1.66699 44.499 -3l-18 -134c-18 3.33301 -36.167 5.5 -54.5 6.5s-39.166 1.5 -62.499 1.5c-42.667 0 -84.167 -12.5 -124.5 -37.5
s-76.833 -57.5 -109.5 -97.5v-755h-136v1000z" />
    <glyph glyph-name="s" unicode="s" horiz-adv-x="997" 
d="M876 266c0 -39.333 -8.66895 -76.333 -26.002 -111s-42 -65 -74 -91s-71 -46.5 -117 -61.5s-97.667 -22.5 -155 -22.5c-37.333 0 -74 1.83301 -110 5.5s-70.333 8.83398 -103 15.501s-63.167 14.5 -91.5 23.5s-52.833 18.833 -73.5 29.5l36 112l78.5 -29.5
c24.333 -9 49.833 -17 76.5 -24s55.834 -12.5 87.501 -16.5s68.167 -6 109.5 -6c35.333 0 67 4.16699 95 12.5s51.667 20 71 35s34.166 32.333 44.499 52s15.5 41.167 15.5 64.5c0 26.667 -5 50 -15 70s-25.667 37.833 -47 53.5s-48.333 29.667 -81 42
s-71.667 24.5 -117 36.5c-48 12.667 -92.333 28.667 -133 48s-76 41.166 -106 65.499s-53.333 51 -70 80s-25 59.167 -25 90.5c0 44.667 8.16699 84.334 24.5 119.001s40.166 64 71.499 88s69.666 42.167 114.999 54.5s97 18.5 155 18.5c76 0 141.833 -6.83301 197.5 -20.5
s99.167 -27.5 130.5 -41.5l-31 -108l-62.5 22c-20.333 7.33301 -42.166 13.833 -65.499 19.5s-49.166 10.167 -77.499 13.5s-60.833 5 -97.5 5c-77.333 0 -134 -13.833 -170 -41.5s-54 -65.167 -54 -112.5c0 -18 3.33301 -36.167 10 -54.5s18.334 -36 35.001 -53
s39.334 -32.833 68.001 -47.5s65 -27.667 109 -39c65.333 -16.667 121.5 -35.667 168.5 -57s85.5 -44.5 115.5 -69.5s52.167 -51.833 66.5 -80.5s21.5 -58.334 21.5 -89.001z" />
    <glyph glyph-name="t" unicode="t" horiz-adv-x="828" 
d="M96 1000l164.001 0.000976562v260l136 20v-280h314v-110h-314v-604c0 -37.333 3 -68.5 9 -93.5s15.5 -45 28.5 -60s29.5 -25.833 49.5 -32.5s43.667 -10 71 -10c16.667 0 33.834 0.666992 51.501 2s34.834 3 51.501 5s32.334 4.16699 47.001 6.5s27.667 4.5 39 6.5
l10 -104c-24.667 -7.33301 -55.334 -13.5 -92.001 -18.5s-72.334 -7.5 -107.001 -7.5c-48 0 -90.333 4.16699 -127 12.5s-67.334 23.666 -92.001 45.999s-43.334 53.333 -56.001 93s-19 91.167 -19 154.5v604h-192z" />
    <glyph glyph-name="u" unicode="u" horiz-adv-x="1221" 
d="M1031 0h-136.001v117c-52 -44 -109.5 -77.833 -172.5 -101.5s-128.5 -35.5 -196.5 -35.5c-50.667 0 -95.5 5.5 -134.5 16.5s-71.833 30 -98.5 57s-46.834 63.5 -60.501 109.5s-20.5 104.333 -20.5 175v662h136v-662c0 -46 3.83301 -84.833 11.5 -116.5
s19.834 -57.167 36.501 -76.5s37.834 -33.333 63.501 -42s56.5 -13 92.5 -13c62 0 122 11.333 180 34s112.333 52 163 88v788h136v-1000z" />
    <glyph glyph-name="v" unicode="v" horiz-adv-x="1034" 
d="M64 1000h152l219 -594l86 -250l102 252l220 592h135l-402 -1000h-114z" />
    <glyph glyph-name="w" unicode="w" horiz-adv-x="1563" 
d="M1334 1000h156l-294 -1000h-112l-294 756l-4 42l-4 -42l-298 -756h-111l-291 1000h156l198 -809l309 809h81l305 -806z" />
    <glyph glyph-name="x" unicode="x" horiz-adv-x="1074" 
d="M256 0h-152l372 502l-374 498h158l280 -389l277 389h156l-370 -498v-1l1 -4l367 -497h-150l-281 396z" />
    <glyph glyph-name="y" unicode="y" horiz-adv-x="1063" 
d="M595 -50c-23.333 -70.667 -46.1699 -129.169 -68.5029 -175.502s-46.666 -83.166 -72.999 -110.499s-56.333 -46.5 -90 -57.5s-73.5 -16.5 -119.5 -16.5c-18 0 -36.5 1.33301 -55.5 4s-35.167 6.66699 -48.5 12l16 106c2.66699 0 7.83398 -0.666992 15.501 -2
s16 -2.66602 25 -3.99902l26.5 -4c8.66699 -1.33301 15 -2 19 -2c26.667 0 49.334 3.33301 68.001 10s36 19 52 37s32 43.333 48 76s34.333 75 55 127l-379 1050h140l302 -880l315 880h139l-389 -1050h2z" />
    <glyph glyph-name="z" unicode="z" horiz-adv-x="1188" 
d="M223 1000h807v-102l-666 -788h705l-27 -110h-824l-2 116l640 774h-633v110z" />
    <glyph glyph-name="braceleft" unicode="{" horiz-adv-x="752" 
d="M104 644c28.667 0 56 3.5 82 10.5s48.833 19.833 68.5 38.5s35.167 44 46.5 76s17 73 17 123v220c0 72.667 4.5 136 13.5 190s24.5 99 46.5 135s51.333 62.833 88 80.5s82.667 26.5 138 26.5l13 -76c-58.667 0 -100.5 -28.833 -125.5 -86.5s-37.5 -147.5 -37.5 -269.5
v-220c0 -46.667 -4.33301 -87 -13 -121s-21.5 -63 -38.5 -87s-38.333 -43.333 -64 -58s-55.5 -25.667 -89.5 -33c34 -7.33301 63.833 -18.333 89.5 -33s47 -34 64 -58s29.833 -53 38.5 -87s13 -74.333 13 -121v-272c0 -121.333 12.5 -211 37.5 -269s66.833 -87 125.5 -87
l-13 -76c-55.333 0 -101.333 8.83301 -138 26.5s-66 44.5 -88 80.5s-37.5 81 -46.5 135s-13.5 117.333 -13.5 190v272c0 50 -5.66699 91 -17 123s-26.833 57.333 -46.5 76s-42.5 31.5 -68.5 38.5s-53.333 10.5 -82 10.5v102z" />
    <glyph glyph-name="bar" unicode="|" horiz-adv-x="427" 
d="M152 1524h136v-1824h-136v1824z" />
    <glyph glyph-name="braceright" unicode="}" horiz-adv-x="752" 
d="M649 490c-29.333 0 -56 -3.5 -80 -10.5s-44.5 -19.833 -61.5 -38.5s-30.167 -44 -39.5 -76s-14 -73 -14 -123v-220c0 -72.667 -5.66699 -136 -17 -190s-29.166 -99 -53.499 -135s-55.833 -62.833 -94.5 -80.5s-85 -26.5 -139 -26.5l-14 76c58.667 0 103.667 29 135 87
s47 147.667 47 269v220c0 46.667 3.66699 87 11 121s18.666 63 33.999 87s34.666 43.333 57.999 58s51.333 25.667 84 33c-32.667 7.33301 -60.667 18.333 -84 33s-42.666 34 -57.999 58s-26.666 53 -33.999 87s-11 74.333 -11 121v272c0 122 -15.667 211.833 -47 269.5
s-76.333 86.5 -135 86.5l14 76c54 0 100.333 -8.83301 139 -26.5s70.167 -44.5 94.5 -80.5s42.166 -81 53.499 -135s17 -117.333 17 -190v-272c0 -50 4.66699 -91 14 -123s22.5 -57.333 39.5 -76s37.5 -31.5 61.5 -38.5s50.667 -10.5 80 -10.5v-102z" />
    <glyph glyph-name="asciitilde" unicode="~" horiz-adv-x="1444" 
d="M660 488c-39.333 28 -77.167 49.666 -113.5 64.999s-73.5 23 -111.5 23c-17.333 0 -35.5 -2.5 -54.5 -7.5s-37.5 -14.5 -55.5 -28.5s-34.833 -33.667 -50.5 -59s-28.5 -58.333 -38.5 -99l-118 28c9.33301 52.667 26.166 96.834 50.499 132.501s52 64 83 85
s63.667 36 98 45s66.5 13.5 96.5 13.5c36 0 68 -3.16699 96 -9.5s54.5 -15 79.5 -26s49.167 -24.167 72.5 -39.5l75 -51c39.333 -27.333 78.333 -48.5 117 -63.5s74 -22.5 106 -22.5c16.667 0 34.667 2.33301 54 7s38.166 14 56.499 28s35.5 33.5 51.5 58.5
s28.667 57.833 38 98.5l114 -28c-10 -52.667 -26.833 -96.5 -50.5 -131.5s-50.667 -63 -81 -84s-62.166 -36 -95.499 -45s-64.333 -13.5 -93 -13.5c-36 0 -68.5 3 -97.5 9s-56.167 14.5 -81.5 25.5s-49.666 24 -72.999 39s-48 31.833 -74 50.5z" />
    <glyph glyph-name="exclamdown" unicode="&#xa1;" horiz-adv-x="610" 
d="M390.014 -359.917h-135.991v975.94h135.991v-975.94zM402.013 874.008h-161.989v125.992h161.989v-125.992z" />
    <glyph glyph-name="cent" unicode="&#xa2;" 
d="M136 502c0 72 9.16797 138.004 27.501 198.004s45.166 112.167 80.499 156.5s78.833 80.166 130.5 107.499s110.834 44.666 177.501 51.999v176h136v-174c46.667 -3.33301 87.5 -9.33301 122.5 -18s65.833 -20 92.5 -34l-50 -98l-39 14.5c-13.333 5 -28.5 9.5 -45.5 13.5
s-36.333 7.33301 -58 10s-46.834 4 -75.501 4c-54 0 -103.333 -7.83301 -148 -23.5s-83 -40 -115 -73s-56.667 -75.333 -74 -127s-26 -113.167 -26 -184.5s8.5 -133 25.5 -185s41.167 -94.833 72.5 -128.5s69.166 -58.5 113.499 -74.5s93.5 -24 147.5 -24
c59.333 0 110.333 5.5 153 16.5s79.334 23.5 110.001 37.5l54 -98c-30 -19.333 -66.5 -34.5 -109.5 -45.5s-93.167 -17.5 -150.5 -19.5v-215h-136v221c-66.667 9.33301 -125.834 28.166 -177.501 56.499s-95.167 64.666 -130.5 108.999s-62.166 96 -80.499 155
s-27.5 123.833 -27.5 194.5z" />
    <glyph glyph-name="sterling" unicode="&#xa3;" 
d="M76 730l183.999 0.00195312v264c0 70 8.5 129.5 25.5 178.5s42.5 88.833 76.5 119.5s76.333 53 127 67s110 21 178 21c20.667 0 42.167 -0.833008 64.5 -2.5s44.333 -3.83398 66 -6.50098s42.334 -5.83398 62.001 -9.50098s37.5 -7.5 53.5 -11.5l-5 -102
c-13.333 2.66699 -29 5.33398 -47 8.00098s-37.167 5 -57.5 7s-41 3.66699 -62 5s-41.5 2 -61.5 2c-50 0 -93 -4.83301 -129 -14.5s-65.5 -25.334 -88.5 -47.001s-39.833 -50.167 -50.5 -85.5s-16 -78.333 -16 -129v-264h407v-110h-407v-242
c0 -63.333 -10.167 -116 -30.5 -158s-49.833 -78.667 -88.5 -110h668v-110h-895v110h5l-3 2c36 0 67 8.66699 93 26s47.5 39.5 64.5 66.5s29.667 57.167 38 90.5s12.5 66.333 12.5 99v226h-212z" />
    <glyph glyph-name="currency" unicode="&#xa4;" horiz-adv-x="1502" 
d="M356 979c46 32.667 97.502 58 154.502 76s118.167 27 183.5 27c64.667 0 125.5 -9 182.5 -27s108.5 -43 154.5 -75l179 156l90 -80l-178 -157c42 -47.333 74.5 -101 97.5 -161s34.5 -125.333 34.5 -196c0 -72 -12 -138.5 -36 -199.5s-57.333 -115.167 -100 -162.5
l182 -160l-90 -80l-184 160c-46 -31.333 -96.833 -55.5 -152.5 -72.5s-115.5 -25.5 -179.5 -25.5c-64.667 0 -124.834 8.5 -180.501 25.5s-106.5 41.5 -152.5 73.5l-185 -161l-88 80l183 160c-42.667 47.333 -75.834 101.5 -99.501 162.5s-35.5 127.5 -35.5 199.5
c0 70.667 11.333 136 34 196s55 113.667 97 161l-179 157l88 80zM694.002 112c58 0 113.667 9.66699 167 29s100.5 47.333 141.5 84s73.667 81.667 98 135s36.5 114 36.5 182s-12.167 128.667 -36.5 182s-57 98.333 -98 135s-88.167 64.667 -141.5 84s-109 29 -167 29
s-113.667 -9.66699 -167 -29s-100.333 -47.333 -141 -84s-73.167 -81.667 -97.5 -135s-36.5 -114 -36.5 -182s12.167 -128.667 36.5 -182s56.833 -98.333 97.5 -135s87.667 -64.667 141 -84s109 -29 167 -29z" />
    <glyph glyph-name="yen" unicode="&#xa5;" 
d="M639 636l353 724h152l-379 -760h302v-110h-357v-158h357v-110h-357v-222h-136v222h-353v110h353v152l-3 6h-350v110h295l-381 760h152z" />
    <glyph glyph-name="brokenbar" unicode="&#xa6;" horiz-adv-x="389" 
d="M118 528h122v-828h-122v828zM240 756h-122v768h122v-768z" />
    <glyph glyph-name="section" unicode="&#xa7;" horiz-adv-x="1186" 
d="M1036 -110c0 -55.333 -9.99902 -104.661 -29.999 -147.994s-48.167 -79.833 -84.5 -109.5s-80.333 -52.167 -132 -67.5s-109.167 -23 -172.5 -23c-41.333 0 -82.333 1.83301 -123 5.5s-79 8.5 -115 14.5s-69.167 13.167 -99.5 21.5s-55.5 17.166 -75.5 26.499l33 108
c26.667 -9.33301 53.834 -18 81.501 -26s56.667 -15 87 -21s63.166 -10.667 98.499 -14s74.666 -5 117.999 -5c40.667 0 78 4.5 112 13.5s63.333 23 88 42s43.834 43 57.501 72s20.5 63.833 20.5 104.5c0 36.667 -10 69.667 -30 99s-48 55.666 -84 78.999
s-79.167 44.333 -129.5 63s-105.5 35.667 -165.5 51c-54 14 -104.667 33.167 -152 57.5s-88.5 52.833 -123.5 85.5s-62.5 68.667 -82.5 108s-30 81 -30 125c0 62 13.167 115 39.5 159s63.166 81 110.499 111c-28.667 30 -50.834 62.333 -66.501 97s-23.5 73 -23.5 115
c0 56 10 105.667 30 149s49 80 87 110s84.5 52.667 139.5 68s117.5 23 187.5 23c42 0 82.333 -2.5 121 -7.5s74.5 -11 107.5 -18s62.333 -14.5 88 -22.5s46.5 -15.333 62.5 -22l-38 -108c-22.667 8.66699 -45.667 17 -69 25s-48.666 15.167 -75.999 21.5
s-57.166 11.5 -89.499 15.5s-68.833 6 -109.5 6c-103.333 0 -180 -19.167 -230 -57.5s-75 -95.833 -75 -172.5c0 -30.667 6.5 -59.834 19.5 -87.501s33.833 -53.834 62.5 -78.501s65.667 -47.667 111 -69s100.333 -40.333 165 -57c140 -42 248.333 -96.833 325 -164.5
s115 -149.5 115 -245.5c0 -56.667 -12.333 -106.334 -37 -149.001s-58.334 -79.334 -101.001 -110.001c25.333 -27.333 44.5 -56.833 57.5 -88.5s19.5 -66.5 19.5 -104.5zM587.001 652.005c-44.667 11.333 -86.8311 24.8291 -126.498 40.4961s-76.5 33.5 -110.5 53.5
c-36 -19.333 -63.5 -43.666 -82.5 -72.999s-28.5 -66.333 -28.5 -111c0 -27.333 6.16699 -54.666 18.5 -81.999s31.5 -53.666 57.5 -78.999s59.167 -48.833 99.5 -70.5s88.5 -39.834 144.5 -54.501c63.333 -17.333 120.166 -35.666 170.499 -54.999
s94.833 -40.666 133.5 -63.999c30 20 53.833 44.833 71.5 74.5s26.5 64.5 26.5 104.5c0 36.667 -9.66699 71 -29 103s-45.833 61.167 -79.5 87.5s-73.334 50 -119.001 71s-94.5 39.167 -146.5 54.5z" />
    <glyph glyph-name="dieresis" unicode="&#xa8;" horiz-adv-x="947" 
d="M140 1396h197v-170h-197v170zM623 1396h198v-170h-198v170z" />
    <glyph glyph-name="copyright" unicode="&#xa9;" horiz-adv-x="1804" 
d="M527 670c0 60.667 8.33203 115.499 24.999 164.499s41 90.833 73 125.5s71.167 61.334 117.5 80.001s99.166 28 158.499 28c60.667 0 111.334 -5.83301 152.001 -17.5s75.667 -26.5 105 -44.5l-35 -98c-12 6.66699 -24.167 13 -36.5 19s-26.666 11.333 -42.999 16
s-35.333 8.33398 -57 11.001s-47.834 4 -78.501 4c-37.333 0 -71 -5.5 -101 -16.5s-55.667 -28.167 -77 -51.5s-37.833 -53.166 -49.5 -89.499s-17.5 -79.833 -17.5 -130.5s5.83301 -94.334 17.5 -131.001s28.167 -67 49.5 -91s47 -41.667 77 -53s63.667 -17 101 -17
c30.667 0 58.5 1.5 83.5 4.5s47.667 7 68 12s39 10.667 56 17s33.167 13.166 48.5 20.499l36 -90c-30 -20 -67.167 -37.333 -111.5 -52s-97.166 -22 -158.499 -22c-64 0 -121 9.66699 -171 29s-92.167 46.5 -126.5 81.5s-60.5 77.167 -78.5 126.5s-27 104.333 -27 165z
M902.999 1380c102.667 0 197.834 -16.333 285.501 -49s163.667 -79.334 228 -140.001s114.666 -134.167 150.999 -220.5s54.5 -183.166 54.5 -290.499s-18.167 -204.166 -54.5 -290.499s-86.666 -159.833 -150.999 -220.5s-140.333 -107.334 -228 -140.001
s-182.834 -49 -285.501 -49s-198 16.333 -286 49s-164.167 79.334 -228.5 140.001s-114.833 134.167 -151.5 220.5s-55 183.166 -55 290.499s18.333 204.166 55 290.499s87.167 159.833 151.5 220.5s140.5 107.334 228.5 140.001s183.333 49 286 49zM902.999 75.999
c82.667 0 160.5 12.167 233.5 36.5s136.667 61.5 191 111.5s97.166 112.833 128.499 188.5s47 164.834 47 267.501s-15.667 191.834 -47 267.501s-74.166 138.5 -128.499 188.5s-118 87.167 -191 111.5s-150.833 36.5 -233.5 36.5c-83.333 0 -161.5 -12.167 -234.5 -36.5
s-136.5 -61.5 -190.5 -111.5s-96.667 -112.833 -128 -188.5s-47 -164.834 -47 -267.501s15.667 -191.834 47 -267.501s74 -138.5 128 -188.5s117.5 -87.167 190.5 -111.5s151.167 -36.5 234.5 -36.5z" />
    <glyph glyph-name="ordfeminine" unicode="&#xaa;" horiz-adv-x="870" 
d="M581 1080l-0.00488281 20c0 32.667 -3.33301 60 -10 82s-16.667 39.5 -30 52.5s-29.666 22.167 -48.999 27.5s-41.333 8 -66 8c-21.333 0 -43.333 -1.16699 -66 -3.5s-45.167 -5.5 -67.5 -9.5s-43.833 -8.83301 -64.5 -14.5s-39.667 -11.834 -57 -18.501l-33 94
c18.667 9.33301 39.834 17.833 63.501 25.5s48.334 14.167 74.001 19.5s52.167 9.5 79.5 12.5s54 4.5 80 4.5c42 0 80.167 -4.33301 114.5 -13s64 -23.5 89 -44.5s44.333 -49.667 58 -86s20.5 -81.833 20.5 -136.5v-432h-107l-17 79
c-13.333 -10.667 -28.666 -21.5 -45.999 -32.5s-36.333 -21 -57 -30s-42.5 -16.333 -65.5 -22s-47.167 -8.5 -72.5 -8.5c-46.667 0 -86.667 5.66699 -120 17s-60.666 26.833 -81.999 46.5s-37 42.334 -47 68.001s-15 53.167 -15 82.5c0 28.667 7.83301 56 23.5 82
s38 48.5 67 67.5s64 34.167 105 45.5s86.833 17 137.5 17h160zM372.995 764c18.667 0 37.666 2.33301 56.999 7s38 10.667 56 18s35 15.5 51 24.5s30.667 17.833 44 26.5v142h-144c-45.333 0 -81.833 -4.66699 -109.5 -14s-49.167 -20.666 -64.5 -33.999
s-25.666 -27.166 -30.999 -41.499s-8 -26.5 -8 -36.5c0 -15.333 3.83301 -28.833 11.5 -40.5s18.167 -21.334 31.5 -29.001s29 -13.334 47 -17.001s37.667 -5.5 59 -5.5z" />
    <glyph glyph-name="guillemotleft" unicode="&#xab;" horiz-adv-x="1102" 
d="M532 112l-76 -70l-348 392v84l348 400l76 -70l-301 -372zM986 112l-76 -70l-348 392v84l348 400l76 -70l-301 -372z" />
    <glyph glyph-name="logicalnot" unicode="&#xac;" horiz-adv-x="1242" 
d="M112 610v110h1012v-350h-136v240h-876z" />
    <glyph glyph-name="uni00AD" unicode="&#xad;" horiz-adv-x="1242" 
d="M112 610v110h1014v-110h-1014z" />
    <glyph glyph-name="registered" unicode="&#xae;" horiz-adv-x="1804" 
d="M903 1380c100 0 192.5 -16.333 277.5 -49s158.833 -79.334 221.5 -140.001s111.667 -134.167 147 -220.5s53 -183.166 53 -290.499s-17.667 -204.166 -53 -290.499s-84.333 -159.833 -147 -220.5s-136.5 -107.334 -221.5 -140.001s-177.5 -49 -277.5 -49
s-192.833 16.333 -278.5 49s-159.667 79.334 -222 140.001s-111.333 134.167 -147 220.5s-53.5 183.166 -53.5 290.499s17.833 204.166 53.5 290.499s84.667 159.833 147 220.5s136.333 107.334 222 140.001s178.5 49 278.5 49zM903 76c80 0 155.333 12.167 226 36.5
s132.167 61.5 184.5 111.5s93.833 112.833 124.5 188.5s46 164.834 46 267.501s-15.333 191.834 -46 267.501s-72.167 138.5 -124.5 188.5s-113.833 87.167 -184.5 111.5s-146 36.5 -226 36.5c-80.667 0 -156.334 -12.167 -227.001 -36.5s-132.167 -61.5 -184.5 -111.5
s-93.666 -112.833 -123.999 -188.5s-45.5 -164.834 -45.5 -267.501s15.167 -191.834 45.5 -267.501s71.666 -138.5 123.999 -188.5s113.833 -87.167 184.5 -111.5s146.334 -36.5 227.001 -36.5zM623 1054h298c40 0 77.667 -4.5 113 -13.5s66 -22.833 92 -41.5
s46.5 -42.5 61.5 -71.5s22.5 -63.5 22.5 -103.5c0 -22.667 -4.33301 -43.667 -13 -63s-20.5 -36.833 -35.5 -52.5s-32.667 -29.5 -53 -41.5s-41.833 -22 -64.5 -30l179 -305h-124l-165 284h-189v-284h-122v722zM745 956v-242h220c13.333 2 27.333 5.33301 42 10
s28.167 11.167 40.5 19.5s22.5 19 30.5 32s12 29.167 12 48.5c0 48 -16 82 -48 102s-78.333 30 -139 30h-158z" />
    <glyph glyph-name="macron" unicode="&#xaf;" horiz-adv-x="1024" 
d="M129 1402h772v-108h-772v108z" />
    <glyph glyph-name="degree" unicode="&#xb0;" horiz-adv-x="733" 
d="M367 1376c36 0 69.667 -6 101 -18s58.666 -28.167 81.999 -48.5s41.833 -44.333 55.5 -72s20.5 -56.834 20.5 -87.501c0 -31.333 -6.83301 -60.666 -20.5 -87.999s-32.167 -51.5 -55.5 -72.5s-50.666 -37.5 -81.999 -49.5s-65 -18 -101 -18c-34.667 0 -67.5 6 -98.5 18
s-58 28.5 -81 49.5s-41.333 45.167 -55 72.5s-20.5 56.666 -20.5 87.999c0 30.667 6.83301 59.834 20.5 87.501s32 51.667 55 72s50 36.5 81 48.5s63.833 18 98.5 18zM367 1032c19.333 0 37.333 3.16699 54 9.5s31.167 14.833 43.5 25.5s22 23.167 29 37.5
s10.5 29.5 10.5 45.5c0 16.667 -3.5 32 -10.5 46s-16.667 26.167 -29 36.5s-26.833 18.5 -43.5 24.5s-34.667 9 -54 9c-17.333 0 -34 -3 -50 -9s-30.333 -14.167 -43 -24.5s-22.667 -22.5 -30 -36.5s-11 -29.333 -11 -46c0 -16 3.66699 -31.167 11 -45.5
s17.333 -26.833 30 -37.5s27 -19.167 43 -25.5s32.667 -9.5 50 -9.5z" />
    <glyph glyph-name="plusminus" unicode="&#xb1;" horiz-adv-x="1065" 
d="M445 524h-327v110h327v316h136v-316h334v-110h-334v-318h-136v318zM100 0v110h876v-110h-876z" />
    <glyph glyph-name="twosuperior" unicode="&#xb2;" horiz-adv-x="752" 
d="M641 760l0.000976562 -92h-521v34c0 44.667 4.5 83.667 13.5 117s23.167 63 42.5 89s44.5 49.333 75.5 70s68.5 40.667 112.5 60c29.333 10.667 53.5 21.5 72.5 32.5s34 22.5 45 34.5s18.5 24.333 22.5 37s6 26 6 40c0 33.333 -12.333 59.333 -37 78
s-60.334 28 -107.001 28c-38 0 -72.333 -6.5 -103 -19.5s-61.667 -28.5 -93 -46.5l-39 80c12.667 8 27.167 16.5 43.5 25.5s34.5 17.5 54.5 25.5s41.5 14.5 64.5 19.5s47.167 7.5 72.5 7.5c81.333 0 144.166 -17.5 188.499 -52.5s66.5 -84.833 66.5 -149.5
c0 -27.333 -6.16699 -52 -18.5 -74s-28.666 -42 -48.999 -60s-43.5 -34.333 -69.5 -49s-52.667 -27.667 -80 -39c-24.667 -13.333 -47 -26.5 -67 -39.5s-37.333 -27.167 -52 -42.5s-26.5 -32.333 -35.5 -51s-14.5 -39.667 -16.5 -63h408z" />
    <glyph glyph-name="threesuperior" unicode="&#xb3;" horiz-adv-x="720" 
d="M604 1176c0 -75.333 -40.001 -127 -120.001 -155c94.667 -28.667 142 -83.667 142 -165c0 -31.333 -6.66699 -59.666 -20 -84.999s-33 -47.166 -59 -65.499s-58.5 -32.5 -97.5 -42.5s-84.167 -15 -135.5 -15c-43.333 0 -86.5 4.16699 -129.5 12.5
s-82.5 22.166 -118.5 41.499l30 74c35.333 -12 69.833 -22 103.5 -30s70.5 -12 110.5 -12c62.667 0 112.334 9.66699 149.001 29s55 49.666 55 90.999c0 43.333 -17.333 74.833 -52 94.5s-82.334 29.5 -143.001 29.5h-153v86h153c54 0 96.5 9.16699 127.5 27.5
s46.5 47.166 46.5 86.499c0 20.667 -4.5 38.167 -13.5 52.5s-21.5 26 -37.5 35s-35.333 15.667 -58 20s-48 6.5 -76 6.5c-38.667 0 -74 -4 -106 -12s-65.333 -18.667 -100 -32l-30 74c16.667 10 35.834 18.667 57.501 26s43.834 13.333 66.501 18s44.5 8.16699 65.5 10.5
s39.167 3.5 54.5 3.5c95.333 0 167.166 -18.167 215.499 -54.5s72.5 -86.166 72.5 -149.499z" />
    <glyph glyph-name="acute" unicode="&#xb4;" horiz-adv-x="591" 
d="M369 1426l157 -66l-268 -248l-110 40z" />
    <glyph glyph-name="mu" unicode="&#xb5;" horiz-adv-x="1221" 
d="M348 298c0 -38.667 4.66602 -71.1689 13.999 -97.502s24.166 -47.666 44.499 -63.999s46.166 -28.166 77.499 -35.499s69 -11 113 -11c54.667 0 106.834 11.167 156.501 33.5s96.834 51.5 141.501 87.5v789h136v-1000h-136v122
c-46.667 -43.333 -97.167 -77.833 -151.5 -103.5s-111.833 -38.5 -172.5 -38.5c-47.333 0 -89.666 4.5 -126.999 13.5s-69.333 24.167 -96 45.5v-439h-136v1400h136v-702z" />
    <glyph glyph-name="mu" unicode="&#x3bc;" horiz-adv-x="1221" 
d="M348 298c0 -38.667 4.66602 -71.1689 13.999 -97.502s24.166 -47.666 44.499 -63.999s46.166 -28.166 77.499 -35.499s69 -11 113 -11c54.667 0 106.834 11.167 156.501 33.5s96.834 51.5 141.501 87.5v789h136v-1000h-136v122
c-46.667 -43.333 -97.167 -77.833 -151.5 -103.5s-111.833 -38.5 -172.5 -38.5c-47.333 0 -89.666 4.5 -126.999 13.5s-69.333 24.167 -96 45.5v-439h-136v1400h136v-702z" />
    <glyph glyph-name="paragraph" unicode="&#xb6;" horiz-adv-x="1066" 
d="M870 0h-136v520h-78c-86 0 -162.333 10 -229 30s-123 48.5 -169 85.5s-80.833 81.5 -104.5 133.5s-35.5 109.667 -35.5 173s11.833 120.833 35.5 172.5s58.5 95.667 104.5 132s102.333 64.333 169 84s143 29.5 229 29.5h214v-1360z" />
    <glyph glyph-name="periodcentered" unicode="&#xb7;" horiz-adv-x="458" 
d="M162 156h182v-156h-182v156z" />
    <glyph glyph-name="cedilla" unicode="&#xb8;" horiz-adv-x="614" 
d="M500 12c11.333 -21.333 19.834 -43.002 25.501 -65.002s8.5 -43.667 8.5 -65c0 -33.333 -6.83301 -65.166 -20.5 -95.499s-34.334 -56.833 -62.001 -79.5s-62.167 -40.167 -103.5 -52.5s-90 -17.166 -146 -14.499l-21 86c42 0.666992 77.5 5 106.5 13
s52.5 18.833 70.5 32.5s30.833 29.5 38.5 47.5s11.5 37.333 11.5 58c0 23.333 -4.16699 47.5 -12.5 72.5s-19.5 49.833 -33.5 74.5z" />
    <glyph glyph-name="onesuperior" unicode="&#xb9;" horiz-adv-x="508" 
d="M88 668v86h128v509l-132 -35v90l192 62h50v-626h124v-86h-362z" />
    <glyph glyph-name="ordmasculine" unicode="&#xba;" horiz-adv-x="909" 
d="M128 1018c0 56 7.66699 106.333 23 151s37.333 82.667 66 114s63.334 55.333 104.001 72s86.334 25 137.001 25c51.333 0 98.166 -8.33301 140.499 -25s78.666 -40.667 108.999 -72s53.833 -69.333 70.5 -114s25 -95 25 -151s-8.33301 -106.333 -25 -151
s-40.167 -82.667 -70.5 -114s-66.666 -55.333 -108.999 -72s-89.166 -25 -140.499 -25c-50.667 0 -96.334 8.33301 -137.001 25s-75.334 40.667 -104.001 72s-50.667 69.333 -66 114s-23 95 -23 151zM264 1018c0 -44 4.83301 -81.833 14.5 -113.5s23 -57.834 40 -78.501
s37.333 -35.834 61 -45.501s49.834 -14.5 78.501 -14.5c30 0 57.833 4.83301 83.5 14.5s47.667 24.834 66 45.501s32.833 46.834 43.5 78.501s16 69.5 16 113.5c0 44.667 -5.33301 82.834 -16 114.501s-25.167 57.667 -43.5 78s-40.333 35.333 -66 45s-53.5 14.5 -83.5 14.5
c-28.667 0 -54.834 -4.83301 -78.501 -14.5s-44 -24.667 -61 -45s-30.333 -46.333 -40 -78s-14.5 -69.834 -14.5 -114.501z" />
    <glyph glyph-name="guillemotright" unicode="&#xbb;" horiz-adv-x="1103" 
d="M108 848l80 70l344 -392v-84l-344 -400l-80 70l302 371zM564 848l80 70l344 -392v-84l-344 -400l-80 70l302 371z" />
    <glyph glyph-name="onequarter" unicode="&#xbc;" horiz-adv-x="1461" 
d="M127 668v86h128v509l-132 -35v90l192 62h50v-626h124v-86h-362zM1148 1360h107l-938 -1360h-112zM1276 157v-156h-113v156h-427v66l422 490h118v-468h109v-88h-109zM1163 245v338l-290 -338h290z" />
    <glyph glyph-name="onehalf" unicode="&#xbd;" horiz-adv-x="1593" 
d="M1419 91l0.000976562 -92h-521v34c0 44.667 4.5 83.667 13.5 117s23.167 63 42.5 89s44.5 49.333 75.5 70s68.5 40.667 112.5 60c29.333 10.667 53.5 21.5 72.5 32.5s34 22.5 45 34.5s18.5 24.333 22.5 37s6 26 6 40c0 33.333 -12.333 59.333 -37 78
s-60.334 28 -107.001 28c-38 0 -72.333 -6.5 -103 -19.5s-61.667 -28.5 -93 -46.5l-39 80c12.667 8 27.167 16.5 43.5 25.5s34.5 17.5 54.5 25.5s41.5 14.5 64.5 19.5s47.167 7.5 72.5 7.5c81.333 0 144.166 -17.5 188.499 -52.5s66.5 -84.833 66.5 -149.5
c0 -27.333 -6.16699 -52 -18.5 -74s-28.666 -42 -48.999 -60s-43.5 -34.333 -69.5 -49s-52.667 -27.667 -80 -39c-24.667 -13.333 -47 -26.5 -67 -39.5s-37.333 -27.167 -52 -42.5s-26.5 -32.333 -35.5 -51s-14.5 -39.667 -16.5 -63h408zM127.001 668v86h128v509l-132 -35
v90l192 62h50v-626h124v-86h-362zM1144 1360h107l-938 -1360h-112z" />
    <glyph glyph-name="threequarters" unicode="&#xbe;" horiz-adv-x="1477" 
d="M604 1176c0 -75.333 -40.001 -127 -120.001 -155c94.667 -28.667 142 -83.667 142 -165c0 -31.333 -6.66699 -59.666 -20 -84.999s-33 -47.166 -59 -65.499s-58.5 -32.5 -97.5 -42.5s-84.167 -15 -135.5 -15c-43.333 0 -86.5 4.16699 -129.5 12.5
s-82.5 22.166 -118.5 41.499l30 74c35.333 -12 69.833 -22 103.5 -30s70.5 -12 110.5 -12c62.667 0 112.334 9.66699 149.001 29s55 49.666 55 90.999c0 43.333 -17.333 74.833 -52 94.5s-82.334 29.5 -143.001 29.5h-153v86h153c54 0 96.5 9.16699 127.5 27.5
s46.5 47.166 46.5 86.499c0 20.667 -4.5 38.167 -13.5 52.5s-21.5 26 -37.5 35s-35.333 15.667 -58 20s-48 6.5 -76 6.5c-38.667 0 -74 -4 -106 -12s-65.333 -18.667 -100 -32l-30 74c16.667 10 35.834 18.667 57.501 26s43.834 13.333 66.501 18s44.5 8.16699 65.5 10.5
s39.167 3.5 54.5 3.5c95.333 0 167.166 -18.167 215.499 -54.5s72.5 -86.166 72.5 -149.499zM1192 1360h107l-938 -1360h-112zM1297 157v-156h-113v156h-427v66l422 490h118v-468h109v-88h-109zM1184 245v338l-290 -338h290z" />
    <glyph glyph-name="questiondown" unicode="&#xbf;" horiz-adv-x="1153" 
d="M781.024 644.021c0 -51.3301 -2.99902 -96.8252 -8.99805 -136.489c-6 -39.665 -15.833 -75.4961 -29.498 -107.493c-13.666 -31.999 -31.165 -60.9971 -52.4971 -86.9951c-21.332 -25.999 -46.9971 -51.6641 -76.9951 -76.9951l-87.9951 -68.9961
c-26.665 -21.332 -49.6641 -42.6641 -68.9971 -63.9961c-19.332 -21.332 -34.3311 -43.6641 -44.9971 -66.9961s-15.999 -49.3301 -15.999 -77.9951c0 -31.998 5.33301 -61.4961 15.999 -88.4941c10.666 -26.999 27.498 -50.498 50.4971 -70.4971
s52.8311 -35.498 89.4961 -46.4971c36.6641 -10.999 80.9941 -16.499 132.991 -16.499c36.665 0 70.6631 3.33301 101.994 9.99902c31.3311 6.66699 60.9961 15.5 88.9941 26.499c27.999 10.999 54.6641 23.665 79.9951 37.9971
c25.332 14.333 50.3311 29.499 74.9961 45.498l53.9961 -93.9951c-19.999 -14.665 -44.3311 -29.9971 -72.9961 -45.9961s-60.4961 -30.665 -95.4932 -43.998c-34.998 -13.333 -72.6621 -24.332 -112.993 -32.998s-82.4951 -12.999 -126.492 -12.999
c-65.3291 0 -123.825 7.66602 -175.488 22.998c-51.6631 15.333 -95.3271 36.998 -130.992 64.9961c-35.665 27.999 -62.9971 62.1641 -81.9961 102.495s-28.498 85.4951 -28.498 135.492c0 46.6631 10.166 89.1602 30.498 127.491s45.6641 73.4951 75.9951 105.493
s63.1621 61.6631 98.4932 88.9941l98.9941 77.9951c17.332 14.666 31.3311 30.832 41.9971 48.498c10.666 17.665 18.999 38.1641 24.999 61.4961c5.99902 23.3311 9.99902 49.8291 11.999 79.4941s3 63.8291 3 102.493h135.991zM799.024 842.012h-161.99v157.99h161.99
v-157.99z" />
    <glyph glyph-name="Agrave" unicode="&#xc0;" horiz-adv-x="1375" 
d="M982 422h-581l-157 -422h-142l513 1360h148l519 -1360h-142zM442 532h499l-249 667zM741 1506l-107 -34l-270 248l158 66z" />
    <glyph glyph-name="Aacute" unicode="&#xc1;" horiz-adv-x="1375" 
d="M982 422h-581l-157 -422h-142l513 1360h148l519 -1360h-142zM442 532h499l-249 667zM835 1788l157 -66l-268 -248l-110 40z" />
    <glyph glyph-name="Acircumflex" unicode="&#xc2;" horiz-adv-x="1375" 
d="M982 422h-581l-157 -422h-142l513 1360h148l519 -1360h-142zM442 532h499l-249 667zM532 1472h-188l306 232h104l305 -232h-190l-168 119z" />
    <glyph glyph-name="Atilde" unicode="&#xc3;" horiz-adv-x="1375" 
d="M982 422h-581l-157 -422h-142l513 1360h148l519 -1360h-142zM442 532h499l-249 667zM830 1596c23.333 0 46.6699 8.16797 70.0029 24.501s40.666 40.166 51.999 71.499l97 -66c-9.33301 -24 -21.5 -45.333 -36.5 -64s-31.333 -34.667 -49 -48s-36 -24 -55 -32
s-37.167 -13.333 -54.5 -16c-13.333 -2.66699 -27.333 -4 -42 -4c-35.333 0 -67.5 7.66699 -96.5 23s-57.167 32.333 -84.5 51c-20.667 15.333 -39.834 26.5 -57.501 33.5s-33.167 10.5 -46.5 10.5c-11.333 -0.666992 -21.666 -2.16699 -30.999 -4.5
s-18.666 -6.83301 -27.999 -13.5s-18.833 -16 -28.5 -28s-20.167 -27.333 -31.5 -46l-96 60c8 23.333 19.333 44.333 34 63s31 34.667 49 48s36.667 24.333 56 33s37.666 14.667 54.999 18c12 2 23.333 3 34 3c36.667 0 70 -7.83301 100 -23.5s58.667 -32.834 86 -51.501
c19.333 -16 38.166 -26.667 56.499 -32s34.166 -8.66602 47.499 -9.99902z" />
    <glyph glyph-name="Adieresis" unicode="&#xc4;" horiz-adv-x="1375" 
d="M982 422h-581l-157 -422h-142l513 1360h148l519 -1360h-142zM442 532h499l-249 667zM358 1642h197v-170h-197v170zM841 1642h198v-170h-198v170z" />
    <glyph glyph-name="Aring" unicode="&#xc5;" horiz-adv-x="1375" 
d="M982 422h-581l-157 -422h-142l513 1360h148l519 -1360h-142zM442 532h499l-249 667zM695 1860c30 0 58.167 -5.16699 84.5 -15.5s49.5 -24.333 69.5 -42s35.833 -38.167 47.5 -61.5s17.5 -48.333 17.5 -75c0 -27.333 -5.83301 -52.333 -17.5 -75s-27.5 -42.5 -47.5 -59.5
s-43.167 -30.167 -69.5 -39.5s-54.5 -14 -84.5 -14s-58.5 4.66699 -85.5 14s-50.667 22.5 -71 39.5s-36.5 36.833 -48.5 59.5s-18 47.667 -18 75c0 26.667 6 51.667 18 75s28.167 43.833 48.5 61.5s44 31.667 71 42s55.5 15.5 85.5 15.5zM695 1588
c25.333 0 45.666 7.66895 60.999 23.002s23 33.666 23 54.999c0 22 -7.66699 41.5 -23 58.5s-35.666 25.5 -60.999 25.5c-11.333 0 -22.333 -2.33301 -33 -7s-20.167 -10.834 -28.5 -18.501s-15 -16.667 -20 -27s-7.5 -20.833 -7.5 -31.5s2.5 -20.667 7.5 -30
s11.667 -17.5 20 -24.5s17.833 -12.667 28.5 -17s21.667 -6.5 33 -6.5z" />
    <glyph glyph-name="AE" unicode="&#xc6;" horiz-adv-x="1966" 
d="M1073 370h-525l-240 -370l-170 2l292 448v30h19l574 880h824v-110h-638v-492h571v-110h-571v-538h638v-110h-774v370zM1073 480v699l-454 -699h454z" />
    <glyph glyph-name="Ccedilla" unicode="&#xc7;" 
d="M136 682c0 105.333 14.4971 201.003 43.4971 287.003s70.333 159.5 124 220.5s118.667 108 195 141s162.166 49.5 257.499 49.5c70.667 0 131 -7.33301 181 -22s92.667 -31 128 -49l-46 -95c-36 17.333 -77.5 31 -124.5 41s-95.5 15 -145.5 15
c-70 0 -134.167 -11.333 -192.5 -34s-108.666 -57.834 -150.999 -105.501s-75.166 -108.667 -98.499 -183s-35 -162.833 -35 -265.5c0 -103.333 12.667 -192.166 38 -266.499s60.833 -135.666 106.5 -183.999s99.834 -84 162.501 -107s131 -34.5 205 -34.5
c30.667 0 59.834 2.16699 87.501 6.5s53.167 9.66602 76.5 15.999s44.5 13.166 63.5 20.499s35.833 14.333 50.5 21l39 -92c-34.667 -23.333 -80 -42.833 -136 -58.5s-121.333 -23.5 -196 -23.5c-96.667 0 -184 16.833 -262 50.5s-144.5 81.167 -199.5 142.5
s-97.333 135.166 -127 221.499s-44.5 182.166 -44.5 287.499zM863.997 12.0029c11.333 -21.333 19.834 -43.002 25.501 -65.002s8.5 -43.667 8.5 -65c0 -33.333 -6.83301 -65.166 -20.5 -95.499s-34.334 -56.833 -62.001 -79.5s-62.167 -40.167 -103.5 -52.5
s-90 -17.166 -146 -14.499l-21 86c42 0.666992 77.5 5 106.5 13s52.5 18.833 70.5 32.5s30.833 29.5 38.5 47.5s11.5 37.333 11.5 58c0 23.333 -4.16699 47.5 -12.5 72.5s-19.5 49.833 -33.5 74.5z" />
    <glyph glyph-name="Egrave" unicode="&#xc8;" horiz-adv-x="1099" 
d="M216 0v1360h774v-110h-638v-492h571v-110h-571v-538h638v-110h-774zM651 1504l-107 -34l-270 248l158 66z" />
    <glyph glyph-name="Eacute" unicode="&#xc9;" horiz-adv-x="1099" 
d="M216 0v1360h774v-110h-638v-492h571v-110h-571v-538h638v-110h-774zM745 1786l157 -66l-268 -248l-110 40z" />
    <glyph glyph-name="Ecircumflex" unicode="&#xca;" horiz-adv-x="1099" 
d="M216 0v1360h774v-110h-638v-492h571v-110h-571v-538h638v-110h-774zM442 1470h-188l306 232h104l305 -232h-190l-168 119z" />
    <glyph glyph-name="Edieresis" unicode="&#xcb;" horiz-adv-x="1099" 
d="M216 0v1360h774v-110h-638v-492h571v-110h-571v-538h638v-110h-774zM268 1640h197v-170h-197v170zM751 1640h198v-170h-198v170z" />
    <glyph glyph-name="Igrave" unicode="&#xcc;" horiz-adv-x="856" 
d="M156 0v110h211v1140h-211v110h548v-110h-201v-1140h201v-110h-548zM483 1504l-107 -34l-270 248l158 66z" />
    <glyph glyph-name="Iacute" unicode="&#xcd;" horiz-adv-x="856" 
d="M156 0v110h211v1140h-211v110h548v-110h-201v-1140h201v-110h-548zM577 1786l157 -66l-268 -248l-110 40z" />
    <glyph glyph-name="Icircumflex" unicode="&#xce;" horiz-adv-x="856" 
d="M156 0v110h211v1140h-211v110h548v-110h-201v-1140h201v-110h-548zM275 1470h-188l306 232h104l305 -232h-190l-168 119z" />
    <glyph glyph-name="Idieresis" unicode="&#xcf;" horiz-adv-x="856" 
d="M156 0v110h211v1140h-211v110h548v-110h-201v-1140h201v-110h-548zM101 1640h197v-170h-197v170zM584 1640h198v-170h-198v170z" />
    <glyph glyph-name="Eth" unicode="&#xd0;" horiz-adv-x="1450" 
d="M274 666l-156 0.00292969v110h156v584h399c100.667 0 192 -16.167 274 -48.5s151.667 -78 209 -137s101.666 -130.167 132.999 -213.5s47 -176.333 47 -279s-15.667 -195.834 -47 -279.501s-75.666 -155.334 -132.999 -215.001s-127 -105.834 -209 -138.501
s-173.333 -49 -274 -49h-399v666zM410 666.003v-556h243c79.333 0 152.5 11.167 219.5 33.5s124.667 56.833 173 103.5s86.166 106 113.499 178s41 157.667 41 257s-13.667 184.833 -41 256.5s-65.166 130.5 -113.499 176.5s-106 80 -173 102s-140.167 33 -219.5 33h-243
v-474h311v-110h-311z" />
    <glyph glyph-name="Ntilde" unicode="&#xd1;" horiz-adv-x="1482" 
d="M216 1360h136l799 -1145v1145h136v-1360h-136l-799 1126v-1126h-136v1360zM878 1594c23.333 0 46.6699 8.16797 70.0029 24.501s40.666 40.166 51.999 71.499l97 -66c-9.33301 -24 -21.5 -45.333 -36.5 -64s-31.333 -34.667 -49 -48s-36 -24 -55 -32
s-37.167 -13.333 -54.5 -16c-13.333 -2.66699 -27.333 -4 -42 -4c-35.333 0 -67.5 7.66699 -96.5 23s-57.167 32.333 -84.5 51c-20.667 15.333 -39.834 26.5 -57.501 33.5s-33.167 10.5 -46.5 10.5c-11.333 -0.666992 -21.666 -2.16699 -30.999 -4.5
s-18.666 -6.83301 -27.999 -13.5s-18.833 -16 -28.5 -28s-20.167 -27.333 -31.5 -46l-96 60c8 23.333 19.333 44.333 34 63s31 34.667 49 48s36.667 24.333 56 33s37.666 14.667 54.999 18c12 2 23.333 3 34 3c36.667 0 70 -7.83301 100 -23.5s58.667 -32.834 86 -51.501
c19.333 -16 38.166 -26.667 56.499 -32s34.166 -8.66602 47.499 -9.99902z" />
    <glyph glyph-name="Ograve" unicode="&#xd2;" horiz-adv-x="1438" 
d="M135 680c0 107.333 14 204.166 42 290.499s67.167 159.833 117.5 220.5s110.833 107.334 181.5 140.001s148.667 49 234 49c84.667 0 163.5 -16.333 236.5 -49s136.333 -79.334 190 -140.001s95.834 -134.167 126.501 -220.5s46 -183.166 46 -290.499
c0 -108 -15.333 -205.167 -46 -291.5s-72.834 -159.833 -126.501 -220.5s-117 -107.167 -190 -139.5s-151.833 -48.5 -236.5 -48.5c-85.333 0 -163.333 16.167 -234 48.5s-131.167 78.833 -181.5 139.5s-89.5 134.167 -117.5 220.5s-42 183.5 -42 291.5zM271 680
c0 -100 11 -187 33 -261s52.667 -135.333 92 -184s85.666 -85 138.999 -109s111.666 -36 174.999 -36c64 0 124.167 12 180.5 36s105.5 60.333 147.5 109s75 110 99 184s36 161 36 261s-12 187 -36 261s-57 135.333 -99 184s-91.167 85 -147.5 109s-116.5 36 -180.5 36
c-63.333 0 -121.666 -12 -174.999 -36s-99.666 -60.333 -138.999 -109s-70 -110 -92 -184s-33 -161 -33 -261zM774 1522l-107 -34l-270 248l158 66z" />
    <glyph glyph-name="Oacute" unicode="&#xd3;" horiz-adv-x="1438" 
d="M135 680c0 107.333 14 204.166 42 290.499s67.167 159.833 117.5 220.5s110.833 107.334 181.5 140.001s148.667 49 234 49c84.667 0 163.5 -16.333 236.5 -49s136.333 -79.334 190 -140.001s95.834 -134.167 126.501 -220.5s46 -183.166 46 -290.499
c0 -108 -15.333 -205.167 -46 -291.5s-72.834 -159.833 -126.501 -220.5s-117 -107.167 -190 -139.5s-151.833 -48.5 -236.5 -48.5c-85.333 0 -163.333 16.167 -234 48.5s-131.167 78.833 -181.5 139.5s-89.5 134.167 -117.5 220.5s-42 183.5 -42 291.5zM271 680
c0 -100 11 -187 33 -261s52.667 -135.333 92 -184s85.666 -85 138.999 -109s111.666 -36 174.999 -36c64 0 124.167 12 180.5 36s105.5 60.333 147.5 109s75 110 99 184s36 161 36 261s-12 187 -36 261s-57 135.333 -99 184s-91.167 85 -147.5 109s-116.5 36 -180.5 36
c-63.333 0 -121.666 -12 -174.999 -36s-99.666 -60.333 -138.999 -109s-70 -110 -92 -184s-33 -161 -33 -261zM868 1804l157 -66l-268 -248l-110 40z" />
    <glyph glyph-name="Ocircumflex" unicode="&#xd4;" horiz-adv-x="1438" 
d="M135 680c0 107.333 14 204.166 42 290.499s67.167 159.833 117.5 220.5s110.833 107.334 181.5 140.001s148.667 49 234 49c84.667 0 163.5 -16.333 236.5 -49s136.333 -79.334 190 -140.001s95.834 -134.167 126.501 -220.5s46 -183.166 46 -290.499
c0 -108 -15.333 -205.167 -46 -291.5s-72.834 -159.833 -126.501 -220.5s-117 -107.167 -190 -139.5s-151.833 -48.5 -236.5 -48.5c-85.333 0 -163.333 16.167 -234 48.5s-131.167 78.833 -181.5 139.5s-89.5 134.167 -117.5 220.5s-42 183.5 -42 291.5zM271 680
c0 -100 11 -187 33 -261s52.667 -135.333 92 -184s85.666 -85 138.999 -109s111.666 -36 174.999 -36c64 0 124.167 12 180.5 36s105.5 60.333 147.5 109s75 110 99 184s36 161 36 261s-12 187 -36 261s-57 135.333 -99 184s-91.167 85 -147.5 109s-116.5 36 -180.5 36
c-63.333 0 -121.666 -12 -174.999 -36s-99.666 -60.333 -138.999 -109s-70 -110 -92 -184s-33 -161 -33 -261zM565 1488h-188l306 232h104l305 -232h-190l-168 119z" />
    <glyph glyph-name="Otilde" unicode="&#xd5;" horiz-adv-x="1438" 
d="M135 680c0 107.333 14 204.166 42 290.499s67.167 159.833 117.5 220.5s110.833 107.334 181.5 140.001s148.667 49 234 49c84.667 0 163.5 -16.333 236.5 -49s136.333 -79.334 190 -140.001s95.834 -134.167 126.501 -220.5s46 -183.166 46 -290.499
c0 -108 -15.333 -205.167 -46 -291.5s-72.834 -159.833 -126.501 -220.5s-117 -107.167 -190 -139.5s-151.833 -48.5 -236.5 -48.5c-85.333 0 -163.333 16.167 -234 48.5s-131.167 78.833 -181.5 139.5s-89.5 134.167 -117.5 220.5s-42 183.5 -42 291.5zM271 680
c0 -100 11 -187 33 -261s52.667 -135.333 92 -184s85.666 -85 138.999 -109s111.666 -36 174.999 -36c64 0 124.167 12 180.5 36s105.5 60.333 147.5 109s75 110 99 184s36 161 36 261s-12 187 -36 261s-57 135.333 -99 184s-91.167 85 -147.5 109s-116.5 36 -180.5 36
c-63.333 0 -121.666 -12 -174.999 -36s-99.666 -60.333 -138.999 -109s-70 -110 -92 -184s-33 -161 -33 -261zM863 1612c23.333 0 46.6699 8.16797 70.0029 24.501s40.666 40.166 51.999 71.499l97 -66c-9.33301 -24 -21.5 -45.333 -36.5 -64s-31.333 -34.667 -49 -48
s-36 -24 -55 -32s-37.167 -13.333 -54.5 -16c-13.333 -2.66699 -27.333 -4 -42 -4c-35.333 0 -67.5 7.66699 -96.5 23s-57.167 32.333 -84.5 51c-20.667 15.333 -39.834 26.5 -57.501 33.5s-33.167 10.5 -46.5 10.5c-11.333 -0.666992 -21.666 -2.16699 -30.999 -4.5
s-18.666 -6.83301 -27.999 -13.5s-18.833 -16 -28.5 -28s-20.167 -27.333 -31.5 -46l-96 60c8 23.333 19.333 44.333 34 63s31 34.667 49 48s36.667 24.333 56 33s37.666 14.667 54.999 18c12 2 23.333 3 34 3c36.667 0 70 -7.83301 100 -23.5s58.667 -32.834 86 -51.501
c19.333 -16 38.166 -26.667 56.499 -32s34.166 -8.66602 47.499 -9.99902z" />
    <glyph glyph-name="Odieresis" unicode="&#xd6;" horiz-adv-x="1438" 
d="M135 680c0 107.333 14 204.166 42 290.499s67.167 159.833 117.5 220.5s110.833 107.334 181.5 140.001s148.667 49 234 49c84.667 0 163.5 -16.333 236.5 -49s136.333 -79.334 190 -140.001s95.834 -134.167 126.501 -220.5s46 -183.166 46 -290.499
c0 -108 -15.333 -205.167 -46 -291.5s-72.834 -159.833 -126.501 -220.5s-117 -107.167 -190 -139.5s-151.833 -48.5 -236.5 -48.5c-85.333 0 -163.333 16.167 -234 48.5s-131.167 78.833 -181.5 139.5s-89.5 134.167 -117.5 220.5s-42 183.5 -42 291.5zM271 680
c0 -100 11 -187 33 -261s52.667 -135.333 92 -184s85.666 -85 138.999 -109s111.666 -36 174.999 -36c64 0 124.167 12 180.5 36s105.5 60.333 147.5 109s75 110 99 184s36 161 36 261s-12 187 -36 261s-57 135.333 -99 184s-91.167 85 -147.5 109s-116.5 36 -180.5 36
c-63.333 0 -121.666 -12 -174.999 -36s-99.666 -60.333 -138.999 -109s-70 -110 -92 -184s-33 -161 -33 -261zM391 1658h197v-170h-197v170zM874 1658h198v-170h-198v170z" />
    <glyph glyph-name="multiply" unicode="&#xd7;" horiz-adv-x="1067" 
d="M210 964l328 -292l329 292l89 -84l-326 -290l326 -290l-89 -84l-329 292l-328 -292l-94 82l330 293l-328 293z" />
    <glyph glyph-name="Oslash" unicode="&#xd8;" horiz-adv-x="1288" 
d="M61 680c0 107.333 14 204.164 42 290.497s67.167 159.833 117.5 220.5s110.833 107.334 181.5 140.001s148.667 49 234 49c76.667 0 148.334 -13.333 215.001 -40s126 -65 178 -115l111 135h132l-174 -213c43.333 -59.333 77 -128.166 101 -206.499
s36 -165.166 36 -260.499c0 -108 -15.333 -205.167 -46 -291.5s-72.834 -159.833 -126.501 -220.5s-117 -107.167 -190 -139.5s-151.833 -48.5 -236.5 -48.5c-75.333 0 -144.5 12.333 -207.5 37s-119.167 60.667 -168.5 108l-104 -127h-134l170 207
c-42 59.333 -74.333 128.833 -97 208.5s-34 168.5 -34 266.5zM197 679.998c0 -78.667 6.83008 -148.833 20.4971 -210.5s32.834 -116.167 57.501 -163.5l680 829c-42 46 -90 80 -144 102s-112.333 33 -175 33c-63.333 0 -121.666 -12 -174.999 -36
s-99.666 -60.333 -138.999 -109s-70 -110 -92 -184s-33 -161 -33 -261zM1099 679.999c0 76.667 -7.16797 145.667 -21.501 207s-34.5 115 -60.5 161l-681 -830c38.667 -43.333 83.334 -75.5 134.001 -96.5s106 -31.5 166 -31.5c64 0 124.167 12 180.5 36
s105.5 60.333 147.5 109s75 110 99 184s36 161 36 261z" />
    <glyph glyph-name="Ugrave" unicode="&#xd9;" horiz-adv-x="1457" 
d="M1123 1360h136.005v-960c0 -67.333 -12.833 -127 -38.5 -179s-61.834 -95.833 -108.501 -131.5s-102.334 -62.834 -167.001 -81.501s-136.334 -28 -215.001 -28c-78 0 -148.667 9.16699 -212 27.5s-117.333 45.333 -162 81s-79.167 79.334 -103.5 131.001
s-36.5 111.167 -36.5 178.5v962h136v-962c0 -49.333 9.33301 -93 28 -131s44.667 -70.167 78 -96.5s73.166 -46.333 119.499 -60s97.166 -20.5 152.499 -20.5c56 0 108 6.83301 156 20.5s89.5 33.667 124.5 60s62.5 58.5 82.5 96.5s30 81.667 30 131v962zM783.005 1504
l-107 -34l-270 248l158 66z" />
    <glyph glyph-name="Uacute" unicode="&#xda;" horiz-adv-x="1457" 
d="M1123 1360h136.005v-960c0 -67.333 -12.833 -127 -38.5 -179s-61.834 -95.833 -108.501 -131.5s-102.334 -62.834 -167.001 -81.501s-136.334 -28 -215.001 -28c-78 0 -148.667 9.16699 -212 27.5s-117.333 45.333 -162 81s-79.167 79.334 -103.5 131.001
s-36.5 111.167 -36.5 178.5v962h136v-962c0 -49.333 9.33301 -93 28 -131s44.667 -70.167 78 -96.5s73.166 -46.333 119.499 -60s97.166 -20.5 152.499 -20.5c56 0 108 6.83301 156 20.5s89.5 33.667 124.5 60s62.5 58.5 82.5 96.5s30 81.667 30 131v962zM877.005 1786
l157 -66l-268 -248l-110 40z" />
    <glyph glyph-name="Ucircumflex" unicode="&#xdb;" horiz-adv-x="1457" 
d="M1123 1360h136.005v-960c0 -67.333 -12.833 -127 -38.5 -179s-61.834 -95.833 -108.501 -131.5s-102.334 -62.834 -167.001 -81.501s-136.334 -28 -215.001 -28c-78 0 -148.667 9.16699 -212 27.5s-117.333 45.333 -162 81s-79.167 79.334 -103.5 131.001
s-36.5 111.167 -36.5 178.5v962h136v-962c0 -49.333 9.33301 -93 28 -131s44.667 -70.167 78 -96.5s73.166 -46.333 119.499 -60s97.166 -20.5 152.499 -20.5c56 0 108 6.83301 156 20.5s89.5 33.667 124.5 60s62.5 58.5 82.5 96.5s30 81.667 30 131v962zM574.005 1470h-188
l306 232h104l305 -232h-190l-168 119z" />
    <glyph glyph-name="Udieresis" unicode="&#xdc;" horiz-adv-x="1457" 
d="M1123 1360h136.005v-960c0 -67.333 -12.833 -127 -38.5 -179s-61.834 -95.833 -108.501 -131.5s-102.334 -62.834 -167.001 -81.501s-136.334 -28 -215.001 -28c-78 0 -148.667 9.16699 -212 27.5s-117.333 45.333 -162 81s-79.167 79.334 -103.5 131.001
s-36.5 111.167 -36.5 178.5v962h136v-962c0 -49.333 9.33301 -93 28 -131s44.667 -70.167 78 -96.5s73.166 -46.333 119.499 -60s97.166 -20.5 152.499 -20.5c56 0 108 6.83301 156 20.5s89.5 33.667 124.5 60s62.5 58.5 82.5 96.5s30 81.667 30 131v962zM400.005 1640h197
v-170h-197v170zM883.005 1640h198v-170h-198v170z" />
    <glyph glyph-name="Yacute" unicode="&#xdd;" horiz-adv-x="1184" 
d="M594 636l353 724h152l-434 -870v-490h-136v484l-439 876h152zM756 1786l157 -66l-268 -248l-110 40z" />
    <glyph glyph-name="Thorn" unicode="&#xde;" horiz-adv-x="1145" 
d="M132 1360l136 0.00195312v-324h308c74 0 139.5 -8.5 196.5 -25.5s105 -41 144 -72s68.667 -68.833 89 -113.5s30.5 -94.334 30.5 -149.001c0 -55.333 -10.167 -105.333 -30.5 -150s-50 -82.834 -89 -114.501s-87 -56.167 -144 -73.5s-122.5 -26 -196.5 -26h-308v-312
h-136v1360zM268 926.002v-504h286c51.333 0 98.166 5 140.499 15s78.833 25.5 109.5 46.5s54.334 47.5 71.001 79.5s25 69.667 25 113s-8.33301 80.833 -25 112.5s-40.334 57.667 -71.001 78s-67.167 35.333 -109.5 45s-89.166 14.5 -140.499 14.5h-286z" />
    <glyph glyph-name="germandbls" unicode="&#xdf;" horiz-adv-x="1236" 
d="M142 -192l0.00390625 1169.99c0 60.667 9.5 116.834 28.5 168.501s47 96.5 84 134.5s82.667 67.667 137 89s116.5 32 186.5 32c126.667 0 221 -23 283 -69s93 -112.333 93 -199c0 -22.667 -2.16699 -42.834 -6.5 -60.501s-10 -33.834 -17 -48.501s-15 -28.167 -24 -40.5
s-18.5 -23.833 -28.5 -34.5c-20 -28 -36 -56.5 -48 -85.5s-18 -60.5 -18 -94.5c0 -35.333 11.333 -66.166 34 -92.499s54.667 -52.833 96 -79.5c22.667 -16 45 -33 67 -51s41.667 -38 59 -60s31.333 -46.833 42 -74.5s16 -59.167 16 -94.5
c0 -61.333 -12.5 -114.166 -37.5 -158.499s-58 -80.666 -99 -108.999s-87.833 -49.166 -140.5 -62.499s-107 -20 -163 -20c-28 0 -55.333 1.16699 -82 3.5s-51.834 5 -75.501 8s-45 6.33301 -64 10s-34.833 7.16699 -47.5 10.5l29 112
c25.333 -7.33301 57.5 -14.833 96.5 -22.5s87.5 -11.5 145.5 -11.5c39.333 0 77.166 4.5 113.499 13.5s68.5 22.833 96.5 41.5s50.333 42.5 67 71.5s25 63.5 25 103.5c0 20.667 -5 39.834 -15 57.501s-22.333 34.334 -37 50.001s-30.5 30.334 -47.5 44.001
s-32.167 26.5 -45.5 38.5c-24 18 -46.333 36.167 -67 54.5s-38.5 38.166 -53.5 59.499s-26.833 44.833 -35.5 70.5s-13 54.834 -13 87.501c0 47.333 5.83301 90.333 17.5 129s32.5 78 62.5 118l18 24.5c7.33301 9.66699 14.166 19.834 20.499 30.501s11.833 21.5 16.5 32.5
s7 21.5 7 31.5c0 22.667 -5.16699 43.5 -15.5 62.5s-26 35.5 -47 49.5s-47.167 24.833 -78.5 32.5s-68 11.5 -110 11.5c-45.333 0 -85.833 -8 -121.5 -24s-65.834 -38 -90.501 -66s-43.667 -61.167 -57 -99.5s-20 -79.833 -20 -124.5v-1170h-136z" />
    <glyph glyph-name="agrave" unicode="&#xe0;" horiz-adv-x="1136" 
d="M811 584l0.00585938 37.999c0 54 -5.5 99.333 -16.5 136s-27.333 66.334 -49 89.001s-48.834 38.834 -81.501 48.501s-70.667 14.5 -114 14.5c-27.333 0 -54.833 -1.83301 -82.5 -5.5s-54.667 -8.83398 -81 -15.501s-51.333 -14.167 -75 -22.5
s-44.834 -17.166 -63.501 -26.499l-38 98c22 12.667 47 24 75 34s57.333 18.5 88 25.5s62.167 12.5 94.5 16.5s63.833 6 94.5 6c58 0 110.833 -6 158.5 -18s88.167 -33 121.5 -63s59.166 -70.667 77.499 -122s27.5 -116.333 27.5 -195v-622h-98l-23 113
c-12.667 -10 -30.834 -22.5 -54.501 -37.5s-52 -29.5 -85 -43.5s-70.333 -26.167 -112 -36.5s-86.834 -15.5 -135.501 -15.5c-52.667 0 -98.334 7.83301 -137.001 23.5s-70.5 37 -95.5 64s-43.5 58.5 -55.5 94.5s-18 74 -18 114c0 40.667 10 79.667 30 117
s48 70.166 84 98.499s79.167 50.833 129.5 67.5s105.833 25 166.5 25h268zM469.006 89.999c45.333 0 87.3311 5.50195 125.998 16.502s72.667 23.833 102 38.5s53.833 29.167 73.5 43.5s33.167 24.833 40.5 31.5v264h-245c-58 0 -106.167 -7.16699 -144.5 -21.5
s-68.666 -32.5 -90.999 -54.5s-38.166 -46.333 -47.499 -73s-14 -52.334 -14 -77.001c0 -26.667 5.16699 -50.334 15.5 -71.001s24.5 -38.167 42.5 -52.5s39.167 -25.333 63.5 -33s50.5 -11.5 78.5 -11.5zM635.004 1184l-107 -34l-270 248l158 66z" />
    <glyph glyph-name="aacute" unicode="&#xe1;" horiz-adv-x="1136" 
d="M811 584l0.00585938 37.999c0 54 -5.5 99.333 -16.5 136s-27.333 66.334 -49 89.001s-48.834 38.834 -81.501 48.501s-70.667 14.5 -114 14.5c-27.333 0 -54.833 -1.83301 -82.5 -5.5s-54.667 -8.83398 -81 -15.501s-51.333 -14.167 -75 -22.5
s-44.834 -17.166 -63.501 -26.499l-38 98c22 12.667 47 24 75 34s57.333 18.5 88 25.5s62.167 12.5 94.5 16.5s63.833 6 94.5 6c58 0 110.833 -6 158.5 -18s88.167 -33 121.5 -63s59.166 -70.667 77.499 -122s27.5 -116.333 27.5 -195v-622h-98l-23 113
c-12.667 -10 -30.834 -22.5 -54.501 -37.5s-52 -29.5 -85 -43.5s-70.333 -26.167 -112 -36.5s-86.834 -15.5 -135.501 -15.5c-52.667 0 -98.334 7.83301 -137.001 23.5s-70.5 37 -95.5 64s-43.5 58.5 -55.5 94.5s-18 74 -18 114c0 40.667 10 79.667 30 117
s48 70.166 84 98.499s79.167 50.833 129.5 67.5s105.833 25 166.5 25h268zM469.006 89.999c45.333 0 87.3311 5.50195 125.998 16.502s72.667 23.833 102 38.5s53.833 29.167 73.5 43.5s33.167 24.833 40.5 31.5v264h-245c-58 0 -106.167 -7.16699 -144.5 -21.5
s-68.666 -32.5 -90.999 -54.5s-38.166 -46.333 -47.499 -73s-14 -52.334 -14 -77.001c0 -26.667 5.16699 -50.334 15.5 -71.001s24.5 -38.167 42.5 -52.5s39.167 -25.333 63.5 -33s50.5 -11.5 78.5 -11.5zM729.004 1466l157 -66l-268 -248l-110 40z" />
    <glyph glyph-name="acircumflex" unicode="&#xe2;" horiz-adv-x="1136" 
d="M811 584l0.00585938 37.999c0 54 -5.5 99.333 -16.5 136s-27.333 66.334 -49 89.001s-48.834 38.834 -81.501 48.501s-70.667 14.5 -114 14.5c-27.333 0 -54.833 -1.83301 -82.5 -5.5s-54.667 -8.83398 -81 -15.501s-51.333 -14.167 -75 -22.5
s-44.834 -17.166 -63.501 -26.499l-38 98c22 12.667 47 24 75 34s57.333 18.5 88 25.5s62.167 12.5 94.5 16.5s63.833 6 94.5 6c58 0 110.833 -6 158.5 -18s88.167 -33 121.5 -63s59.166 -70.667 77.499 -122s27.5 -116.333 27.5 -195v-622h-98l-23 113
c-12.667 -10 -30.834 -22.5 -54.501 -37.5s-52 -29.5 -85 -43.5s-70.333 -26.167 -112 -36.5s-86.834 -15.5 -135.501 -15.5c-52.667 0 -98.334 7.83301 -137.001 23.5s-70.5 37 -95.5 64s-43.5 58.5 -55.5 94.5s-18 74 -18 114c0 40.667 10 79.667 30 117
s48 70.166 84 98.499s79.167 50.833 129.5 67.5s105.833 25 166.5 25h268zM469.006 89.999c45.333 0 87.3311 5.50195 125.998 16.502s72.667 23.833 102 38.5s53.833 29.167 73.5 43.5s33.167 24.833 40.5 31.5v264h-245c-58 0 -106.167 -7.16699 -144.5 -21.5
s-68.666 -32.5 -90.999 -54.5s-38.166 -46.333 -47.499 -73s-14 -52.334 -14 -77.001c0 -26.667 5.16699 -50.334 15.5 -71.001s24.5 -38.167 42.5 -52.5s39.167 -25.333 63.5 -33s50.5 -11.5 78.5 -11.5zM426.004 1150h-188l306 232h104l305 -232h-190l-168 119z" />
    <glyph glyph-name="atilde" unicode="&#xe3;" horiz-adv-x="1136" 
d="M811 584l0.00585938 37.999c0 54 -5.5 99.333 -16.5 136s-27.333 66.334 -49 89.001s-48.834 38.834 -81.501 48.501s-70.667 14.5 -114 14.5c-27.333 0 -54.833 -1.83301 -82.5 -5.5s-54.667 -8.83398 -81 -15.501s-51.333 -14.167 -75 -22.5
s-44.834 -17.166 -63.501 -26.499l-38 98c22 12.667 47 24 75 34s57.333 18.5 88 25.5s62.167 12.5 94.5 16.5s63.833 6 94.5 6c58 0 110.833 -6 158.5 -18s88.167 -33 121.5 -63s59.166 -70.667 77.499 -122s27.5 -116.333 27.5 -195v-622h-98l-23 113
c-12.667 -10 -30.834 -22.5 -54.501 -37.5s-52 -29.5 -85 -43.5s-70.333 -26.167 -112 -36.5s-86.834 -15.5 -135.501 -15.5c-52.667 0 -98.334 7.83301 -137.001 23.5s-70.5 37 -95.5 64s-43.5 58.5 -55.5 94.5s-18 74 -18 114c0 40.667 10 79.667 30 117
s48 70.166 84 98.499s79.167 50.833 129.5 67.5s105.833 25 166.5 25h268zM469.006 89.999c45.333 0 87.3311 5.50195 125.998 16.502s72.667 23.833 102 38.5s53.833 29.167 73.5 43.5s33.167 24.833 40.5 31.5v264h-245c-58 0 -106.167 -7.16699 -144.5 -21.5
s-68.666 -32.5 -90.999 -54.5s-38.166 -46.333 -47.499 -73s-14 -52.334 -14 -77.001c0 -26.667 5.16699 -50.334 15.5 -71.001s24.5 -38.167 42.5 -52.5s39.167 -25.333 63.5 -33s50.5 -11.5 78.5 -11.5zM724.004 1274c23.333 0 46.6699 8.16797 70.0029 24.501
s40.666 40.166 51.999 71.499l97 -66c-9.33301 -24 -21.5 -45.333 -36.5 -64s-31.333 -34.667 -49 -48s-36 -24 -55 -32s-37.167 -13.333 -54.5 -16c-13.333 -2.66699 -27.333 -4 -42 -4c-35.333 0 -67.5 7.66699 -96.5 23s-57.167 32.333 -84.5 51
c-20.667 15.333 -39.834 26.5 -57.501 33.5s-33.167 10.5 -46.5 10.5c-11.333 -0.666992 -21.666 -2.16699 -30.999 -4.5s-18.666 -6.83301 -27.999 -13.5s-18.833 -16 -28.5 -28s-20.167 -27.333 -31.5 -46l-96 60c8 23.333 19.333 44.333 34 63s31 34.667 49 48
s36.667 24.333 56 33s37.666 14.667 54.999 18c12 2 23.333 3 34 3c36.667 0 70 -7.83301 100 -23.5s58.667 -32.834 86 -51.501c19.333 -16 38.166 -26.667 56.499 -32s34.166 -8.66602 47.499 -9.99902z" />
    <glyph glyph-name="adieresis" unicode="&#xe4;" horiz-adv-x="1136" 
d="M811 584l0.00585938 37.999c0 54 -5.5 99.333 -16.5 136s-27.333 66.334 -49 89.001s-48.834 38.834 -81.501 48.501s-70.667 14.5 -114 14.5c-27.333 0 -54.833 -1.83301 -82.5 -5.5s-54.667 -8.83398 -81 -15.501s-51.333 -14.167 -75 -22.5
s-44.834 -17.166 -63.501 -26.499l-38 98c22 12.667 47 24 75 34s57.333 18.5 88 25.5s62.167 12.5 94.5 16.5s63.833 6 94.5 6c58 0 110.833 -6 158.5 -18s88.167 -33 121.5 -63s59.166 -70.667 77.499 -122s27.5 -116.333 27.5 -195v-622h-98l-23 113
c-12.667 -10 -30.834 -22.5 -54.501 -37.5s-52 -29.5 -85 -43.5s-70.333 -26.167 -112 -36.5s-86.834 -15.5 -135.501 -15.5c-52.667 0 -98.334 7.83301 -137.001 23.5s-70.5 37 -95.5 64s-43.5 58.5 -55.5 94.5s-18 74 -18 114c0 40.667 10 79.667 30 117
s48 70.166 84 98.499s79.167 50.833 129.5 67.5s105.833 25 166.5 25h268zM469.006 89.999c45.333 0 87.3311 5.50195 125.998 16.502s72.667 23.833 102 38.5s53.833 29.167 73.5 43.5s33.167 24.833 40.5 31.5v264h-245c-58 0 -106.167 -7.16699 -144.5 -21.5
s-68.666 -32.5 -90.999 -54.5s-38.166 -46.333 -47.499 -73s-14 -52.334 -14 -77.001c0 -26.667 5.16699 -50.334 15.5 -71.001s24.5 -38.167 42.5 -52.5s39.167 -25.333 63.5 -33s50.5 -11.5 78.5 -11.5zM252.004 1321h197v-170h-197v170zM735.004 1321h198v-170h-198v170z
" />
    <glyph glyph-name="aring" unicode="&#xe5;" horiz-adv-x="1136" 
d="M811 584l0.00585938 37.999c0 54 -5.5 99.333 -16.5 136s-27.333 66.334 -49 89.001s-48.834 38.834 -81.501 48.501s-70.667 14.5 -114 14.5c-27.333 0 -54.833 -1.83301 -82.5 -5.5s-54.667 -8.83398 -81 -15.501s-51.333 -14.167 -75 -22.5
s-44.834 -17.166 -63.501 -26.499l-38 98c22 12.667 47 24 75 34s57.333 18.5 88 25.5s62.167 12.5 94.5 16.5s63.833 6 94.5 6c58 0 110.833 -6 158.5 -18s88.167 -33 121.5 -63s59.166 -70.667 77.499 -122s27.5 -116.333 27.5 -195v-622h-98l-23 113
c-12.667 -10 -30.834 -22.5 -54.501 -37.5s-52 -29.5 -85 -43.5s-70.333 -26.167 -112 -36.5s-86.834 -15.5 -135.501 -15.5c-52.667 0 -98.334 7.83301 -137.001 23.5s-70.5 37 -95.5 64s-43.5 58.5 -55.5 94.5s-18 74 -18 114c0 40.667 10 79.667 30 117
s48 70.166 84 98.499s79.167 50.833 129.5 67.5s105.833 25 166.5 25h268zM469.006 89.999c45.333 0 87.3311 5.50195 125.998 16.502s72.667 23.833 102 38.5s53.833 29.167 73.5 43.5s33.167 24.833 40.5 31.5v264h-245c-58 0 -106.167 -7.16699 -144.5 -21.5
s-68.666 -32.5 -90.999 -54.5s-38.166 -46.333 -47.499 -73s-14 -52.334 -14 -77.001c0 -26.667 5.16699 -50.334 15.5 -71.001s24.5 -38.167 42.5 -52.5s39.167 -25.333 63.5 -33s50.5 -11.5 78.5 -11.5zM589.004 1539c30 0 58.167 -5.16699 84.5 -15.5
s49.5 -24.333 69.5 -42s35.833 -38.167 47.5 -61.5s17.5 -48.333 17.5 -75c0 -27.333 -5.83301 -52.333 -17.5 -75s-27.5 -42.5 -47.5 -59.5s-43.167 -30.167 -69.5 -39.5s-54.5 -14 -84.5 -14s-58.5 4.66699 -85.5 14s-50.667 22.5 -71 39.5s-36.5 36.833 -48.5 59.5
s-18 47.667 -18 75c0 26.667 6 51.667 18 75s28.167 43.833 48.5 61.5s44 31.667 71 42s55.5 15.5 85.5 15.5zM589.004 1267c25.333 0 45.666 7.66895 60.999 23.002s23 33.666 23 54.999c0 22 -7.66699 41.5 -23 58.5s-35.666 25.5 -60.999 25.5
c-11.333 0 -22.333 -2.33301 -33 -7s-20.167 -10.834 -28.5 -18.501s-15 -16.667 -20 -27s-7.5 -20.833 -7.5 -31.5s2.5 -20.667 7.5 -30s11.667 -17.5 20 -24.5s17.833 -12.667 28.5 -17s21.667 -6.5 33 -6.5z" />
    <glyph glyph-name="ae" unicode="&#xe6;" horiz-adv-x="1804" 
d="M818 552l-0.000976562 69.998c0 54 -5.5 98.667 -16.5 134s-27.333 63.5 -49 84.5s-48.834 35.833 -81.501 44.5s-70.667 13 -114 13c-27.333 0 -55.666 -2.16699 -84.999 -6.5s-58 -9.83301 -86 -16.5s-54.5 -14.167 -79.5 -22.5s-46.167 -16.5 -63.5 -24.5l-48 102
c24 12 50.667 23.5 80 34.5s60.333 20.5 93 28.5s66 14.5 100 19.5s68 7.5 102 7.5c42.667 0 82 -2.83301 118 -8.5s68.5 -15 97.5 -28s54.333 -30.167 76 -51.5s39.5 -48 53.5 -80c38.667 54.667 87.667 96.334 147 125.001s129 43 209 43
c58.667 0 112.334 -8.66699 161.001 -26s90.5 -42.833 125.5 -76.5s62.167 -75 81.5 -124s29 -104.833 29 -167.5v-110h-712v-24c0 -63.333 7.16699 -120 21.5 -170s36 -92.167 65 -126.5s65.333 -60.5 109 -78.5s94.5 -27 152.5 -27c38.667 0 73.167 2.16699 103.5 6.5
s57.666 9.66602 81.999 15.999s45.833 13.166 64.5 20.499s35.334 14.333 50.001 21l41 -102c-40.667 -22 -90 -39.5 -148 -52.5s-120.333 -19.5 -187 -19.5c-85.333 0 -159.333 12.333 -222 37s-114.667 61 -156 109l-73.5 -43.5c-28.333 -17 -62 -33 -101 -48
s-84 -27.833 -135 -38.5s-109.5 -16 -175.5 -16c-53.333 0 -99.333 7.33301 -138 22s-70.667 35 -96 61s-44 56.333 -56 91s-18 72 -18 112c0 40.667 9.33301 78.334 28 113.001s44.667 64.834 78 90.501s73 45.834 119 60.501s96.667 22 152 22h302zM478.999 89.998
c40.667 0 78.499 3 113.499 9s66.833 13.5 95.5 22.5s53.834 18.5 75.501 28.5s39.834 19.333 54.501 28v276h-278c-52 0 -95 -5.16699 -129 -15.5s-61.167 -24.666 -81.5 -42.999s-34.5 -40 -42.5 -65s-12 -52.5 -12 -82.5c0 -26.667 5.16699 -49.834 15.5 -69.501
s24.666 -36 42.999 -49s39.833 -22.833 64.5 -29.5s51.667 -10 81 -10zM1278 909.998c-42 0 -80.667 -4.66797 -116 -14.001s-66.333 -25 -93 -47s-48.834 -51.167 -66.501 -87.5s-30.5 -81.5 -38.5 -135.5h568c0 50.667 -7 93.834 -21 129.501s-32.833 65 -56.5 88
s-50.667 39.833 -81 50.5s-62.166 16 -95.499 16z" />
    <glyph glyph-name="ccedilla" unicode="&#xe7;" horiz-adv-x="1004" 
d="M148 502c0 78.667 10.834 149.831 32.501 213.498s53.334 118 95.001 163s92.834 79.833 153.501 104.5s129.667 37 207 37c64 0 118.5 -4.66699 163.5 -14s83.5 -22.666 115.5 -39.999l-50 -98l-39 14.5c-13.333 5 -28.5 9.5 -45.5 13.5s-36.333 7.33301 -58 10
s-46.834 4 -75.501 4c-54 0 -103.333 -7.83301 -148 -23.5s-83 -40 -115 -73s-56.667 -75.333 -74 -127s-26 -113.167 -26 -184.5s8.5 -133 25.5 -185s41.167 -94.833 72.5 -128.5s69.166 -58.5 113.499 -74.5s93.5 -24 147.5 -24c59.333 0 110.333 5.5 153 16.5
s79.334 23.5 110.001 37.5l54 -98c-32.667 -21.333 -73.834 -37.666 -123.501 -48.999s-108.167 -17 -175.5 -17c-81.333 0 -153.833 12.5 -217.5 37.5s-117.334 60.333 -161.001 106s-77 100.5 -100 164.5s-34.5 135.333 -34.5 214zM734.001 11.9971
c11.333 -21.333 19.834 -43.002 25.501 -65.002s8.5 -43.667 8.5 -65c0 -33.333 -6.83301 -65.166 -20.5 -95.499s-34.334 -56.833 -62.001 -79.5s-62.167 -40.167 -103.5 -52.5s-90 -17.166 -146 -14.499l-21 86c42 0.666992 77.5 5 106.5 13s52.5 18.833 70.5 32.5
s30.833 29.5 38.5 47.5s11.5 37.333 11.5 58c0 23.333 -4.16699 47.5 -12.5 72.5s-19.5 49.833 -33.5 74.5z" />
    <glyph glyph-name="egrave" unicode="&#xe8;" horiz-adv-x="1145" 
d="M282 516l-0.00195312 -23.9971c0 -63.333 7.16699 -120 21.5 -170s36 -92.167 65 -126.5s65.333 -60.5 109 -78.5s94.5 -27 152.5 -27c38.667 0 73.167 2.16699 103.5 6.5s57.666 9.66602 81.999 15.999s45.833 13.166 64.5 20.499s35.334 14.333 50.001 21l41 -102
c-40.667 -22 -90 -39.5 -148 -52.5s-120.333 -19.5 -187 -19.5c-81.333 0 -152.5 11.5 -213.5 34.5s-112 56.333 -153 100s-71.833 97.167 -92.5 160.5s-31 135.666 -31 216.999c0 83.333 10 157.833 30 223.5s49.333 121 88 166s85.834 79.333 141.501 103
s119.5 35.5 191.5 35.5c58.667 0 112.334 -8.66699 161.001 -26s90.5 -42.833 125.5 -76.5s62.167 -75 81.5 -124s29 -104.833 29 -167.5v-110h-712zM603.998 910.003c-42 0 -80.667 -4.66797 -116 -14.001s-66.333 -25 -93 -47s-48.834 -51.167 -66.501 -87.5
s-30.5 -81.5 -38.5 -135.5h568c0 50.667 -7 93.834 -21 129.501s-32.833 65 -56.5 88s-50.667 39.833 -81 50.5s-62.166 16 -95.499 16zM657.998 1184l-107 -34l-270 248l158 66z" />
    <glyph glyph-name="eacute" unicode="&#xe9;" horiz-adv-x="1145" 
d="M282 516l-0.00195312 -23.9971c0 -63.333 7.16699 -120 21.5 -170s36 -92.167 65 -126.5s65.333 -60.5 109 -78.5s94.5 -27 152.5 -27c38.667 0 73.167 2.16699 103.5 6.5s57.666 9.66602 81.999 15.999s45.833 13.166 64.5 20.499s35.334 14.333 50.001 21l41 -102
c-40.667 -22 -90 -39.5 -148 -52.5s-120.333 -19.5 -187 -19.5c-81.333 0 -152.5 11.5 -213.5 34.5s-112 56.333 -153 100s-71.833 97.167 -92.5 160.5s-31 135.666 -31 216.999c0 83.333 10 157.833 30 223.5s49.333 121 88 166s85.834 79.333 141.501 103
s119.5 35.5 191.5 35.5c58.667 0 112.334 -8.66699 161.001 -26s90.5 -42.833 125.5 -76.5s62.167 -75 81.5 -124s29 -104.833 29 -167.5v-110h-712zM603.998 910.003c-42 0 -80.667 -4.66797 -116 -14.001s-66.333 -25 -93 -47s-48.834 -51.167 -66.501 -87.5
s-30.5 -81.5 -38.5 -135.5h568c0 50.667 -7 93.834 -21 129.501s-32.833 65 -56.5 88s-50.667 39.833 -81 50.5s-62.166 16 -95.499 16zM751.998 1466l157 -66l-268 -248l-110 40z" />
    <glyph glyph-name="ecircumflex" unicode="&#xea;" horiz-adv-x="1145" 
d="M282 516l-0.00195312 -23.9971c0 -63.333 7.16699 -120 21.5 -170s36 -92.167 65 -126.5s65.333 -60.5 109 -78.5s94.5 -27 152.5 -27c38.667 0 73.167 2.16699 103.5 6.5s57.666 9.66602 81.999 15.999s45.833 13.166 64.5 20.499s35.334 14.333 50.001 21l41 -102
c-40.667 -22 -90 -39.5 -148 -52.5s-120.333 -19.5 -187 -19.5c-81.333 0 -152.5 11.5 -213.5 34.5s-112 56.333 -153 100s-71.833 97.167 -92.5 160.5s-31 135.666 -31 216.999c0 83.333 10 157.833 30 223.5s49.333 121 88 166s85.834 79.333 141.501 103
s119.5 35.5 191.5 35.5c58.667 0 112.334 -8.66699 161.001 -26s90.5 -42.833 125.5 -76.5s62.167 -75 81.5 -124s29 -104.833 29 -167.5v-110h-712zM603.998 910.003c-42 0 -80.667 -4.66797 -116 -14.001s-66.333 -25 -93 -47s-48.834 -51.167 -66.501 -87.5
s-30.5 -81.5 -38.5 -135.5h568c0 50.667 -7 93.834 -21 129.501s-32.833 65 -56.5 88s-50.667 39.833 -81 50.5s-62.166 16 -95.499 16zM448.998 1150h-188l306 232h104l305 -232h-190l-168 119z" />
    <glyph glyph-name="edieresis" unicode="&#xeb;" horiz-adv-x="1145" 
d="M282 516l-0.00195312 -23.9971c0 -63.333 7.16699 -120 21.5 -170s36 -92.167 65 -126.5s65.333 -60.5 109 -78.5s94.5 -27 152.5 -27c38.667 0 73.167 2.16699 103.5 6.5s57.666 9.66602 81.999 15.999s45.833 13.166 64.5 20.499s35.334 14.333 50.001 21l41 -102
c-40.667 -22 -90 -39.5 -148 -52.5s-120.333 -19.5 -187 -19.5c-81.333 0 -152.5 11.5 -213.5 34.5s-112 56.333 -153 100s-71.833 97.167 -92.5 160.5s-31 135.666 -31 216.999c0 83.333 10 157.833 30 223.5s49.333 121 88 166s85.834 79.333 141.501 103
s119.5 35.5 191.5 35.5c58.667 0 112.334 -8.66699 161.001 -26s90.5 -42.833 125.5 -76.5s62.167 -75 81.5 -124s29 -104.833 29 -167.5v-110h-712zM603.998 910.003c-42 0 -80.667 -4.66797 -116 -14.001s-66.333 -25 -93 -47s-48.834 -51.167 -66.501 -87.5
s-30.5 -81.5 -38.5 -135.5h568c0 50.667 -7 93.834 -21 129.501s-32.833 65 -56.5 88s-50.667 39.833 -81 50.5s-62.166 16 -95.499 16zM274.998 1321h197v-170h-197v170zM757.998 1321h198v-170h-198v170z" />
    <glyph glyph-name="igrave" unicode="&#xec;" horiz-adv-x="377" 
d="M132 1000h136v-1000h-136v1000zM257 1171l-107 -34l-270 248l158 66z" />
    <glyph glyph-name="iacute" unicode="&#xed;" horiz-adv-x="377" 
d="M132 1000h136v-1000h-136v1000zM351 1453l157 -66l-268 -248l-110 40z" />
    <glyph glyph-name="icircumflex" unicode="&#xee;" horiz-adv-x="377" 
d="M132 1000h136v-1000h-136v1000zM48 1138h-188l306 232h104l305 -232h-190l-168 119z" />
    <glyph glyph-name="idieresis" unicode="&#xef;" horiz-adv-x="377" 
d="M132 1000h136v-1000h-136v1000zM-126 1308h197v-170h-197v170zM357 1308h198v-170h-198v170z" />
    <glyph glyph-name="eth" unicode="&#xf0;" horiz-adv-x="1257" 
d="M537 1088l217.996 96.001c-40 29.333 -84.167 51 -132.5 65s-100.166 21 -155.499 21l13 110c78.667 0 151 -12.333 217 -37s125 -60 177 -106l230 101l50 -88l-206 -92c52.667 -68.667 93.167 -150.334 121.5 -245.001s42.5 -200.334 42.5 -317.001
c0 -92.667 -10.5 -176.667 -31.5 -252s-52.167 -139.666 -93.5 -192.999s-92.333 -94.5 -153 -123.5s-131 -43.5 -211 -43.5c-75.333 0 -142.166 12.833 -200.499 38.5s-107.166 59.167 -146.499 100.5s-69.166 88.166 -89.499 140.499s-30.5 105.166 -30.5 158.499
c0 70.667 9 134.5 27 191.5s45.333 105.333 82 145s82.667 70.167 138 91.5s120 32 194 32c34 0 68.833 -3.66699 104.5 -11s70 -17.666 103 -30.999s63.833 -29.666 92.5 -48.999s53 -41.333 73 -66c-8 84 -23.5 157.667 -46.5 221s-52.5 117 -88.5 161l-244 -109z
M601.996 94.001c58 0 109.999 9.50195 155.999 28.502s85 48.5 117 88.5s56.667 91 74 153s26.333 136.333 27 223c-26 36 -54.833 66 -86.5 90s-64.667 43 -99 57s-69.333 23.833 -105 29.5s-70.167 8.5 -103.5 8.5c-52 0 -96.5 -9.66699 -133.5 -29s-67 -45.333 -90 -78
s-39.833 -70.667 -50.5 -114s-16 -89 -16 -137c0 -41.333 6.66699 -81.333 20 -120s33 -72.834 59 -102.501s58.333 -53.334 97 -71.001s83.334 -26.5 134.001 -26.5z" />
    <glyph glyph-name="ntilde" unicode="&#xf1;" horiz-adv-x="1221" 
d="M212 1000l125.002 -0.000976562l9 -113c50 44 105 77.167 165 99.5s124.333 33.5 193 33.5c59.333 0 109.833 -7.16699 151.5 -21.5s75.5 -36.166 101.5 -65.499s44.833 -66.5 56.5 -111.5s17.5 -98.167 17.5 -159.5v-662h-136v662c0 46.667 -4.66699 85.834 -14 117.501
s-23.333 57.167 -42 76.5s-41.5 33.166 -68.5 41.499s-58.5 12.5 -94.5 12.5c-64.667 0 -124.334 -11.333 -179.001 -34s-104.334 -52 -149.001 -88v-788h-136v1000zM761.002 1274c23.333 0 46.6699 8.16797 70.0029 24.501s40.666 40.166 51.999 71.499l97 -66
c-9.33301 -24 -21.5 -45.333 -36.5 -64s-31.333 -34.667 -49 -48s-36 -24 -55 -32s-37.167 -13.333 -54.5 -16c-13.333 -2.66699 -27.333 -4 -42 -4c-35.333 0 -67.5 7.66699 -96.5 23s-57.167 32.333 -84.5 51c-20.667 15.333 -39.834 26.5 -57.501 33.5
s-33.167 10.5 -46.5 10.5c-11.333 -0.666992 -21.666 -2.16699 -30.999 -4.5s-18.666 -6.83301 -27.999 -13.5s-18.833 -16 -28.5 -28s-20.167 -27.333 -31.5 -46l-96 60c8 23.333 19.333 44.333 34 63s31 34.667 49 48s36.667 24.333 56 33s37.666 14.667 54.999 18
c12 2 23.333 3 34 3c36.667 0 70 -7.83301 100 -23.5s58.667 -32.834 86 -51.501c19.333 -16 38.166 -26.667 56.499 -32s34.166 -8.66602 47.499 -9.99902z" />
    <glyph glyph-name="ograve" unicode="&#xf2;" horiz-adv-x="1213" 
d="M147 500c0 80.667 10.5 153 31.5 217s51.167 118.5 90.5 163.5s87.666 79.5 144.999 103.5s122 36 194 36s137.667 -12 197 -36s110.166 -58.5 152.499 -103.5s75.333 -99.5 99 -163.5s35.5 -136.333 35.5 -217c0 -81.333 -11.833 -154 -35.5 -218
s-56.667 -118.5 -99 -163.5s-93.166 -79.333 -152.499 -103s-125 -35.5 -197 -35.5s-136.667 11.833 -194 35.5s-105.666 58 -144.999 103s-69.5 99.5 -90.5 163.5s-31.5 136.667 -31.5 218zM283 500c0 -70.667 7.66699 -131.667 23 -183s37.333 -93.833 66 -127.5
s62.834 -58.667 102.501 -75s84.167 -24.5 133.5 -24.5c50 0 96.167 8.16699 138.5 24.5s79 41.333 110 75s55.333 76.167 73 127.5s26.5 112.333 26.5 183s-8.83301 131.834 -26.5 183.501s-42 94.334 -73 128.001s-67.667 58.5 -110 74.5s-88.5 24 -138.5 24
c-49.333 0 -93.833 -8 -133.5 -24s-73.834 -40.833 -102.501 -74.5s-50.667 -76.334 -66 -128.001s-23 -112.834 -23 -183.501zM664 1182l-107 -34l-270 248l158 66z" />
    <glyph glyph-name="oacute" unicode="&#xf3;" horiz-adv-x="1213" 
d="M147 500c0 80.667 10.5 153 31.5 217s51.167 118.5 90.5 163.5s87.666 79.5 144.999 103.5s122 36 194 36s137.667 -12 197 -36s110.166 -58.5 152.499 -103.5s75.333 -99.5 99 -163.5s35.5 -136.333 35.5 -217c0 -81.333 -11.833 -154 -35.5 -218
s-56.667 -118.5 -99 -163.5s-93.166 -79.333 -152.499 -103s-125 -35.5 -197 -35.5s-136.667 11.833 -194 35.5s-105.666 58 -144.999 103s-69.5 99.5 -90.5 163.5s-31.5 136.667 -31.5 218zM283 500c0 -70.667 7.66699 -131.667 23 -183s37.333 -93.833 66 -127.5
s62.834 -58.667 102.501 -75s84.167 -24.5 133.5 -24.5c50 0 96.167 8.16699 138.5 24.5s79 41.333 110 75s55.333 76.167 73 127.5s26.5 112.333 26.5 183s-8.83301 131.834 -26.5 183.501s-42 94.334 -73 128.001s-67.667 58.5 -110 74.5s-88.5 24 -138.5 24
c-49.333 0 -93.833 -8 -133.5 -24s-73.834 -40.833 -102.501 -74.5s-50.667 -76.334 -66 -128.001s-23 -112.834 -23 -183.501zM758 1464l157 -66l-268 -248l-110 40z" />
    <glyph glyph-name="ocircumflex" unicode="&#xf4;" horiz-adv-x="1213" 
d="M147 500c0 80.667 10.5 153 31.5 217s51.167 118.5 90.5 163.5s87.666 79.5 144.999 103.5s122 36 194 36s137.667 -12 197 -36s110.166 -58.5 152.499 -103.5s75.333 -99.5 99 -163.5s35.5 -136.333 35.5 -217c0 -81.333 -11.833 -154 -35.5 -218
s-56.667 -118.5 -99 -163.5s-93.166 -79.333 -152.499 -103s-125 -35.5 -197 -35.5s-136.667 11.833 -194 35.5s-105.666 58 -144.999 103s-69.5 99.5 -90.5 163.5s-31.5 136.667 -31.5 218zM283 500c0 -70.667 7.66699 -131.667 23 -183s37.333 -93.833 66 -127.5
s62.834 -58.667 102.501 -75s84.167 -24.5 133.5 -24.5c50 0 96.167 8.16699 138.5 24.5s79 41.333 110 75s55.333 76.167 73 127.5s26.5 112.333 26.5 183s-8.83301 131.834 -26.5 183.501s-42 94.334 -73 128.001s-67.667 58.5 -110 74.5s-88.5 24 -138.5 24
c-49.333 0 -93.833 -8 -133.5 -24s-73.834 -40.833 -102.501 -74.5s-50.667 -76.334 -66 -128.001s-23 -112.834 -23 -183.501zM455 1148h-188l306 232h104l305 -232h-190l-168 119z" />
    <glyph glyph-name="otilde" unicode="&#xf5;" horiz-adv-x="1213" 
d="M147 500c0 80.667 10.5 153 31.5 217s51.167 118.5 90.5 163.5s87.666 79.5 144.999 103.5s122 36 194 36s137.667 -12 197 -36s110.166 -58.5 152.499 -103.5s75.333 -99.5 99 -163.5s35.5 -136.333 35.5 -217c0 -81.333 -11.833 -154 -35.5 -218
s-56.667 -118.5 -99 -163.5s-93.166 -79.333 -152.499 -103s-125 -35.5 -197 -35.5s-136.667 11.833 -194 35.5s-105.666 58 -144.999 103s-69.5 99.5 -90.5 163.5s-31.5 136.667 -31.5 218zM283 500c0 -70.667 7.66699 -131.667 23 -183s37.333 -93.833 66 -127.5
s62.834 -58.667 102.501 -75s84.167 -24.5 133.5 -24.5c50 0 96.167 8.16699 138.5 24.5s79 41.333 110 75s55.333 76.167 73 127.5s26.5 112.333 26.5 183s-8.83301 131.834 -26.5 183.501s-42 94.334 -73 128.001s-67.667 58.5 -110 74.5s-88.5 24 -138.5 24
c-49.333 0 -93.833 -8 -133.5 -24s-73.834 -40.833 -102.501 -74.5s-50.667 -76.334 -66 -128.001s-23 -112.834 -23 -183.501zM753 1272c23.333 0 46.6699 8.16797 70.0029 24.501s40.666 40.166 51.999 71.499l97 -66c-9.33301 -24 -21.5 -45.333 -36.5 -64
s-31.333 -34.667 -49 -48s-36 -24 -55 -32s-37.167 -13.333 -54.5 -16c-13.333 -2.66699 -27.333 -4 -42 -4c-35.333 0 -67.5 7.66699 -96.5 23s-57.167 32.333 -84.5 51c-20.667 15.333 -39.834 26.5 -57.501 33.5s-33.167 10.5 -46.5 10.5
c-11.333 -0.666992 -21.666 -2.16699 -30.999 -4.5s-18.666 -6.83301 -27.999 -13.5s-18.833 -16 -28.5 -28s-20.167 -27.333 -31.5 -46l-96 60c8 23.333 19.333 44.333 34 63s31 34.667 49 48s36.667 24.333 56 33s37.666 14.667 54.999 18c12 2 23.333 3 34 3
c36.667 0 70 -7.83301 100 -23.5s58.667 -32.834 86 -51.501c19.333 -16 38.166 -26.667 56.499 -32s34.166 -8.66602 47.499 -9.99902z" />
    <glyph glyph-name="odieresis" unicode="&#xf6;" horiz-adv-x="1213" 
d="M147 500c0 80.667 10.5 153 31.5 217s51.167 118.5 90.5 163.5s87.666 79.5 144.999 103.5s122 36 194 36s137.667 -12 197 -36s110.166 -58.5 152.499 -103.5s75.333 -99.5 99 -163.5s35.5 -136.333 35.5 -217c0 -81.333 -11.833 -154 -35.5 -218
s-56.667 -118.5 -99 -163.5s-93.166 -79.333 -152.499 -103s-125 -35.5 -197 -35.5s-136.667 11.833 -194 35.5s-105.666 58 -144.999 103s-69.5 99.5 -90.5 163.5s-31.5 136.667 -31.5 218zM283 500c0 -70.667 7.66699 -131.667 23 -183s37.333 -93.833 66 -127.5
s62.834 -58.667 102.501 -75s84.167 -24.5 133.5 -24.5c50 0 96.167 8.16699 138.5 24.5s79 41.333 110 75s55.333 76.167 73 127.5s26.5 112.333 26.5 183s-8.83301 131.834 -26.5 183.501s-42 94.334 -73 128.001s-67.667 58.5 -110 74.5s-88.5 24 -138.5 24
c-49.333 0 -93.833 -8 -133.5 -24s-73.834 -40.833 -102.501 -74.5s-50.667 -76.334 -66 -128.001s-23 -112.834 -23 -183.501zM281 1319h197v-170h-197v170zM764 1319h198v-170h-198v170z" />
    <glyph glyph-name="divide" unicode="&#xf7;" horiz-adv-x="1065" 
d="M112 552v110h844v-110h-844zM448 966h165v-166h-165v166zM448 378h165v-166h-165v166z" />
    <glyph glyph-name="oslash" unicode="&#xf8;" horiz-adv-x="1203" 
d="M116 500c0 80.667 10.5 153.001 31.5 217.001s51.167 118.5 90.5 163.5s87.666 79.5 144.999 103.5s122 36 194 36c60.667 0 117 -8.66699 169 -26s98.333 -42.333 139 -75l71 81h145l-140 -161c32 -43.333 56.667 -93.333 74 -150s26 -119.667 26 -189
c0 -81.333 -11.833 -154 -35.5 -218s-56.667 -118.5 -99 -163.5s-93.166 -79.333 -152.499 -103s-125 -35.5 -197 -35.5c-58 0 -110.833 7.5 -158.5 22.5s-90.167 37.167 -127.5 66.5l-60 -69h-143l127 146c-32 44 -56.5 95.667 -73.5 155s-25.5 125.666 -25.5 198.999z
M252 500.001c0 -105.333 16.668 -189.665 50.001 -252.998l506 582c-30.667 28 -65.5 48.5 -104.5 61.5s-81.167 19.5 -126.5 19.5c-49.333 0 -93.833 -8 -133.5 -24s-73.834 -40.833 -102.501 -74.5s-50.667 -76.334 -66 -128.001s-23 -112.834 -23 -183.501z
M925.001 500.002c0 50 -4.33301 94.668 -13 134.001s-21 74.666 -37 105.999l-505 -580c53.333 -46.667 122.333 -70 207 -70c50 0 96.167 8.16699 138.5 24.5s79 41.333 110 75s55.333 76.167 73 127.5s26.5 112.333 26.5 183z" />
    <glyph glyph-name="ugrave" unicode="&#xf9;" horiz-adv-x="1221" 
d="M1031 0h-136.001v117c-52 -44 -109.5 -77.833 -172.5 -101.5s-128.5 -35.5 -196.5 -35.5c-50.667 0 -95.5 5.5 -134.5 16.5s-71.833 30 -98.5 57s-46.834 63.5 -60.501 109.5s-20.5 104.333 -20.5 175v662h136v-662c0 -46 3.83301 -84.833 11.5 -116.5
s19.834 -57.167 36.501 -76.5s37.834 -33.333 63.501 -42s56.5 -13 92.5 -13c62 0 122 11.333 180 34s112.333 52 163 88v788h136v-1000zM671.999 1164l-107 -34l-270 248l158 66z" />
    <glyph glyph-name="uacute" unicode="&#xfa;" horiz-adv-x="1221" 
d="M1031 0h-136.001v117c-52 -44 -109.5 -77.833 -172.5 -101.5s-128.5 -35.5 -196.5 -35.5c-50.667 0 -95.5 5.5 -134.5 16.5s-71.833 30 -98.5 57s-46.834 63.5 -60.501 109.5s-20.5 104.333 -20.5 175v662h136v-662c0 -46 3.83301 -84.833 11.5 -116.5
s19.834 -57.167 36.501 -76.5s37.834 -33.333 63.501 -42s56.5 -13 92.5 -13c62 0 122 11.333 180 34s112.333 52 163 88v788h136v-1000zM765.999 1446l157 -66l-268 -248l-110 40z" />
    <glyph glyph-name="ucircumflex" unicode="&#xfb;" horiz-adv-x="1221" 
d="M1031 0h-136.001v117c-52 -44 -109.5 -77.833 -172.5 -101.5s-128.5 -35.5 -196.5 -35.5c-50.667 0 -95.5 5.5 -134.5 16.5s-71.833 30 -98.5 57s-46.834 63.5 -60.501 109.5s-20.5 104.333 -20.5 175v662h136v-662c0 -46 3.83301 -84.833 11.5 -116.5
s19.834 -57.167 36.501 -76.5s37.834 -33.333 63.501 -42s56.5 -13 92.5 -13c62 0 122 11.333 180 34s112.333 52 163 88v788h136v-1000zM462.999 1131h-188l306 232h104l305 -232h-190l-168 119z" />
    <glyph glyph-name="udieresis" unicode="&#xfc;" horiz-adv-x="1221" 
d="M1031 0h-136.001v117c-52 -44 -109.5 -77.833 -172.5 -101.5s-128.5 -35.5 -196.5 -35.5c-50.667 0 -95.5 5.5 -134.5 16.5s-71.833 30 -98.5 57s-46.834 63.5 -60.501 109.5s-20.5 104.333 -20.5 175v662h136v-662c0 -46 3.83301 -84.833 11.5 -116.5
s19.834 -57.167 36.501 -76.5s37.834 -33.333 63.501 -42s56.5 -13 92.5 -13c62 0 122 11.333 180 34s112.333 52 163 88v788h136v-1000zM288.999 1301h197v-170h-197v170zM771.999 1301h198v-170h-198v170z" />
    <glyph glyph-name="yacute" unicode="&#xfd;" horiz-adv-x="1063" 
d="M595 -50c-23.333 -70.667 -46.1699 -129.169 -68.5029 -175.502s-46.666 -83.166 -72.999 -110.499s-56.333 -46.5 -90 -57.5s-73.5 -16.5 -119.5 -16.5c-18 0 -36.5 1.33301 -55.5 4s-35.167 6.66699 -48.5 12l16 106c2.66699 0 7.83398 -0.666992 15.501 -2
s16 -2.66602 25 -3.99902l26.5 -4c8.66699 -1.33301 15 -2 19 -2c26.667 0 49.334 3.33301 68.001 10s36 19 52 37s32 43.333 48 76s34.333 75 55 127l-379 1050h140l302 -880l315 880h139l-389 -1050h2zM686.996 1446l157 -66l-268 -248l-110 40z" />
    <glyph glyph-name="thorn" unicode="&#xfe;" horiz-adv-x="1113" 
d="M132 1400l135.999 0.000976562v-474c18.667 15.333 38.334 28.833 59.001 40.5s43 21.5 67 29.5s50.5 14 79.5 18s61.5 6 97.5 6c65.333 0 124.5 -12.167 177.5 -36.5s98.333 -59 136 -104s66.834 -99.167 87.501 -162.5s31 -134.333 31 -213
s-10.333 -150.167 -31 -214.5s-49.834 -119.5 -87.501 -165.5s-83 -81.5 -136 -106.5s-112.167 -37.5 -177.5 -37.5c-34.667 0 -66.167 2 -94.5 6s-54.833 9.83301 -79.5 17.5s-47.5 17.167 -68.5 28.5s-41.167 24.666 -60.5 39.999v-472h-136v1800zM866.999 504.001
c0 132 -28.167 232.668 -84.5 302.001s-142.833 104 -259.5 104c-46.667 0 -92.334 -7 -137.001 -21s-84 -31.667 -118 -53v-673c34 -21.333 73.333 -38.833 118 -52.5s90.334 -20.5 137.001 -20.5c116.667 0 203.167 35.667 259.5 107s84.5 173.666 84.5 306.999z" />
    <glyph glyph-name="ydieresis" unicode="&#xff;" horiz-adv-x="1063" 
d="M595 -50c-23.333 -70.667 -46.1699 -129.169 -68.5029 -175.502s-46.666 -83.166 -72.999 -110.499s-56.333 -46.5 -90 -57.5s-73.5 -16.5 -119.5 -16.5c-18 0 -36.5 1.33301 -55.5 4s-35.167 6.66699 -48.5 12l16 106c2.66699 0 7.83398 -0.666992 15.501 -2
s16 -2.66602 25 -3.99902l26.5 -4c8.66699 -1.33301 15 -2 19 -2c26.667 0 49.334 3.33301 68.001 10s36 19 52 37s32 43.333 48 76s34.333 75 55 127l-379 1050h140l302 -880l315 880h139l-389 -1050h2zM209.996 1301h197v-170h-197v170zM692.996 1301h198v-170h-198v170z
" />
    <glyph glyph-name="Amacron" unicode="&#x100;" horiz-adv-x="1375" 
d="M982 422h-581l-157 -422h-142l513 1360h148l519 -1360h-142zM442 532h499l-249 667zM305 1618h772v-108h-772v108z" />
    <glyph glyph-name="amacron" unicode="&#x101;" horiz-adv-x="1136" 
d="M811 584l0.00585938 37.999c0 54 -5.5 99.333 -16.5 136s-27.333 66.334 -49 89.001s-48.834 38.834 -81.501 48.501s-70.667 14.5 -114 14.5c-27.333 0 -54.833 -1.83301 -82.5 -5.5s-54.667 -8.83398 -81 -15.501s-51.333 -14.167 -75 -22.5
s-44.834 -17.166 -63.501 -26.499l-38 98c22 12.667 47 24 75 34s57.333 18.5 88 25.5s62.167 12.5 94.5 16.5s63.833 6 94.5 6c58 0 110.833 -6 158.5 -18s88.167 -33 121.5 -63s59.166 -70.667 77.499 -122s27.5 -116.333 27.5 -195v-622h-98l-23 113
c-12.667 -10 -30.834 -22.5 -54.501 -37.5s-52 -29.5 -85 -43.5s-70.333 -26.167 -112 -36.5s-86.834 -15.5 -135.501 -15.5c-52.667 0 -98.334 7.83301 -137.001 23.5s-70.5 37 -95.5 64s-43.5 58.5 -55.5 94.5s-18 74 -18 114c0 40.667 10 79.667 30 117
s48 70.166 84 98.499s79.167 50.833 129.5 67.5s105.833 25 166.5 25h268zM469.006 89.999c45.333 0 87.3311 5.50195 125.998 16.502s72.667 23.833 102 38.5s53.833 29.167 73.5 43.5s33.167 24.833 40.5 31.5v264h-245c-58 0 -106.167 -7.16699 -144.5 -21.5
s-68.666 -32.5 -90.999 -54.5s-38.166 -46.333 -47.499 -73s-14 -52.334 -14 -77.001c0 -26.667 5.16699 -50.334 15.5 -71.001s24.5 -38.167 42.5 -52.5s39.167 -25.333 63.5 -33s50.5 -11.5 78.5 -11.5zM199.004 1297h772v-108h-772v108z" />
    <glyph glyph-name="Abreve" unicode="&#x102;" horiz-adv-x="1375" 
d="M982 422h-581l-157 -422h-142l513 1360h148l519 -1360h-142zM442 532h499l-249 667zM694 1478c-51.333 -0.666992 -98.333 3.83301 -141 13.5s-79.5 24.334 -110.5 44.001s-55.167 44 -72.5 73s-26 62.833 -26 101.5h136c0 -41.333 18 -74.333 54 -99s89.333 -37 160 -37
s124.167 12.333 160.5 37s54.5 57.667 54.5 99h132c0 -38.667 -8.66699 -72.5 -26 -101.5s-41.333 -53.333 -72 -73s-67.167 -34.334 -109.5 -44.001s-88.833 -14.167 -139.5 -13.5z" />
    <glyph glyph-name="abreve" unicode="&#x103;" horiz-adv-x="1136" 
d="M811 584l0.00585938 37.999c0 54 -5.5 99.333 -16.5 136s-27.333 66.334 -49 89.001s-48.834 38.834 -81.501 48.501s-70.667 14.5 -114 14.5c-27.333 0 -54.833 -1.83301 -82.5 -5.5s-54.667 -8.83398 -81 -15.501s-51.333 -14.167 -75 -22.5
s-44.834 -17.166 -63.501 -26.499l-38 98c22 12.667 47 24 75 34s57.333 18.5 88 25.5s62.167 12.5 94.5 16.5s63.833 6 94.5 6c58 0 110.833 -6 158.5 -18s88.167 -33 121.5 -63s59.166 -70.667 77.499 -122s27.5 -116.333 27.5 -195v-622h-98l-23 113
c-12.667 -10 -30.834 -22.5 -54.501 -37.5s-52 -29.5 -85 -43.5s-70.333 -26.167 -112 -36.5s-86.834 -15.5 -135.501 -15.5c-52.667 0 -98.334 7.83301 -137.001 23.5s-70.5 37 -95.5 64s-43.5 58.5 -55.5 94.5s-18 74 -18 114c0 40.667 10 79.667 30 117
s48 70.166 84 98.499s79.167 50.833 129.5 67.5s105.833 25 166.5 25h268zM469.006 89.999c45.333 0 87.3311 5.50195 125.998 16.502s72.667 23.833 102 38.5s53.833 29.167 73.5 43.5s33.167 24.833 40.5 31.5v264h-245c-58 0 -106.167 -7.16699 -144.5 -21.5
s-68.666 -32.5 -90.999 -54.5s-38.166 -46.333 -47.499 -73s-14 -52.334 -14 -77.001c0 -26.667 5.16699 -50.334 15.5 -71.001s24.5 -38.167 42.5 -52.5s39.167 -25.333 63.5 -33s50.5 -11.5 78.5 -11.5zM588.004 1156c-51.333 -0.666992 -98.333 3.83301 -141 13.5
s-79.5 24.334 -110.5 44.001s-55.167 44 -72.5 73s-26 62.833 -26 101.5h136c0 -41.333 18 -74.333 54 -99s89.333 -37 160 -37s124.167 12.333 160.5 37s54.5 57.667 54.5 99h132c0 -38.667 -8.66699 -72.5 -26 -101.5s-41.333 -53.333 -72 -73
s-67.167 -34.334 -109.5 -44.001s-88.833 -14.167 -139.5 -13.5z" />
    <glyph glyph-name="Aogonek" unicode="&#x104;" horiz-adv-x="1375" 
d="M982 422h-581l-157 -422h-142l513 1360h148l519 -1360h-142zM442 532h499l-249 667zM1279 0l-81.502 -34.4971c-26.333 -11.667 -49.5 -25 -69.5 -40s-36 -32.333 -48 -52s-18 -42.834 -18 -69.501c0 -11.333 2 -21.5 6 -30.5s9.33301 -16.667 16 -23
s14.334 -11.333 23.001 -15s17.334 -5.5 26.001 -5.5c10.667 0 19.334 0.333008 26.001 1s12.667 1.5 18 2.5s10.833 2.33301 16.5 4s12.5 3.83398 20.5 6.50098l22 -90c-4.66699 -2.66699 -11.334 -5.33398 -20.001 -8.00098s-18.834 -5 -30.501 -7s-24 -3.66699 -37 -5
s-25.833 -2 -38.5 -2c-28 0 -53.333 4 -76 12s-42 19.5 -58 34.5s-28.333 32.667 -37 53s-13 43.166 -13 68.499c0 32.667 7.83301 62.334 23.5 89.001s35.667 50.167 60 70.5s51.333 37.666 81 51.999s58.834 25.166 87.501 32.499l101 -40v-4z" />
    <glyph glyph-name="aogonek" unicode="&#x105;" horiz-adv-x="1136" 
d="M811 584l0.00585938 37.999c0 54 -5.5 99.333 -16.5 136s-27.333 66.334 -49 89.001s-48.834 38.834 -81.501 48.501s-70.667 14.5 -114 14.5c-27.333 0 -54.833 -1.83301 -82.5 -5.5s-54.667 -8.83398 -81 -15.501s-51.333 -14.167 -75 -22.5
s-44.834 -17.166 -63.501 -26.499l-38 98c22 12.667 47 24 75 34s57.333 18.5 88 25.5s62.167 12.5 94.5 16.5s63.833 6 94.5 6c58 0 110.833 -6 158.5 -18s88.167 -33 121.5 -63s59.166 -70.667 77.499 -122s27.5 -116.333 27.5 -195v-622h-98l-23 113
c-12.667 -10 -30.834 -22.5 -54.501 -37.5s-52 -29.5 -85 -43.5s-70.333 -26.167 -112 -36.5s-86.834 -15.5 -135.501 -15.5c-52.667 0 -98.334 7.83301 -137.001 23.5s-70.5 37 -95.5 64s-43.5 58.5 -55.5 94.5s-18 74 -18 114c0 40.667 10 79.667 30 117
s48 70.166 84 98.499s79.167 50.833 129.5 67.5s105.833 25 166.5 25h268zM469.006 89.999c45.333 0 87.3311 5.50195 125.998 16.502s72.667 23.833 102 38.5s53.833 29.167 73.5 43.5s33.167 24.833 40.5 31.5v264h-245c-58 0 -106.167 -7.16699 -144.5 -21.5
s-68.666 -32.5 -90.999 -54.5s-38.166 -46.333 -47.499 -73s-14 -52.334 -14 -77.001c0 -26.667 5.16699 -50.334 15.5 -71.001s24.5 -38.167 42.5 -52.5s39.167 -25.333 63.5 -33s50.5 -11.5 78.5 -11.5zM945.004 0.000976562l-81.502 -34.4971
c-26.333 -11.667 -49.5 -25 -69.5 -40s-36 -32.333 -48 -52s-18 -42.834 -18 -69.501c0 -11.333 2 -21.5 6 -30.5s9.33301 -16.667 16 -23s14.334 -11.333 23.001 -15s17.334 -5.5 26.001 -5.5c10.667 0 19.334 0.333008 26.001 1s12.667 1.5 18 2.5s10.833 2.33301 16.5 4
s12.5 3.83398 20.5 6.50098l22 -90c-4.66699 -2.66699 -11.334 -5.33398 -20.001 -8.00098s-18.834 -5 -30.501 -7s-24 -3.66699 -37 -5s-25.833 -2 -38.5 -2c-28 0 -53.333 4 -76 12s-42 19.5 -58 34.5s-28.333 32.667 -37 53s-13 43.166 -13 68.499
c0 32.667 7.83301 62.334 23.5 89.001s35.667 50.167 60 70.5s51.333 37.666 81 51.999s58.834 25.166 87.501 32.499l101 -40v-4z" />
    <glyph glyph-name="Cacute" unicode="&#x106;" 
d="M136 682c0 105.333 14.4971 201.003 43.4971 287.003s70.333 159.5 124 220.5s118.667 108 195 141s162.166 49.5 257.499 49.5c70.667 0 131 -7.33301 181 -22s92.667 -31 128 -49l-46 -95c-36 17.333 -77.5 31 -124.5 41s-95.5 15 -145.5 15
c-70 0 -134.167 -11.333 -192.5 -34s-108.666 -57.834 -150.999 -105.501s-75.166 -108.667 -98.499 -183s-35 -162.833 -35 -265.5c0 -103.333 12.667 -192.166 38 -266.499s60.833 -135.666 106.5 -183.999s99.834 -84 162.501 -107s131 -34.5 205 -34.5
c30.667 0 59.834 2.16699 87.501 6.5s53.167 9.66602 76.5 15.999s44.5 13.166 63.5 20.499s35.833 14.333 50.5 21l39 -92c-34.667 -23.333 -80 -42.833 -136 -58.5s-121.333 -23.5 -196 -23.5c-96.667 0 -184 16.833 -262 50.5s-144.5 81.167 -199.5 142.5
s-97.333 135.166 -127 221.499s-44.5 182.166 -44.5 287.499zM892.997 1806l157 -66l-268 -248l-110 40z" />
    <glyph glyph-name="cacute" unicode="&#x107;" horiz-adv-x="1004" 
d="M148 502c0 78.667 10.834 149.831 32.501 213.498s53.334 118 95.001 163s92.834 79.833 153.501 104.5s129.667 37 207 37c64 0 118.5 -4.66699 163.5 -14s83.5 -22.666 115.5 -39.999l-50 -98l-39 14.5c-13.333 5 -28.5 9.5 -45.5 13.5s-36.333 7.33301 -58 10
s-46.834 4 -75.501 4c-54 0 -103.333 -7.83301 -148 -23.5s-83 -40 -115 -73s-56.667 -75.333 -74 -127s-26 -113.167 -26 -184.5s8.5 -133 25.5 -185s41.167 -94.833 72.5 -128.5s69.166 -58.5 113.499 -74.5s93.5 -24 147.5 -24c59.333 0 110.333 5.5 153 16.5
s79.334 23.5 110.001 37.5l54 -98c-32.667 -21.333 -73.834 -37.666 -123.501 -48.999s-108.167 -17 -175.5 -17c-81.333 0 -153.833 12.5 -217.5 37.5s-117.334 60.333 -161.001 106s-77 100.5 -100 164.5s-34.5 135.333 -34.5 214zM764.001 1466l157 -66l-268 -248
l-110 40z" />
    <glyph glyph-name="Ccircumflex" unicode="&#x108;" 
d="M136 682c0 105.333 14.4971 201.003 43.4971 287.003s70.333 159.5 124 220.5s118.667 108 195 141s162.166 49.5 257.499 49.5c70.667 0 131 -7.33301 181 -22s92.667 -31 128 -49l-46 -95c-36 17.333 -77.5 31 -124.5 41s-95.5 15 -145.5 15
c-70 0 -134.167 -11.333 -192.5 -34s-108.666 -57.834 -150.999 -105.501s-75.166 -108.667 -98.499 -183s-35 -162.833 -35 -265.5c0 -103.333 12.667 -192.166 38 -266.499s60.833 -135.666 106.5 -183.999s99.834 -84 162.501 -107s131 -34.5 205 -34.5
c30.667 0 59.834 2.16699 87.501 6.5s53.167 9.66602 76.5 15.999s44.5 13.166 63.5 20.499s35.833 14.333 50.5 21l39 -92c-34.667 -23.333 -80 -42.833 -136 -58.5s-121.333 -23.5 -196 -23.5c-96.667 0 -184 16.833 -262 50.5s-144.5 81.167 -199.5 142.5
s-97.333 135.166 -127 221.499s-44.5 182.166 -44.5 287.499zM589.997 1490h-188l306 232h104l305 -232h-190l-168 119z" />
    <glyph glyph-name="ccircumflex" unicode="&#x109;" horiz-adv-x="1004" 
d="M148 502c0 78.667 10.834 149.831 32.501 213.498s53.334 118 95.001 163s92.834 79.833 153.501 104.5s129.667 37 207 37c64 0 118.5 -4.66699 163.5 -14s83.5 -22.666 115.5 -39.999l-50 -98l-39 14.5c-13.333 5 -28.5 9.5 -45.5 13.5s-36.333 7.33301 -58 10
s-46.834 4 -75.501 4c-54 0 -103.333 -7.83301 -148 -23.5s-83 -40 -115 -73s-56.667 -75.333 -74 -127s-26 -113.167 -26 -184.5s8.5 -133 25.5 -185s41.167 -94.833 72.5 -128.5s69.166 -58.5 113.499 -74.5s93.5 -24 147.5 -24c59.333 0 110.333 5.5 153 16.5
s79.334 23.5 110.001 37.5l54 -98c-32.667 -21.333 -73.834 -37.666 -123.501 -48.999s-108.167 -17 -175.5 -17c-81.333 0 -153.833 12.5 -217.5 37.5s-117.334 60.333 -161.001 106s-77 100.5 -100 164.5s-34.5 135.333 -34.5 214zM461.001 1150h-188l306 232h104
l305 -232h-190l-168 119z" />
    <glyph glyph-name="Cdotaccent" unicode="&#x10a;" 
d="M136 682c0 105.333 14.4971 201.003 43.4971 287.003s70.333 159.5 124 220.5s118.667 108 195 141s162.166 49.5 257.499 49.5c70.667 0 131 -7.33301 181 -22s92.667 -31 128 -49l-46 -95c-36 17.333 -77.5 31 -124.5 41s-95.5 15 -145.5 15
c-70 0 -134.167 -11.333 -192.5 -34s-108.666 -57.834 -150.999 -105.501s-75.166 -108.667 -98.499 -183s-35 -162.833 -35 -265.5c0 -103.333 12.667 -192.166 38 -266.499s60.833 -135.666 106.5 -183.999s99.834 -84 162.501 -107s131 -34.5 205 -34.5
c30.667 0 59.834 2.16699 87.501 6.5s53.167 9.66602 76.5 15.999s44.5 13.166 63.5 20.499s35.833 14.333 50.5 21l39 -92c-34.667 -23.333 -80 -42.833 -136 -58.5s-121.333 -23.5 -196 -23.5c-96.667 0 -184 16.833 -262 50.5s-144.5 81.167 -199.5 142.5
s-97.333 135.166 -127 221.499s-44.5 182.166 -44.5 287.499zM641.997 1654h178v-164h-178v164z" />
    <glyph glyph-name="cdotaccent" unicode="&#x10b;" horiz-adv-x="1004" 
d="M148 502c0 78.667 10.834 149.831 32.501 213.498s53.334 118 95.001 163s92.834 79.833 153.501 104.5s129.667 37 207 37c64 0 118.5 -4.66699 163.5 -14s83.5 -22.666 115.5 -39.999l-50 -98l-39 14.5c-13.333 5 -28.5 9.5 -45.5 13.5s-36.333 7.33301 -58 10
s-46.834 4 -75.501 4c-54 0 -103.333 -7.83301 -148 -23.5s-83 -40 -115 -73s-56.667 -75.333 -74 -127s-26 -113.167 -26 -184.5s8.5 -133 25.5 -185s41.167 -94.833 72.5 -128.5s69.166 -58.5 113.499 -74.5s93.5 -24 147.5 -24c59.333 0 110.333 5.5 153 16.5
s79.334 23.5 110.001 37.5l54 -98c-32.667 -21.333 -73.834 -37.666 -123.501 -48.999s-108.167 -17 -175.5 -17c-81.333 0 -153.833 12.5 -217.5 37.5s-117.334 60.333 -161.001 106s-77 100.5 -100 164.5s-34.5 135.333 -34.5 214zM513.001 1315h178v-164h-178v164z" />
    <glyph glyph-name="Ccaron" unicode="&#x10c;" 
d="M136 682c0 105.333 14.4971 201.003 43.4971 287.003s70.333 159.5 124 220.5s118.667 108 195 141s162.166 49.5 257.499 49.5c70.667 0 131 -7.33301 181 -22s92.667 -31 128 -49l-46 -95c-36 17.333 -77.5 31 -124.5 41s-95.5 15 -145.5 15
c-70 0 -134.167 -11.333 -192.5 -34s-108.666 -57.834 -150.999 -105.501s-75.166 -108.667 -98.499 -183s-35 -162.833 -35 -265.5c0 -103.333 12.667 -192.166 38 -266.499s60.833 -135.666 106.5 -183.999s99.834 -84 162.501 -107s131 -34.5 205 -34.5
c30.667 0 59.834 2.16699 87.501 6.5s53.167 9.66602 76.5 15.999s44.5 13.166 63.5 20.499s35.833 14.333 50.5 21l39 -92c-34.667 -23.333 -80 -42.833 -136 -58.5s-121.333 -23.5 -196 -23.5c-96.667 0 -184 16.833 -262 50.5s-144.5 81.167 -199.5 142.5
s-97.333 135.166 -127 221.499s-44.5 182.166 -44.5 287.499zM912.997 1724h190l-305 -232h-104l-306 232h188l169 -134z" />
    <glyph glyph-name="ccaron" unicode="&#x10d;" horiz-adv-x="1004" 
d="M148 502c0 78.667 10.834 149.831 32.501 213.498s53.334 118 95.001 163s92.834 79.833 153.501 104.5s129.667 37 207 37c64 0 118.5 -4.66699 163.5 -14s83.5 -22.666 115.5 -39.999l-50 -98l-39 14.5c-13.333 5 -28.5 9.5 -45.5 13.5s-36.333 7.33301 -58 10
s-46.834 4 -75.501 4c-54 0 -103.333 -7.83301 -148 -23.5s-83 -40 -115 -73s-56.667 -75.333 -74 -127s-26 -113.167 -26 -184.5s8.5 -133 25.5 -185s41.167 -94.833 72.5 -128.5s69.166 -58.5 113.499 -74.5s93.5 -24 147.5 -24c59.333 0 110.333 5.5 153 16.5
s79.334 23.5 110.001 37.5l54 -98c-32.667 -21.333 -73.834 -37.666 -123.501 -48.999s-108.167 -17 -175.5 -17c-81.333 0 -153.833 12.5 -217.5 37.5s-117.334 60.333 -161.001 106s-77 100.5 -100 164.5s-34.5 135.333 -34.5 214zM784.001 1384h190l-305 -232h-104
l-306 232h188l169 -134z" />
    <glyph glyph-name="Dcaron" unicode="&#x10e;" horiz-adv-x="1411" 
d="M216 1360l399 0.00292969c100.667 0 192 -16.167 274 -48.5s151.667 -78 209 -137s101.666 -130.167 132.999 -213.5s47 -176.333 47 -279s-15.667 -195.834 -47 -279.501s-75.666 -155.334 -132.999 -215.001s-127 -105.834 -209 -138.501s-173.333 -49 -274 -49h-399
v1360zM352 1250v-1140h243c79.333 0 152.5 11.167 219.5 33.5s124.667 56.833 173 103.5s86.166 106 113.499 178s41 157.667 41 257s-13.667 184.833 -41 256.5s-65.166 130.5 -113.499 176.5s-106 80 -173 102s-140.167 33 -219.5 33h-243zM715 1704h190l-305 -232h-104
l-306 232h188l169 -134z" />
    <glyph glyph-name="dcaron" unicode="&#x10f;" horiz-adv-x="1367" 
d="M890 0v72.999c-20 -15.333 -40.167 -28.666 -60.5 -39.999s-42.333 -21 -66 -29s-50 -14 -79 -18s-61.833 -6 -98.5 -6c-66 0 -124.833 12.5 -176.5 37.5s-95.334 60.333 -131.001 106s-62.667 100.5 -81 164.5s-27.5 135.333 -27.5 214s9.16699 149.834 27.5 213.501
s45.333 118 81 163s79.334 79.833 131.001 104.5s110.5 37 176.5 37c35.333 0 67.333 -2 96 -6s55 -9.83301 79 -17.5s46.5 -17.334 67.5 -29.001s41.5 -25.167 61.5 -40.5v473h136v-1400h-136zM306 501.999c0 -66.667 6.16699 -125.499 18.5 -176.499s31.5 -94 57.5 -129
s59.667 -61.5 101 -79.5s91 -27 149 -27c49.333 0 96 7.33301 140 22s83.333 33.667 118 57v662c-34.667 22.667 -74 41.5 -118 56.5s-90.667 22.5 -140 22.5c-58 0 -107.667 -8.83301 -149 -26.5s-75 -43.667 -101 -78s-45.167 -76.833 -57.5 -127.5
s-18.5 -109.334 -18.5 -176.001zM1223 1401h200l-180 -456l-114 20z" />
    <glyph glyph-name="Dcroat" unicode="&#x110;" horiz-adv-x="1450" 
d="M274 666l-156 0.00292969v110h156v584h399c100.667 0 192 -16.167 274 -48.5s151.667 -78 209 -137s101.666 -130.167 132.999 -213.5s47 -176.333 47 -279s-15.667 -195.834 -47 -279.501s-75.666 -155.334 -132.999 -215.001s-127 -105.834 -209 -138.501
s-173.333 -49 -274 -49h-399v666zM410 666.003v-556h243c79.333 0 152.5 11.167 219.5 33.5s124.667 56.833 173 103.5s86.166 106 113.499 178s41 157.667 41 257s-13.667 184.833 -41 256.5s-65.166 130.5 -113.499 176.5s-106 80 -173 102s-140.167 33 -219.5 33h-243
v-474h311v-110h-311z" />
    <glyph glyph-name="dcroat" unicode="&#x111;" horiz-adv-x="1217" 
d="M890 0v72.999c-20 -15.333 -40.167 -28.666 -60.5 -39.999s-42.333 -21 -66 -29s-50 -14 -79 -18s-61.833 -6 -98.5 -6c-66 0 -124.833 12.5 -176.5 37.5s-95.334 60.333 -131.001 106s-62.667 100.5 -81 164.5s-27.5 135.333 -27.5 214s9.16699 149.834 27.5 213.501
s45.333 118 81 163s79.334 79.833 131.001 104.5s110.5 37 176.5 37c35.333 0 67.333 -2 96 -6s55 -9.83301 79 -17.5s46.5 -17.334 67.5 -29.001s41.5 -25.167 61.5 -40.5v473h136v-1400h-136zM306 501.999c0 -66.667 6.16699 -125.499 18.5 -176.499s31.5 -94 57.5 -129
s59.667 -61.5 101 -79.5s91 -27 149 -27c49.333 0 96 7.33301 140 22s83.333 33.667 118 57v662c-34.667 22.667 -74 41.5 -118 56.5s-90.667 22.5 -140 22.5c-58 0 -107.667 -8.83301 -149 -26.5s-75 -43.667 -101 -78s-45.167 -76.833 -57.5 -127.5
s-18.5 -109.334 -18.5 -176.001zM429 1269h772v-108h-772v108z" />
    <glyph glyph-name="Emacron" unicode="&#x112;" horiz-adv-x="1099" 
d="M216 0v1360h774v-110h-638v-492h571v-110h-571v-538h638v-110h-774zM215 1616h772v-108h-772v108z" />
    <glyph glyph-name="emacron" unicode="&#x113;" horiz-adv-x="1145" 
d="M282 516l-0.00195312 -23.9971c0 -63.333 7.16699 -120 21.5 -170s36 -92.167 65 -126.5s65.333 -60.5 109 -78.5s94.5 -27 152.5 -27c38.667 0 73.167 2.16699 103.5 6.5s57.666 9.66602 81.999 15.999s45.833 13.166 64.5 20.499s35.334 14.333 50.001 21l41 -102
c-40.667 -22 -90 -39.5 -148 -52.5s-120.333 -19.5 -187 -19.5c-81.333 0 -152.5 11.5 -213.5 34.5s-112 56.333 -153 100s-71.833 97.167 -92.5 160.5s-31 135.666 -31 216.999c0 83.333 10 157.833 30 223.5s49.333 121 88 166s85.834 79.333 141.501 103
s119.5 35.5 191.5 35.5c58.667 0 112.334 -8.66699 161.001 -26s90.5 -42.833 125.5 -76.5s62.167 -75 81.5 -124s29 -104.833 29 -167.5v-110h-712zM603.998 910.003c-42 0 -80.667 -4.66797 -116 -14.001s-66.333 -25 -93 -47s-48.834 -51.167 -66.501 -87.5
s-30.5 -81.5 -38.5 -135.5h568c0 50.667 -7 93.834 -21 129.501s-32.833 65 -56.5 88s-50.667 39.833 -81 50.5s-62.166 16 -95.499 16zM221.998 1297h772v-108h-772v108z" />
    <glyph glyph-name="Edotaccent" unicode="&#x116;" horiz-adv-x="1099" 
d="M216 0v1360h774v-110h-638v-492h571v-110h-571v-538h638v-110h-774zM494 1634h178v-164h-178v164z" />
    <glyph glyph-name="edotaccent" unicode="&#x117;" horiz-adv-x="1145" 
d="M282 516l-0.00195312 -23.9971c0 -63.333 7.16699 -120 21.5 -170s36 -92.167 65 -126.5s65.333 -60.5 109 -78.5s94.5 -27 152.5 -27c38.667 0 73.167 2.16699 103.5 6.5s57.666 9.66602 81.999 15.999s45.833 13.166 64.5 20.499s35.334 14.333 50.001 21l41 -102
c-40.667 -22 -90 -39.5 -148 -52.5s-120.333 -19.5 -187 -19.5c-81.333 0 -152.5 11.5 -213.5 34.5s-112 56.333 -153 100s-71.833 97.167 -92.5 160.5s-31 135.666 -31 216.999c0 83.333 10 157.833 30 223.5s49.333 121 88 166s85.834 79.333 141.501 103
s119.5 35.5 191.5 35.5c58.667 0 112.334 -8.66699 161.001 -26s90.5 -42.833 125.5 -76.5s62.167 -75 81.5 -124s29 -104.833 29 -167.5v-110h-712zM603.998 910.003c-42 0 -80.667 -4.66797 -116 -14.001s-66.333 -25 -93 -47s-48.834 -51.167 -66.501 -87.5
s-30.5 -81.5 -38.5 -135.5h568c0 50.667 -7 93.834 -21 129.501s-32.833 65 -56.5 88s-50.667 39.833 -81 50.5s-62.166 16 -95.499 16zM500.998 1315h178v-164h-178v164z" />
    <glyph glyph-name="Eogonek" unicode="&#x118;" horiz-adv-x="1099" 
d="M216 0v1360h774v-110h-638v-492h571v-110h-571v-538h638v-110h-774zM992 0l-81.502 -34.4971c-26.333 -11.667 -49.5 -25 -69.5 -40s-36 -32.333 -48 -52s-18 -42.834 -18 -69.501c0 -11.333 2 -21.5 6 -30.5s9.33301 -16.667 16 -23s14.334 -11.333 23.001 -15
s17.334 -5.5 26.001 -5.5c10.667 0 19.334 0.333008 26.001 1s12.667 1.5 18 2.5s10.833 2.33301 16.5 4s12.5 3.83398 20.5 6.50098l22 -90c-4.66699 -2.66699 -11.334 -5.33398 -20.001 -8.00098s-18.834 -5 -30.501 -7s-24 -3.66699 -37 -5s-25.833 -2 -38.5 -2
c-28 0 -53.333 4 -76 12s-42 19.5 -58 34.5s-28.333 32.667 -37 53s-13 43.166 -13 68.499c0 32.667 7.83301 62.334 23.5 89.001s35.667 50.167 60 70.5s51.333 37.666 81 51.999s58.834 25.166 87.501 32.499l101 -40v-4z" />
    <glyph glyph-name="eogonek" unicode="&#x119;" horiz-adv-x="1145" 
d="M282 516l-0.00195312 -23.9971c0 -63.333 7.16699 -120 21.5 -170s36 -92.167 65 -126.5s65.333 -60.5 109 -78.5s94.5 -27 152.5 -27c38.667 0 73.167 2.16699 103.5 6.5s57.666 9.66602 81.999 15.999s45.833 13.166 64.5 20.499s35.334 14.333 50.001 21l41 -102
c-40.667 -22 -90 -39.5 -148 -52.5s-120.333 -19.5 -187 -19.5c-81.333 0 -152.5 11.5 -213.5 34.5s-112 56.333 -153 100s-71.833 97.167 -92.5 160.5s-31 135.666 -31 216.999c0 83.333 10 157.833 30 223.5s49.333 121 88 166s85.834 79.333 141.501 103
s119.5 35.5 191.5 35.5c58.667 0 112.334 -8.66699 161.001 -26s90.5 -42.833 125.5 -76.5s62.167 -75 81.5 -124s29 -104.833 29 -167.5v-110h-712zM603.998 910.003c-42 0 -80.667 -4.66797 -116 -14.001s-66.333 -25 -93 -47s-48.834 -51.167 -66.501 -87.5
s-30.5 -81.5 -38.5 -135.5h568c0 50.667 -7 93.834 -21 129.501s-32.833 65 -56.5 88s-50.667 39.833 -81 50.5s-62.166 16 -95.499 16zM809.998 0.00195312l-81.502 -34.4971c-26.333 -11.667 -49.5 -25 -69.5 -40s-36 -32.333 -48 -52s-18 -42.834 -18 -69.501
c0 -11.333 2 -21.5 6 -30.5s9.33301 -16.667 16 -23s14.334 -11.333 23.001 -15s17.334 -5.5 26.001 -5.5c10.667 0 19.334 0.333008 26.001 1s12.667 1.5 18 2.5s10.833 2.33301 16.5 4s12.5 3.83398 20.5 6.50098l22 -90
c-4.66699 -2.66699 -11.334 -5.33398 -20.001 -8.00098s-18.834 -5 -30.501 -7s-24 -3.66699 -37 -5s-25.833 -2 -38.5 -2c-28 0 -53.333 4 -76 12s-42 19.5 -58 34.5s-28.333 32.667 -37 53s-13 43.166 -13 68.499c0 32.667 7.83301 62.334 23.5 89.001
s35.667 50.167 60 70.5s51.333 37.666 81 51.999s58.834 25.166 87.501 32.499l101 -40v-4z" />
    <glyph glyph-name="Ecaron" unicode="&#x11a;" horiz-adv-x="1099" 
d="M216 0v1360h774v-110h-638v-492h571v-110h-571v-538h638v-110h-774zM765 1704h190l-305 -232h-104l-306 232h188l169 -134z" />
    <glyph glyph-name="ecaron" unicode="&#x11b;" horiz-adv-x="1145" 
d="M282 516l-0.00195312 -23.9971c0 -63.333 7.16699 -120 21.5 -170s36 -92.167 65 -126.5s65.333 -60.5 109 -78.5s94.5 -27 152.5 -27c38.667 0 73.167 2.16699 103.5 6.5s57.666 9.66602 81.999 15.999s45.833 13.166 64.5 20.499s35.334 14.333 50.001 21l41 -102
c-40.667 -22 -90 -39.5 -148 -52.5s-120.333 -19.5 -187 -19.5c-81.333 0 -152.5 11.5 -213.5 34.5s-112 56.333 -153 100s-71.833 97.167 -92.5 160.5s-31 135.666 -31 216.999c0 83.333 10 157.833 30 223.5s49.333 121 88 166s85.834 79.333 141.501 103
s119.5 35.5 191.5 35.5c58.667 0 112.334 -8.66699 161.001 -26s90.5 -42.833 125.5 -76.5s62.167 -75 81.5 -124s29 -104.833 29 -167.5v-110h-712zM603.998 910.003c-42 0 -80.667 -4.66797 -116 -14.001s-66.333 -25 -93 -47s-48.834 -51.167 -66.501 -87.5
s-30.5 -81.5 -38.5 -135.5h568c0 50.667 -7 93.834 -21 129.501s-32.833 65 -56.5 88s-50.667 39.833 -81 50.5s-62.166 16 -95.499 16zM771.998 1384h190l-305 -232h-104l-306 232h188l169 -134z" />
    <glyph glyph-name="Gcircumflex" unicode="&#x11c;" horiz-adv-x="1425" 
d="M749 664l499 -0.00292969v-596c-65.333 -27.333 -133.5 -48.833 -204.5 -64.5s-147.833 -23.5 -230.5 -23.5c-68 0 -132 8.5 -192 25.5s-115.167 41 -165.5 72s-95.166 68 -134.499 111s-72.833 90.333 -100.5 142s-48.667 107 -63 166s-21.5 120.167 -21.5 183.5
c0 111.333 17 210.5 51 297.5s82.333 160.333 145 220s138.667 105 228 136s189.666 46.5 300.999 46.5c36 0 69.667 -1.83301 101 -5.5s60 -8.5 86 -14.5s49 -12.333 69 -19s37 -13 51 -19l-34 -106c-32.667 12 -71.5 24 -116.5 36s-95.833 18 -152.5 18
c-87.333 0 -167.333 -11.667 -240 -35s-135.167 -59.166 -187.5 -107.499s-93 -109.666 -122 -183.999s-43.5 -162.166 -43.5 -263.499c0 -76 13.333 -149.5 40 -220.5s63.834 -133.833 111.501 -188.5s104.667 -98.5 171 -131.5s139.166 -49.5 218.499 -49.5
c52 0 104.5 2.83301 157.5 8.5s100.167 16.167 141.5 31.5v424h-363v110zM680 1488h-188l306 232h104l305 -232h-190l-168 119z" />
    <glyph glyph-name="gcircumflex" unicode="&#x11d;" horiz-adv-x="1226" 
d="M176 660c0 59.333 10.001 111.499 30.001 156.499s48.5 82.5 85.5 112.5s81.667 52.667 134 68s111.166 23 176.499 23c58.667 0 114 -6.66699 166 -20h376l-21 -110h-164c26 -29.333 46 -63 60 -101s21 -81 21 -129c0 -56 -10.833 -106.333 -32.5 -151
s-51.834 -82.5 -90.501 -113.5s-84.834 -54.667 -138.501 -71s-112.5 -24.5 -176.5 -24.5c-35.333 0 -68.333 2.33301 -99 7s-60 11.667 -88 21c-16.667 -16 -29.667 -33.833 -39 -53.5s-14 -42.834 -14 -69.501c0 -6 1 -13.5 3 -22.5s4.83301 -18 8.5 -27s8 -17.667 13 -26
s10.167 -14.833 15.5 -19.5h330c56.667 0 107.834 -6.33301 153.501 -19s84.5 -31 116.5 -55s56.667 -53 74 -87s26 -72.333 26 -115c0 -45.333 -12 -86.833 -36 -124.5s-58.167 -70.334 -102.5 -98.001s-97.833 -49.167 -160.5 -64.5s-132.667 -23 -210 -23
c-38 0 -76 1.66699 -114 5s-74.833 9 -110.5 17s-69 18.833 -100 32.5s-57.833 30.667 -80.5 51s-40.667 44.5 -54 72.5s-20 60.667 -20 98c0 52.667 12.5 98.834 37.5 138.501s67.5 74.167 127.5 103.5c-12.667 17.333 -24.667 38 -36 62s-17 52.333 -17 85
c0 42 8.83301 77 26.5 105s41.834 53.667 72.501 77c-48 30.667 -84.833 70.334 -110.5 119.001s-38.5 105.334 -38.5 170.001zM312.001 659.999c0 -37.333 6.00098 -71.333 18.001 -102s30 -57 54 -79s54.167 -39 90.5 -51s78.833 -18 127.5 -18c46.667 0 88.667 6 126 18
s69 29 95 51s46 48.333 60 79s21 64.667 21 102c0 42 -8.16699 78.667 -24.5 110s-38.166 57.333 -65.499 78s-59.333 36.167 -96 46.5s-75.334 15.5 -116.001 15.5c-42 0 -80.667 -5.16699 -116 -15.5s-65.833 -25.833 -91.5 -46.5s-45.834 -46.667 -60.501 -78
s-22 -68 -22 -110zM390.002 -0.000976562c-22.667 -14.667 -42.6689 -28.8359 -60.002 -42.5029s-32 -28.167 -44 -43.5s-21 -32.166 -27 -50.499s-9 -38.833 -9 -61.5c0 -21.333 6 -40.5 18 -57.5s27.667 -31.667 47 -44s41.333 -22.833 66 -31.5
s49.834 -15.5 75.501 -20.5s50.834 -8.66699 75.501 -11s46.334 -3.5 65.001 -3.5c52.667 0 101.667 4.83301 147 14.5s84.5 22.834 117.5 39.501s58.833 36.5 77.5 59.5s28 48.167 28 75.5c0 24.667 -4.33301 47.834 -13 69.501s-23.334 40.5 -44.001 56.5
s-48.5 28.5 -83.5 37.5s-78.833 13.5 -131.5 13.5h-305zM449 1148h-188l306 232h104l305 -232h-190l-168 119z" />
    <glyph glyph-name="Gbreve" unicode="&#x11e;" horiz-adv-x="1425" 
d="M749 664l499 -0.00292969v-596c-65.333 -27.333 -133.5 -48.833 -204.5 -64.5s-147.833 -23.5 -230.5 -23.5c-68 0 -132 8.5 -192 25.5s-115.167 41 -165.5 72s-95.166 68 -134.499 111s-72.833 90.333 -100.5 142s-48.667 107 -63 166s-21.5 120.167 -21.5 183.5
c0 111.333 17 210.5 51 297.5s82.333 160.333 145 220s138.667 105 228 136s189.666 46.5 300.999 46.5c36 0 69.667 -1.83301 101 -5.5s60 -8.5 86 -14.5s49 -12.333 69 -19s37 -13 51 -19l-34 -106c-32.667 12 -71.5 24 -116.5 36s-95.833 18 -152.5 18
c-87.333 0 -167.333 -11.667 -240 -35s-135.167 -59.166 -187.5 -107.499s-93 -109.666 -122 -183.999s-43.5 -162.166 -43.5 -263.499c0 -76 13.333 -149.5 40 -220.5s63.834 -133.833 111.501 -188.5s104.667 -98.5 171 -131.5s139.166 -49.5 218.499 -49.5
c52 0 104.5 2.83301 157.5 8.5s100.167 16.167 141.5 31.5v424h-363v110zM842 1494c-51.333 -0.666992 -98.333 3.83301 -141 13.5s-79.5 24.334 -110.5 44.001s-55.167 44 -72.5 73s-26 62.833 -26 101.5h136c0 -41.333 18 -74.333 54 -99s89.333 -37 160 -37
s124.167 12.333 160.5 37s54.5 57.667 54.5 99h132c0 -38.667 -8.66699 -72.5 -26 -101.5s-41.333 -53.333 -72 -73s-67.167 -34.334 -109.5 -44.001s-88.833 -14.167 -139.5 -13.5z" />
    <glyph glyph-name="gbreve" unicode="&#x11f;" horiz-adv-x="1226" 
d="M176 660c0 59.333 10.001 111.499 30.001 156.499s48.5 82.5 85.5 112.5s81.667 52.667 134 68s111.166 23 176.499 23c58.667 0 114 -6.66699 166 -20h376l-21 -110h-164c26 -29.333 46 -63 60 -101s21 -81 21 -129c0 -56 -10.833 -106.333 -32.5 -151
s-51.834 -82.5 -90.501 -113.5s-84.834 -54.667 -138.501 -71s-112.5 -24.5 -176.5 -24.5c-35.333 0 -68.333 2.33301 -99 7s-60 11.667 -88 21c-16.667 -16 -29.667 -33.833 -39 -53.5s-14 -42.834 -14 -69.501c0 -6 1 -13.5 3 -22.5s4.83301 -18 8.5 -27s8 -17.667 13 -26
s10.167 -14.833 15.5 -19.5h330c56.667 0 107.834 -6.33301 153.501 -19s84.5 -31 116.5 -55s56.667 -53 74 -87s26 -72.333 26 -115c0 -45.333 -12 -86.833 -36 -124.5s-58.167 -70.334 -102.5 -98.001s-97.833 -49.167 -160.5 -64.5s-132.667 -23 -210 -23
c-38 0 -76 1.66699 -114 5s-74.833 9 -110.5 17s-69 18.833 -100 32.5s-57.833 30.667 -80.5 51s-40.667 44.5 -54 72.5s-20 60.667 -20 98c0 52.667 12.5 98.834 37.5 138.501s67.5 74.167 127.5 103.5c-12.667 17.333 -24.667 38 -36 62s-17 52.333 -17 85
c0 42 8.83301 77 26.5 105s41.834 53.667 72.501 77c-48 30.667 -84.833 70.334 -110.5 119.001s-38.5 105.334 -38.5 170.001zM312.001 659.999c0 -37.333 6.00098 -71.333 18.001 -102s30 -57 54 -79s54.167 -39 90.5 -51s78.833 -18 127.5 -18c46.667 0 88.667 6 126 18
s69 29 95 51s46 48.333 60 79s21 64.667 21 102c0 42 -8.16699 78.667 -24.5 110s-38.166 57.333 -65.499 78s-59.333 36.167 -96 46.5s-75.334 15.5 -116.001 15.5c-42 0 -80.667 -5.16699 -116 -15.5s-65.833 -25.833 -91.5 -46.5s-45.834 -46.667 -60.501 -78
s-22 -68 -22 -110zM390.002 -0.000976562c-22.667 -14.667 -42.6689 -28.8359 -60.002 -42.5029s-32 -28.167 -44 -43.5s-21 -32.166 -27 -50.499s-9 -38.833 -9 -61.5c0 -21.333 6 -40.5 18 -57.5s27.667 -31.667 47 -44s41.333 -22.833 66 -31.5
s49.834 -15.5 75.501 -20.5s50.834 -8.66699 75.501 -11s46.334 -3.5 65.001 -3.5c52.667 0 101.667 4.83301 147 14.5s84.5 22.834 117.5 39.501s58.833 36.5 77.5 59.5s28 48.167 28 75.5c0 24.667 -4.33301 47.834 -13 69.501s-23.334 40.5 -44.001 56.5
s-48.5 28.5 -83.5 37.5s-78.833 13.5 -131.5 13.5h-305zM611 1154c-51.333 -0.666992 -98.333 3.83301 -141 13.5s-79.5 24.334 -110.5 44.001s-55.167 44 -72.5 73s-26 62.833 -26 101.5h136c0 -41.333 18 -74.333 54 -99s89.333 -37 160 -37s124.167 12.333 160.5 37
s54.5 57.667 54.5 99h132c0 -38.667 -8.66699 -72.5 -26 -101.5s-41.333 -53.333 -72 -73s-67.167 -34.334 -109.5 -44.001s-88.833 -14.167 -139.5 -13.5z" />
    <glyph glyph-name="Gdotaccent" unicode="&#x120;" horiz-adv-x="1425" 
d="M749 664l499 -0.00292969v-596c-65.333 -27.333 -133.5 -48.833 -204.5 -64.5s-147.833 -23.5 -230.5 -23.5c-68 0 -132 8.5 -192 25.5s-115.167 41 -165.5 72s-95.166 68 -134.499 111s-72.833 90.333 -100.5 142s-48.667 107 -63 166s-21.5 120.167 -21.5 183.5
c0 111.333 17 210.5 51 297.5s82.333 160.333 145 220s138.667 105 228 136s189.666 46.5 300.999 46.5c36 0 69.667 -1.83301 101 -5.5s60 -8.5 86 -14.5s49 -12.333 69 -19s37 -13 51 -19l-34 -106c-32.667 12 -71.5 24 -116.5 36s-95.833 18 -152.5 18
c-87.333 0 -167.333 -11.667 -240 -35s-135.167 -59.166 -187.5 -107.499s-93 -109.666 -122 -183.999s-43.5 -162.166 -43.5 -263.499c0 -76 13.333 -149.5 40 -220.5s63.834 -133.833 111.501 -188.5s104.667 -98.5 171 -131.5s139.166 -49.5 218.499 -49.5
c52 0 104.5 2.83301 157.5 8.5s100.167 16.167 141.5 31.5v424h-363v110zM732 1652h178v-164h-178v164z" />
    <glyph glyph-name="gdotaccent" unicode="&#x121;" horiz-adv-x="1226" 
d="M176 660c0 59.333 10.001 111.499 30.001 156.499s48.5 82.5 85.5 112.5s81.667 52.667 134 68s111.166 23 176.499 23c58.667 0 114 -6.66699 166 -20h376l-21 -110h-164c26 -29.333 46 -63 60 -101s21 -81 21 -129c0 -56 -10.833 -106.333 -32.5 -151
s-51.834 -82.5 -90.501 -113.5s-84.834 -54.667 -138.501 -71s-112.5 -24.5 -176.5 -24.5c-35.333 0 -68.333 2.33301 -99 7s-60 11.667 -88 21c-16.667 -16 -29.667 -33.833 -39 -53.5s-14 -42.834 -14 -69.501c0 -6 1 -13.5 3 -22.5s4.83301 -18 8.5 -27s8 -17.667 13 -26
s10.167 -14.833 15.5 -19.5h330c56.667 0 107.834 -6.33301 153.501 -19s84.5 -31 116.5 -55s56.667 -53 74 -87s26 -72.333 26 -115c0 -45.333 -12 -86.833 -36 -124.5s-58.167 -70.334 -102.5 -98.001s-97.833 -49.167 -160.5 -64.5s-132.667 -23 -210 -23
c-38 0 -76 1.66699 -114 5s-74.833 9 -110.5 17s-69 18.833 -100 32.5s-57.833 30.667 -80.5 51s-40.667 44.5 -54 72.5s-20 60.667 -20 98c0 52.667 12.5 98.834 37.5 138.501s67.5 74.167 127.5 103.5c-12.667 17.333 -24.667 38 -36 62s-17 52.333 -17 85
c0 42 8.83301 77 26.5 105s41.834 53.667 72.501 77c-48 30.667 -84.833 70.334 -110.5 119.001s-38.5 105.334 -38.5 170.001zM312.001 659.999c0 -37.333 6.00098 -71.333 18.001 -102s30 -57 54 -79s54.167 -39 90.5 -51s78.833 -18 127.5 -18c46.667 0 88.667 6 126 18
s69 29 95 51s46 48.333 60 79s21 64.667 21 102c0 42 -8.16699 78.667 -24.5 110s-38.166 57.333 -65.499 78s-59.333 36.167 -96 46.5s-75.334 15.5 -116.001 15.5c-42 0 -80.667 -5.16699 -116 -15.5s-65.833 -25.833 -91.5 -46.5s-45.834 -46.667 -60.501 -78
s-22 -68 -22 -110zM390.002 -0.000976562c-22.667 -14.667 -42.6689 -28.8359 -60.002 -42.5029s-32 -28.167 -44 -43.5s-21 -32.166 -27 -50.499s-9 -38.833 -9 -61.5c0 -21.333 6 -40.5 18 -57.5s27.667 -31.667 47 -44s41.333 -22.833 66 -31.5
s49.834 -15.5 75.501 -20.5s50.834 -8.66699 75.501 -11s46.334 -3.5 65.001 -3.5c52.667 0 101.667 4.83301 147 14.5s84.5 22.834 117.5 39.501s58.833 36.5 77.5 59.5s28 48.167 28 75.5c0 24.667 -4.33301 47.834 -13 69.501s-23.334 40.5 -44.001 56.5
s-48.5 28.5 -83.5 37.5s-78.833 13.5 -131.5 13.5h-305zM501 1313h178v-164h-178v164z" />
    <glyph glyph-name="Gcommaaccent" unicode="&#x122;" horiz-adv-x="1425" 
d="M749 664l499 -0.00292969v-596c-65.333 -27.333 -133.5 -48.833 -204.5 -64.5s-147.833 -23.5 -230.5 -23.5c-68 0 -132 8.5 -192 25.5s-115.167 41 -165.5 72s-95.166 68 -134.499 111s-72.833 90.333 -100.5 142s-48.667 107 -63 166s-21.5 120.167 -21.5 183.5
c0 111.333 17 210.5 51 297.5s82.333 160.333 145 220s138.667 105 228 136s189.666 46.5 300.999 46.5c36 0 69.667 -1.83301 101 -5.5s60 -8.5 86 -14.5s49 -12.333 69 -19s37 -13 51 -19l-34 -106c-32.667 12 -71.5 24 -116.5 36s-95.833 18 -152.5 18
c-87.333 0 -167.333 -11.667 -240 -35s-135.167 -59.166 -187.5 -107.499s-93 -109.666 -122 -183.999s-43.5 -162.166 -43.5 -263.499c0 -76 13.333 -149.5 40 -220.5s63.834 -133.833 111.501 -188.5s104.667 -98.5 171 -131.5s139.166 -49.5 218.499 -49.5
c52 0 104.5 2.83301 157.5 8.5s100.167 16.167 141.5 31.5v424h-363v110zM751 -102.003h142l-144 -398l-102 20z" />
    <glyph glyph-name="gcommaaccent" unicode="&#x123;" horiz-adv-x="1226" 
d="M176 660c0 59.333 10.001 111.499 30.001 156.499s48.5 82.5 85.5 112.5s81.667 52.667 134 68s111.166 23 176.499 23c58.667 0 114 -6.66699 166 -20h376l-21 -110h-164c26 -29.333 46 -63 60 -101s21 -81 21 -129c0 -56 -10.833 -106.333 -32.5 -151
s-51.834 -82.5 -90.501 -113.5s-84.834 -54.667 -138.501 -71s-112.5 -24.5 -176.5 -24.5c-35.333 0 -68.333 2.33301 -99 7s-60 11.667 -88 21c-16.667 -16 -29.667 -33.833 -39 -53.5s-14 -42.834 -14 -69.501c0 -6 1 -13.5 3 -22.5s4.83301 -18 8.5 -27s8 -17.667 13 -26
s10.167 -14.833 15.5 -19.5h330c56.667 0 107.834 -6.33301 153.501 -19s84.5 -31 116.5 -55s56.667 -53 74 -87s26 -72.333 26 -115c0 -45.333 -12 -86.833 -36 -124.5s-58.167 -70.334 -102.5 -98.001s-97.833 -49.167 -160.5 -64.5s-132.667 -23 -210 -23
c-38 0 -76 1.66699 -114 5s-74.833 9 -110.5 17s-69 18.833 -100 32.5s-57.833 30.667 -80.5 51s-40.667 44.5 -54 72.5s-20 60.667 -20 98c0 52.667 12.5 98.834 37.5 138.501s67.5 74.167 127.5 103.5c-12.667 17.333 -24.667 38 -36 62s-17 52.333 -17 85
c0 42 8.83301 77 26.5 105s41.834 53.667 72.501 77c-48 30.667 -84.833 70.334 -110.5 119.001s-38.5 105.334 -38.5 170.001zM312.001 659.999c0 -37.333 6.00098 -71.333 18.001 -102s30 -57 54 -79s54.167 -39 90.5 -51s78.833 -18 127.5 -18c46.667 0 88.667 6 126 18
s69 29 95 51s46 48.333 60 79s21 64.667 21 102c0 42 -8.16699 78.667 -24.5 110s-38.166 57.333 -65.499 78s-59.333 36.167 -96 46.5s-75.334 15.5 -116.001 15.5c-42 0 -80.667 -5.16699 -116 -15.5s-65.833 -25.833 -91.5 -46.5s-45.834 -46.667 -60.501 -78
s-22 -68 -22 -110zM390.002 -0.000976562c-22.667 -14.667 -42.6689 -28.8359 -60.002 -42.5029s-32 -28.167 -44 -43.5s-21 -32.166 -27 -50.499s-9 -38.833 -9 -61.5c0 -21.333 6 -40.5 18 -57.5s27.667 -31.667 47 -44s41.333 -22.833 66 -31.5
s49.834 -15.5 75.501 -20.5s50.834 -8.66699 75.501 -11s46.334 -3.5 65.001 -3.5c52.667 0 101.667 4.83301 147 14.5s84.5 22.834 117.5 39.501s58.833 36.5 77.5 59.5s28 48.167 28 75.5c0 24.667 -4.33301 47.834 -13 69.501s-23.334 40.5 -44.001 56.5
s-48.5 28.5 -83.5 37.5s-78.833 13.5 -131.5 13.5h-305zM711 1148h-200l184 456l112 -20z" />
    <glyph glyph-name="Hcircumflex" unicode="&#x124;" horiz-adv-x="1432" 
d="M216 1360h136v-626h747v626h136v-1360h-136v624h-747v-624h-136v1360zM563 1460h-188l306 232h104l305 -232h-190l-168 119z" />
    <glyph glyph-name="hcircumflex" unicode="&#x125;" horiz-adv-x="1221" 
d="M212 1400l136.002 -0.000976562v-511c101.333 87.333 220 131 356 131c59.333 0 109.833 -7.16699 151.5 -21.5s75.5 -36.166 101.5 -65.499s44.833 -66.5 56.5 -111.5s17.5 -98.167 17.5 -159.5v-662h-136v662c0 46.667 -4.66699 85.834 -14 117.501
s-23.333 57.167 -42 76.5s-41.5 33.166 -68.5 41.499s-58.5 12.5 -94.5 12.5c-64.667 0 -124.334 -11.333 -179.001 -34s-104.334 -52 -149.001 -88v-788h-136v1400zM121.002 1500h-188l306 232h104l305 -232h-190l-168 119z" />
    <glyph glyph-name="Hbar" unicode="&#x126;" horiz-adv-x="1508" 
d="M47 1126h169v234h136v-234h747v234h136v-234h202v-108h-202v-1018h-136v624h-747v-624h-136v1018h-169v108zM352 734h747v284h-747v-284z" />
    <glyph glyph-name="hbar" unicode="&#x127;" horiz-adv-x="1311" 
d="M-10 1256l222.002 -0.000976562v144h136v-144h414v-108h-414v-259c101.333 87.333 220 131 356 131c59.333 0 109.833 -7.16699 151.5 -21.5s75.5 -36.166 101.5 -65.499s44.833 -66.5 56.5 -111.5s17.5 -98.167 17.5 -159.5v-662h-136v662
c0 46.667 -4.66699 85.834 -14 117.501s-23.333 57.167 -42 76.5s-41.5 33.166 -68.5 41.499s-58.5 12.5 -94.5 12.5c-64.667 0 -124.334 -11.333 -179.001 -34s-104.334 -52 -149.001 -88v-788h-136v1148h-222v108z" />
    <glyph glyph-name="Itilde" unicode="&#x128;" horiz-adv-x="856" 
d="M156 0v110h211v1140h-211v110h548v-110h-201v-1140h201v-110h-548zM573 1594c23.333 0 46.6699 8.16797 70.0029 24.501s40.666 40.166 51.999 71.499l97 -66c-9.33301 -24 -21.5 -45.333 -36.5 -64s-31.333 -34.667 -49 -48s-36 -24 -55 -32s-37.167 -13.333 -54.5 -16
c-13.333 -2.66699 -27.333 -4 -42 -4c-35.333 0 -67.5 7.66699 -96.5 23s-57.167 32.333 -84.5 51c-20.667 15.333 -39.834 26.5 -57.501 33.5s-33.167 10.5 -46.5 10.5c-11.333 -0.666992 -21.666 -2.16699 -30.999 -4.5s-18.666 -6.83301 -27.999 -13.5
s-18.833 -16 -28.5 -28s-20.167 -27.333 -31.5 -46l-96 60c8 23.333 19.333 44.333 34 63s31 34.667 49 48s36.667 24.333 56 33s37.666 14.667 54.999 18c12 2 23.333 3 34 3c36.667 0 70 -7.83301 100 -23.5s58.667 -32.834 86 -51.501
c19.333 -16 38.166 -26.667 56.499 -32s34.166 -8.66602 47.499 -9.99902z" />
    <glyph glyph-name="itilde" unicode="&#x129;" horiz-adv-x="377" 
d="M132 1000h136v-1000h-136v1000zM346 1261c23.333 0 46.6699 8.16797 70.0029 24.501s40.666 40.166 51.999 71.499l97 -66c-9.33301 -24 -21.5 -45.333 -36.5 -64s-31.333 -34.667 -49 -48s-36 -24 -55 -32s-37.167 -13.333 -54.5 -16
c-13.333 -2.66699 -27.333 -4 -42 -4c-35.333 0 -67.5 7.66699 -96.5 23s-57.167 32.333 -84.5 51c-20.667 15.333 -39.834 26.5 -57.501 33.5s-33.167 10.5 -46.5 10.5c-11.333 -0.666992 -21.666 -2.16699 -30.999 -4.5s-18.666 -6.83301 -27.999 -13.5
s-18.833 -16 -28.5 -28s-20.167 -27.333 -31.5 -46l-96 60c8 23.333 19.333 44.333 34 63s31 34.667 49 48s36.667 24.333 56 33s37.666 14.667 54.999 18c12 2 23.333 3 34 3c36.667 0 70 -7.83301 100 -23.5s58.667 -32.834 86 -51.501
c19.333 -16 38.166 -26.667 56.499 -32s34.166 -8.66602 47.499 -9.99902z" />
    <glyph glyph-name="Imacron" unicode="&#x12a;" horiz-adv-x="856" 
d="M156 0v110h211v1140h-211v110h548v-110h-201v-1140h201v-110h-548zM48 1616h772v-108h-772v108z" />
    <glyph glyph-name="imacron" unicode="&#x12b;" horiz-adv-x="377" 
d="M132 1000h136v-1000h-136v1000zM-179 1284h772v-108h-772v108z" />
    <glyph glyph-name="Iogonek" unicode="&#x12e;" horiz-adv-x="856" 
d="M156 0v110h211v1140h-211v110h548v-110h-201v-1140h201v-110h-548zM705 0l-81.502 -34.4971c-26.333 -11.667 -49.5 -25 -69.5 -40s-36 -32.333 -48 -52s-18 -42.834 -18 -69.501c0 -11.333 2 -21.5 6 -30.5s9.33301 -16.667 16 -23s14.334 -11.333 23.001 -15
s17.334 -5.5 26.001 -5.5c10.667 0 19.334 0.333008 26.001 1s12.667 1.5 18 2.5s10.833 2.33301 16.5 4s12.5 3.83398 20.5 6.50098l22 -90c-4.66699 -2.66699 -11.334 -5.33398 -20.001 -8.00098s-18.834 -5 -30.501 -7s-24 -3.66699 -37 -5s-25.833 -2 -38.5 -2
c-28 0 -53.333 4 -76 12s-42 19.5 -58 34.5s-28.333 32.667 -37 53s-13 43.166 -13 68.499c0 32.667 7.83301 62.334 23.5 89.001s35.667 50.167 60 70.5s51.333 37.666 81 51.999s58.834 25.166 87.501 32.499l101 -40v-4z" />
    <glyph glyph-name="iogonek" unicode="&#x12f;" horiz-adv-x="583" 
d="M230 1000h137v-1000h-137v1000zM206 1402h176v-158h-176v158zM370 0l-81.502 -34.4971c-26.333 -11.667 -49.5 -25 -69.5 -40s-36 -32.333 -48 -52s-18 -42.834 -18 -69.501c0 -11.333 2 -21.5 6 -30.5s9.33301 -16.667 16 -23s14.334 -11.333 23.001 -15
s17.334 -5.5 26.001 -5.5c10.667 0 19.334 0.333008 26.001 1s12.667 1.5 18 2.5s10.833 2.33301 16.5 4s12.5 3.83398 20.5 6.50098l22 -90c-4.66699 -2.66699 -11.334 -5.33398 -20.001 -8.00098s-18.834 -5 -30.501 -7s-24 -3.66699 -37 -5s-25.833 -2 -38.5 -2
c-28 0 -53.333 4 -76 12s-42 19.5 -58 34.5s-28.333 32.667 -37 53s-13 43.166 -13 68.499c0 32.667 7.83301 62.334 23.5 89.001s35.667 50.167 60 70.5s51.333 37.666 81 51.999s58.834 25.166 87.501 32.499l101 -40v-4z" />
    <glyph glyph-name="Idotaccent" unicode="&#x130;" horiz-adv-x="856" 
d="M156 0v110h211v1140h-211v110h548v-110h-201v-1140h201v-110h-548zM326 1634h178v-164h-178v164z" />
    <glyph glyph-name="dotlessi" unicode="&#x131;" horiz-adv-x="377" 
d="M132 1000h136v-1000h-136v1000z" />
    <glyph glyph-name="Jcircumflex" unicode="&#x134;" horiz-adv-x="989" 
d="M148 156c14.667 -8 32.5 -16.001 53.5 -24.001s42.833 -15 65.5 -21s45 -11 67 -15s42 -6 60 -6c43.333 0 81.333 5.33301 114 16s60 27.667 82 51s38.5 53.5 49.5 90.5s16.5 81.833 16.5 134.5v978h136v-972c0 -78.667 -9.5 -144.167 -28.5 -196.5
s-46 -94.166 -81 -125.499s-77 -53.5 -126 -66.5s-103.167 -19.5 -162.5 -19.5c-63.333 0 -121.333 8 -174 24s-96.667 34 -132 54zM549 1422h-188l306 232h104l305 -232h-190l-168 119z" />
    <glyph glyph-name="jcircumflex" unicode="&#x135;" horiz-adv-x="526" 
d="M-146 -292c10.667 -2.66699 23 -4.99805 37 -6.99805s28.5 -3.83301 43.5 -5.5s30 -3 45 -4s29.167 -1.5 42.5 -1.5c28.667 0 54.167 4.33301 76.5 13s41.166 23 56.499 43s27 46.5 35 79.5s12 73.833 12 122.5v1052h134v-1052c0 -73.333 -7.16699 -133.833 -21.5 -181.5
s-35.333 -85.334 -63 -113.001s-61.667 -46.834 -102 -57.501s-86.166 -16 -137.499 -16c-30 0 -60.167 2 -90.5 6s-57.5 9.66699 -81.5 17zM116 1159h-188l306 232h104l305 -232h-190l-168 119z" />
    <glyph glyph-name="Kcommaaccent" unicode="&#x136;" horiz-adv-x="1301" 
d="M558 628h-206v-628h-136v1360h136v-622h204l450 622h174l-496 -674h-2l574 -686h-180zM572 -102h142l-144 -398l-102 20z" />
    <glyph glyph-name="kcommaaccent" unicode="&#x137;" horiz-adv-x="1113" 
d="M461 468h-113v-468h-136v1400h136v-822h114l370 422h162l-421 -474h-2l509 -526h-172zM540 -102h142l-144 -398l-102 20z" />
    <glyph glyph-name="kgreenlandic" unicode="&#x138;" horiz-adv-x="1159" 
d="M552 468h-204v-468h-136v1000h136v-422h205l370 422h161l-421 -474h-2l497 -526h-170z" />
    <glyph glyph-name="Lacute" unicode="&#x139;" horiz-adv-x="1080" 
d="M216 1360h136v-1250h674v-110h-810v1360zM429 1786l157 -66l-268 -248l-110 40z" />
    <glyph glyph-name="lacute" unicode="&#x13a;" horiz-adv-x="583" 
d="M233 1400h136v-1400h-136v1400zM447 1846l157 -66l-268 -248l-110 40z" />
    <glyph glyph-name="Lcommaaccent" unicode="&#x13b;" horiz-adv-x="1080" 
d="M216 1360h136v-1250h674v-110h-810v1360zM561 -102h142l-144 -398l-102 20z" />
    <glyph glyph-name="lcommaaccent" unicode="&#x13c;" horiz-adv-x="583" 
d="M233 1400h136v-1400h-136v1400zM244 -102h142l-144 -398l-102 20z" />
    <glyph glyph-name="Lcaron" unicode="&#x13d;" horiz-adv-x="1080" 
d="M216 1360h136v-1250h674v-110h-810v1360zM619 1367h200l-180 -456l-114 20z" />
    <glyph glyph-name="lcaron" unicode="&#x13e;" horiz-adv-x="583" 
d="M233 1400h136v-1400h-136v1400zM637 1426h200l-180 -456l-114 20z" />
    <glyph glyph-name="Lslash" unicode="&#x141;" horiz-adv-x="1194" 
d="M270 591l-162 -71v118l162 71v651h136v-592l217 96v-118l-217 -96v-540h674v-110h-810v591z" />
    <glyph glyph-name="lslash" unicode="&#x142;" horiz-adv-x="747" 
d="M305 595l-191 -87v130l191 87v675h136v-613l193 89v-130l-193 -89v-657h-136v595z" />
    <glyph glyph-name="Nacute" unicode="&#x143;" horiz-adv-x="1482" 
d="M216 1360h136l799 -1145v1145h136v-1360h-136l-799 1126v-1126h-136v1360zM883 1786l157 -66l-268 -248l-110 40z" />
    <glyph glyph-name="nacute" unicode="&#x144;" horiz-adv-x="1221" 
d="M212 1000l125.002 -0.000976562l9 -113c50 44 105 77.167 165 99.5s124.333 33.5 193 33.5c59.333 0 109.833 -7.16699 151.5 -21.5s75.5 -36.166 101.5 -65.499s44.833 -66.5 56.5 -111.5s17.5 -98.167 17.5 -159.5v-662h-136v662c0 46.667 -4.66699 85.834 -14 117.501
s-23.333 57.167 -42 76.5s-41.5 33.166 -68.5 41.499s-58.5 12.5 -94.5 12.5c-64.667 0 -124.334 -11.333 -179.001 -34s-104.334 -52 -149.001 -88v-788h-136v1000zM766.002 1466l157 -66l-268 -248l-110 40z" />
    <glyph glyph-name="Ncommaaccent" unicode="&#x145;" horiz-adv-x="1482" 
d="M216 1360h136l799 -1145v1145h136v-1360h-136l-799 1126v-1126h-136v1360zM692 -102h142l-144 -398l-102 20z" />
    <glyph glyph-name="ncommaaccent" unicode="&#x146;" horiz-adv-x="1221" 
d="M212 1000l125.002 -0.000976562l9 -113c50 44 105 77.167 165 99.5s124.333 33.5 193 33.5c59.333 0 109.833 -7.16699 151.5 -21.5s75.5 -36.166 101.5 -65.499s44.833 -66.5 56.5 -111.5s17.5 -98.167 17.5 -159.5v-662h-136v662c0 46.667 -4.66699 85.834 -14 117.501
s-23.333 57.167 -42 76.5s-41.5 33.166 -68.5 41.499s-58.5 12.5 -94.5 12.5c-64.667 0 -124.334 -11.333 -179.001 -34s-104.334 -52 -149.001 -88v-788h-136v1000zM563.002 -102.001h142l-144 -398l-102 20z" />
    <glyph glyph-name="Ncaron" unicode="&#x147;" horiz-adv-x="1482" 
d="M216 1360h136l799 -1145v1145h136v-1360h-136l-799 1126v-1126h-136v1360zM903 1704h190l-305 -232h-104l-306 232h188l169 -134z" />
    <glyph glyph-name="ncaron" unicode="&#x148;" horiz-adv-x="1221" 
d="M212 1000l125.002 -0.000976562l9 -113c50 44 105 77.167 165 99.5s124.333 33.5 193 33.5c59.333 0 109.833 -7.16699 151.5 -21.5s75.5 -36.166 101.5 -65.499s44.833 -66.5 56.5 -111.5s17.5 -98.167 17.5 -159.5v-662h-136v662c0 46.667 -4.66699 85.834 -14 117.501
s-23.333 57.167 -42 76.5s-41.5 33.166 -68.5 41.499s-58.5 12.5 -94.5 12.5c-64.667 0 -124.334 -11.333 -179.001 -34s-104.334 -52 -149.001 -88v-788h-136v1000zM786.002 1384h190l-305 -232h-104l-306 232h188l169 -134z" />
    <glyph glyph-name="Eng" unicode="&#x14a;" horiz-adv-x="1552" 
d="M216 1360l136 -0.000976562l799 -1145v1145h136v-1372c0 -78.667 -9.5 -144.167 -28.5 -196.5s-46 -94.166 -81 -125.499s-77 -53.5 -126 -66.5s-103.167 -19.5 -162.5 -19.5c-63.333 0 -121.333 8 -174 24s-96.667 34 -132 54l60 98c14.667 -8 32.5 -16 53.5 -24
s42.833 -15 65.5 -21s45 -11 67 -15s42 -6 60 -6c43.333 0 81.333 5.33301 114 16s60 27.667 82 51s38.5 53.5 49.5 90.5s16.5 81.833 16.5 134.5v18l-799 1126v-1126h-136v1360z" />
    <glyph glyph-name="eng" unicode="&#x14b;" horiz-adv-x="1265" 
d="M212 1000l124.999 -0.00195312l9 -113c50 44 105 77.167 165 99.5s124.333 33.5 193 33.5c59.333 0 109.833 -7.16699 151.5 -21.5s75.5 -36.166 101.5 -65.499s44.833 -66.5 56.5 -111.5s17.5 -98.167 17.5 -159.5v-674c0 -78.667 -9.5 -144.167 -28.5 -196.5
s-45.833 -94.166 -80.5 -125.499s-76.334 -53.5 -125.001 -66.5s-103 -19.5 -163 -19.5c-63.333 0 -121.166 8 -173.499 24s-97.166 34 -134.499 54l63 98c14.667 -8 32.5 -16 53.5 -24s43 -15 66 -21s45.5 -11 67.5 -15s41.333 -6 58 -6c44 0 82.333 5.33301 115 16
s59.834 27.667 81.501 51s37.834 53.5 48.501 90.5s16 81.833 16 134.5v680c0 46.667 -4.66699 85.834 -14 117.501s-23.333 57.167 -42 76.5s-41.5 33.166 -68.5 41.499s-58.5 12.5 -94.5 12.5c-64.667 0 -124.334 -11.333 -179.001 -34s-104.334 -52 -149.001 -88v-788
h-136v1000z" />
    <glyph glyph-name="Omacron" unicode="&#x14c;" horiz-adv-x="1438" 
d="M135 680c0 107.333 14 204.166 42 290.499s67.167 159.833 117.5 220.5s110.833 107.334 181.5 140.001s148.667 49 234 49c84.667 0 163.5 -16.333 236.5 -49s136.333 -79.334 190 -140.001s95.834 -134.167 126.501 -220.5s46 -183.166 46 -290.499
c0 -108 -15.333 -205.167 -46 -291.5s-72.834 -159.833 -126.501 -220.5s-117 -107.167 -190 -139.5s-151.833 -48.5 -236.5 -48.5c-85.333 0 -163.333 16.167 -234 48.5s-131.167 78.833 -181.5 139.5s-89.5 134.167 -117.5 220.5s-42 183.5 -42 291.5zM271 680
c0 -100 11 -187 33 -261s52.667 -135.333 92 -184s85.666 -85 138.999 -109s111.666 -36 174.999 -36c64 0 124.167 12 180.5 36s105.5 60.333 147.5 109s75 110 99 184s36 161 36 261s-12 187 -36 261s-57 135.333 -99 184s-91.167 85 -147.5 109s-116.5 36 -180.5 36
c-63.333 0 -121.666 -12 -174.999 -36s-99.666 -60.333 -138.999 -109s-70 -110 -92 -184s-33 -161 -33 -261zM338 1634h772v-108h-772v108z" />
    <glyph glyph-name="omacron" unicode="&#x14d;" horiz-adv-x="1213" 
d="M147 500c0 80.667 10.5 153 31.5 217s51.167 118.5 90.5 163.5s87.666 79.5 144.999 103.5s122 36 194 36s137.667 -12 197 -36s110.166 -58.5 152.499 -103.5s75.333 -99.5 99 -163.5s35.5 -136.333 35.5 -217c0 -81.333 -11.833 -154 -35.5 -218
s-56.667 -118.5 -99 -163.5s-93.166 -79.333 -152.499 -103s-125 -35.5 -197 -35.5s-136.667 11.833 -194 35.5s-105.666 58 -144.999 103s-69.5 99.5 -90.5 163.5s-31.5 136.667 -31.5 218zM283 500c0 -70.667 7.66699 -131.667 23 -183s37.333 -93.833 66 -127.5
s62.834 -58.667 102.501 -75s84.167 -24.5 133.5 -24.5c50 0 96.167 8.16699 138.5 24.5s79 41.333 110 75s55.333 76.167 73 127.5s26.5 112.333 26.5 183s-8.83301 131.834 -26.5 183.501s-42 94.334 -73 128.001s-67.667 58.5 -110 74.5s-88.5 24 -138.5 24
c-49.333 0 -93.833 -8 -133.5 -24s-73.834 -40.833 -102.501 -74.5s-50.667 -76.334 -66 -128.001s-23 -112.834 -23 -183.501zM228 1295h772v-108h-772v108z" />
    <glyph glyph-name="Ohungarumlaut" unicode="&#x150;" horiz-adv-x="1438" 
d="M135 680c0 107.333 14 204.166 42 290.499s67.167 159.833 117.5 220.5s110.833 107.334 181.5 140.001s148.667 49 234 49c84.667 0 163.5 -16.333 236.5 -49s136.333 -79.334 190 -140.001s95.834 -134.167 126.501 -220.5s46 -183.166 46 -290.499
c0 -108 -15.333 -205.167 -46 -291.5s-72.834 -159.833 -126.501 -220.5s-117 -107.167 -190 -139.5s-151.833 -48.5 -236.5 -48.5c-85.333 0 -163.333 16.167 -234 48.5s-131.167 78.833 -181.5 139.5s-89.5 134.167 -117.5 220.5s-42 183.5 -42 291.5zM271 680
c0 -100 11 -187 33 -261s52.667 -135.333 92 -184s85.666 -85 138.999 -109s111.666 -36 174.999 -36c64 0 124.167 12 180.5 36s105.5 60.333 147.5 109s75 110 99 184s36 161 36 261s-12 187 -36 261s-57 135.333 -99 184s-91.167 85 -147.5 109s-116.5 36 -180.5 36
c-63.333 0 -121.666 -12 -174.999 -36s-99.666 -60.333 -138.999 -109s-70 -110 -92 -184s-33 -161 -33 -261zM689 1818l204 -60l-317 -268l-131 40zM1121 1818l221 -60l-386 -268l-146 40z" />
    <glyph glyph-name="ohungarumlaut" unicode="&#x151;" horiz-adv-x="1213" 
d="M147 500c0 80.667 10.5 153 31.5 217s51.167 118.5 90.5 163.5s87.666 79.5 144.999 103.5s122 36 194 36s137.667 -12 197 -36s110.166 -58.5 152.499 -103.5s75.333 -99.5 99 -163.5s35.5 -136.333 35.5 -217c0 -81.333 -11.833 -154 -35.5 -218
s-56.667 -118.5 -99 -163.5s-93.166 -79.333 -152.499 -103s-125 -35.5 -197 -35.5s-136.667 11.833 -194 35.5s-105.666 58 -144.999 103s-69.5 99.5 -90.5 163.5s-31.5 136.667 -31.5 218zM283 500c0 -70.667 7.66699 -131.667 23 -183s37.333 -93.833 66 -127.5
s62.834 -58.667 102.501 -75s84.167 -24.5 133.5 -24.5c50 0 96.167 8.16699 138.5 24.5s79 41.333 110 75s55.333 76.167 73 127.5s26.5 112.333 26.5 183s-8.83301 131.834 -26.5 183.501s-42 94.334 -73 128.001s-67.667 58.5 -110 74.5s-88.5 24 -138.5 24
c-49.333 0 -93.833 -8 -133.5 -24s-73.834 -40.833 -102.501 -74.5s-50.667 -76.334 -66 -128.001s-23 -112.834 -23 -183.501zM579 1478l204 -60l-317 -268l-131 40zM1011 1478l221 -60l-386 -268l-146 40z" />
    <glyph glyph-name="OE" unicode="&#x152;" horiz-adv-x="1781" 
d="M934 0c-6.66699 -0.666992 -15.6709 -1.33105 -27.0039 -1.99805s-23.166 -1.16699 -35.499 -1.5s-24.666 -0.5 -36.999 -0.5h-31.5c-107.333 0 -202.5 16 -285.5 48s-152.667 77.5 -209 136.5s-99 130.667 -128 215s-43.5 179.166 -43.5 284.499
c0 104.667 15.667 199.167 47 283.5s76.333 156.166 135 215.499s130.334 105 215.001 137s180.334 48 287.001 48c14 0 27.667 -0.166992 41 -0.5s26.333 -1.5 39 -3.5h766v-110h-638v-492h571v-110h-571v-538h638v-110h-733zM802.996 106.003c8 0 20.833 0.333008 38.5 1
s34.834 1.66699 51.501 3v1137c-11.333 2 -22.833 3.66699 -34.5 5s-24.167 2 -37.5 2c-84 0 -159.833 -13.5 -227.5 -40.5s-125.334 -65.5 -173.001 -115.5s-84.167 -110.333 -109.5 -181s-38 -149.667 -38 -237s11.667 -166.333 35 -237s57.5 -131 102.5 -181
s100.333 -88.5 166 -115.5s141.167 -40.5 226.5 -40.5z" />
    <glyph glyph-name="oe" unicode="&#x153;" horiz-adv-x="1939" 
d="M125 500c0 80.667 10.5 153.002 31.5 217.002s51.167 118.5 90.5 163.5s87.666 79.5 144.999 103.5s122 36 194 36c93.333 0 175.5 -19.833 246.5 -59.5s127.167 -96.167 168.5 -169.5c36 74.667 86.833 131.5 152.5 170.5s145.167 58.5 238.5 58.5
c58.667 0 112.334 -8.66699 161.001 -26s90.5 -42.833 125.5 -76.5s62.167 -75 81.5 -124s29 -104.833 29 -167.5v-110h-712v-24c0 -63.333 7.16699 -120 21.5 -170s36 -92.167 65 -126.5s65.333 -60.5 109 -78.5s94.5 -27 152.5 -27c38.667 0 73.167 2.16699 103.5 6.5
s57.666 9.66602 81.999 15.999s45.833 13.166 64.5 20.499s35.334 14.333 50.001 21l41 -102c-40.667 -22 -90 -39.5 -148 -52.5s-120.333 -19.5 -187 -19.5c-106.667 0 -195.834 19.333 -267.501 58s-126.167 95 -163.5 169c-41.333 -72.667 -97.333 -128.667 -168 -168
s-152.667 -59 -246 -59c-72 0 -136.667 11.833 -194 35.5s-105.666 58 -144.999 103s-69.5 99.5 -90.5 163.5s-31.5 136.667 -31.5 218zM261 500.002c0 -70.667 7.66699 -131.667 23 -183s37.333 -93.833 66 -127.5s62.834 -58.667 102.501 -75s84.167 -24.5 133.5 -24.5
c50 0 96.167 8.16699 138.5 24.5s79 41.333 110 75s55.333 76.167 73 127.5s26.5 112.333 26.5 183s-8.83301 131.834 -26.5 183.501s-42 94.334 -73 128.001s-67.667 58.5 -110 74.5s-88.5 24 -138.5 24c-49.333 0 -93.833 -8 -133.5 -24s-73.834 -40.833 -102.501 -74.5
s-50.667 -76.334 -66 -128.001s-23 -112.834 -23 -183.501zM1399 910.002c-42 0 -80.667 -4.66797 -116 -14.001s-66.333 -25 -93 -47s-48.834 -51.167 -66.501 -87.5s-30.5 -81.5 -38.5 -135.5h568c0 50.667 -7 93.834 -21 129.501s-32.833 65 -56.5 88
s-50.667 39.833 -81 50.5s-62.166 16 -95.499 16z" />
    <glyph glyph-name="Racute" unicode="&#x154;" horiz-adv-x="1259" 
d="M216 1360l425 0.000976562c73.333 0 138.333 -8.16699 195 -24.5s104.5 -40.166 143.5 -71.499s68.667 -69.833 89 -115.5s30.5 -97.834 30.5 -156.501c0 -36.667 -6 -71.834 -18 -105.501s-28.333 -65.167 -49 -94.5s-45 -56 -73 -80s-58.333 -44 -91 -60l292 -652h-139
l-277 626h-392v-626h-136v1360zM352 1250v-514h457l53 40.5c18 14.333 34.5 31 49.5 50s27.333 41.833 37 68.5s14.5 59 14.5 97c0 48 -8.33301 88.5 -25 121.5s-40.167 59.5 -70.5 79.5s-67.333 34.5 -111 43.5s-92.5 13.5 -146.5 13.5h-258zM723 1786l157 -66l-268 -248
l-110 40z" />
    <glyph glyph-name="racute" unicode="&#x155;" horiz-adv-x="772" 
d="M212 1000h125.001l7 -128c42 54 87.167 92.167 135.5 114.5s97.833 33.5 148.5 33.5c15.333 0 30.166 -0.333008 44.499 -1s29.166 -1.66699 44.499 -3l-18 -134c-18 3.33301 -36.167 5.5 -54.5 6.5s-39.166 1.5 -62.499 1.5c-42.667 0 -84.167 -12.5 -124.5 -37.5
s-76.833 -57.5 -109.5 -97.5v-755h-136v1000zM450.001 1466l157 -66l-268 -248l-110 40z" />
    <glyph glyph-name="Rcommaaccent" unicode="&#x156;" horiz-adv-x="1259" 
d="M216 1360l425 0.000976562c73.333 0 138.333 -8.16699 195 -24.5s104.5 -40.166 143.5 -71.499s68.667 -69.833 89 -115.5s30.5 -97.834 30.5 -156.501c0 -36.667 -6 -71.834 -18 -105.501s-28.333 -65.167 -49 -94.5s-45 -56 -73 -80s-58.333 -44 -91 -60l292 -652h-139
l-277 626h-392v-626h-136v1360zM352 1250v-514h457l53 40.5c18 14.333 34.5 31 49.5 50s27.333 41.833 37 68.5s14.5 59 14.5 97c0 48 -8.33301 88.5 -25 121.5s-40.167 59.5 -70.5 79.5s-67.333 34.5 -111 43.5s-92.5 13.5 -146.5 13.5h-258zM572 -101.999h142l-144 -398
l-102 20z" />
    <glyph glyph-name="rcommaaccent" unicode="&#x157;" horiz-adv-x="772" 
d="M212 1000h125.001l7 -128c42 54 87.167 92.167 135.5 114.5s97.833 33.5 148.5 33.5c15.333 0 30.166 -0.333008 44.499 -1s29.166 -1.66699 44.499 -3l-18 -134c-18 3.33301 -36.167 5.5 -54.5 6.5s-39.166 1.5 -62.499 1.5c-42.667 0 -84.167 -12.5 -124.5 -37.5
s-76.833 -57.5 -109.5 -97.5v-755h-136v1000zM218.001 -102h142l-144 -398l-102 20z" />
    <glyph glyph-name="Rcaron" unicode="&#x158;" horiz-adv-x="1259" 
d="M216 1360l425 0.000976562c73.333 0 138.333 -8.16699 195 -24.5s104.5 -40.166 143.5 -71.499s68.667 -69.833 89 -115.5s30.5 -97.834 30.5 -156.501c0 -36.667 -6 -71.834 -18 -105.501s-28.333 -65.167 -49 -94.5s-45 -56 -73 -80s-58.333 -44 -91 -60l292 -652h-139
l-277 626h-392v-626h-136v1360zM352 1250v-514h457l53 40.5c18 14.333 34.5 31 49.5 50s27.333 41.833 37 68.5s14.5 59 14.5 97c0 48 -8.33301 88.5 -25 121.5s-40.167 59.5 -70.5 79.5s-67.333 34.5 -111 43.5s-92.5 13.5 -146.5 13.5h-258zM743 1704h190l-305 -232h-104
l-306 232h188l169 -134z" />
    <glyph glyph-name="rcaron" unicode="&#x159;" horiz-adv-x="772" 
d="M212 1000h125.001l7 -128c42 54 87.167 92.167 135.5 114.5s97.833 33.5 148.5 33.5c15.333 0 30.166 -0.333008 44.499 -1s29.166 -1.66699 44.499 -3l-18 -134c-18 3.33301 -36.167 5.5 -54.5 6.5s-39.166 1.5 -62.499 1.5c-42.667 0 -84.167 -12.5 -124.5 -37.5
s-76.833 -57.5 -109.5 -97.5v-755h-136v1000zM471.001 1384h190l-305 -232h-104l-306 232h188l169 -134z" />
    <glyph glyph-name="Sacute" unicode="&#x15a;" horiz-adv-x="1115" 
d="M1004 348c0 -55.333 -11.0039 -105.665 -33.0039 -150.998s-53.167 -84 -93.5 -116s-89 -56.833 -146 -74.5s-120.5 -26.5 -190.5 -26.5c-41.333 0 -82.5 1.83301 -123.5 5.5s-79.667 8.5 -116 14.5s-69.666 13.167 -99.999 21.5s-55.5 17.166 -75.5 26.499l32 108
c28 -9.33301 55.833 -18 83.5 -26s56.834 -15 87.501 -21s63.5 -10.667 98.5 -14s74.167 -5 117.5 -5c47.333 0 90.833 5.5 130.5 16.5s73.667 27.167 102 48.5s50.5 47.666 66.5 78.999s24 67.333 24 108c0 36.667 -8.66699 69.667 -26 99s-41.666 55.666 -72.999 78.999
s-68.833 44.333 -112.5 63s-91.834 35.667 -144.501 51c-54 16 -104.5 35.333 -151.5 58s-87.833 49.5 -122.5 80.5s-62 66.167 -82 105.5s-30 83.333 -30 132c0 56 10.167 106.833 30.5 152.5s49.5 84.5 87.5 116.5s84.333 56.833 139 74.5s116.667 26.5 186 26.5
c42.667 0 83.5 -2.5 122.5 -7.5s74.833 -11 107.5 -18s61.834 -14.5 87.501 -22.5s47.167 -15.333 64.5 -22l-38 -108l-70.5 25c-23.667 8 -49 15.167 -76 21.5s-56.667 11.5 -89 15.5s-69.166 6 -110.499 6c-51.333 0 -96 -5.83301 -134 -17.5s-69.667 -28.5 -95 -50.5
s-44.333 -48.333 -57 -79s-19 -65 -19 -103c0 -30.667 5.5 -59.5 16.5 -86.5s28.5 -52.5 52.5 -76.5s55.333 -46.167 94 -66.5s86 -39.166 142 -56.499c70.667 -22 133.167 -45.5 187.5 -70.5s100 -52.833 137 -83.5s65 -65 84 -103s28.5 -81 28.5 -129zM710.996 1802
l157 -66l-268 -248l-110 40z" />
    <glyph glyph-name="sacute" unicode="&#x15b;" horiz-adv-x="997" 
d="M876 266c0 -39.333 -8.66895 -76.333 -26.002 -111s-42 -65 -74 -91s-71 -46.5 -117 -61.5s-97.667 -22.5 -155 -22.5c-37.333 0 -74 1.83301 -110 5.5s-70.333 8.83398 -103 15.501s-63.167 14.5 -91.5 23.5s-52.833 18.833 -73.5 29.5l36 112l78.5 -29.5
c24.333 -9 49.833 -17 76.5 -24s55.834 -12.5 87.501 -16.5s68.167 -6 109.5 -6c35.333 0 67 4.16699 95 12.5s51.667 20 71 35s34.166 32.333 44.499 52s15.5 41.167 15.5 64.5c0 26.667 -5 50 -15 70s-25.667 37.833 -47 53.5s-48.333 29.667 -81 42
s-71.667 24.5 -117 36.5c-48 12.667 -92.333 28.667 -133 48s-76 41.166 -106 65.499s-53.333 51 -70 80s-25 59.167 -25 90.5c0 44.667 8.16699 84.334 24.5 119.001s40.166 64 71.499 88s69.666 42.167 114.999 54.5s97 18.5 155 18.5c76 0 141.833 -6.83301 197.5 -20.5
s99.167 -27.5 130.5 -41.5l-31 -108l-62.5 22c-20.333 7.33301 -42.166 13.833 -65.499 19.5s-49.166 10.167 -77.499 13.5s-60.833 5 -97.5 5c-77.333 0 -134 -13.833 -170 -41.5s-54 -65.167 -54 -112.5c0 -18 3.33301 -36.167 10 -54.5s18.334 -36 35.001 -53
s39.334 -32.833 68.001 -47.5s65 -27.667 109 -39c65.333 -16.667 121.5 -35.667 168.5 -57s85.5 -44.5 115.5 -69.5s52.167 -51.833 66.5 -80.5s21.5 -58.334 21.5 -89.001zM642.998 1466l157 -66l-268 -248l-110 40z" />
    <glyph glyph-name="Scircumflex" unicode="&#x15c;" horiz-adv-x="1115" 
d="M1004 348c0 -55.333 -11.0039 -105.665 -33.0039 -150.998s-53.167 -84 -93.5 -116s-89 -56.833 -146 -74.5s-120.5 -26.5 -190.5 -26.5c-41.333 0 -82.5 1.83301 -123.5 5.5s-79.667 8.5 -116 14.5s-69.666 13.167 -99.999 21.5s-55.5 17.166 -75.5 26.499l32 108
c28 -9.33301 55.833 -18 83.5 -26s56.834 -15 87.501 -21s63.5 -10.667 98.5 -14s74.167 -5 117.5 -5c47.333 0 90.833 5.5 130.5 16.5s73.667 27.167 102 48.5s50.5 47.666 66.5 78.999s24 67.333 24 108c0 36.667 -8.66699 69.667 -26 99s-41.666 55.666 -72.999 78.999
s-68.833 44.333 -112.5 63s-91.834 35.667 -144.501 51c-54 16 -104.5 35.333 -151.5 58s-87.833 49.5 -122.5 80.5s-62 66.167 -82 105.5s-30 83.333 -30 132c0 56 10.167 106.833 30.5 152.5s49.5 84.5 87.5 116.5s84.333 56.833 139 74.5s116.667 26.5 186 26.5
c42.667 0 83.5 -2.5 122.5 -7.5s74.833 -11 107.5 -18s61.834 -14.5 87.501 -22.5s47.167 -15.333 64.5 -22l-38 -108l-70.5 25c-23.667 8 -49 15.167 -76 21.5s-56.667 11.5 -89 15.5s-69.166 6 -110.499 6c-51.333 0 -96 -5.83301 -134 -17.5s-69.667 -28.5 -95 -50.5
s-44.333 -48.333 -57 -79s-19 -65 -19 -103c0 -30.667 5.5 -59.5 16.5 -86.5s28.5 -52.5 52.5 -76.5s55.333 -46.167 94 -66.5s86 -39.166 142 -56.499c70.667 -22 133.167 -45.5 187.5 -70.5s100 -52.833 137 -83.5s65 -65 84 -103s28.5 -81 28.5 -129zM407.996 1486h-188
l306 232h104l305 -232h-190l-168 119z" />
    <glyph glyph-name="scircumflex" unicode="&#x15d;" horiz-adv-x="997" 
d="M876 266c0 -39.333 -8.66895 -76.333 -26.002 -111s-42 -65 -74 -91s-71 -46.5 -117 -61.5s-97.667 -22.5 -155 -22.5c-37.333 0 -74 1.83301 -110 5.5s-70.333 8.83398 -103 15.501s-63.167 14.5 -91.5 23.5s-52.833 18.833 -73.5 29.5l36 112l78.5 -29.5
c24.333 -9 49.833 -17 76.5 -24s55.834 -12.5 87.501 -16.5s68.167 -6 109.5 -6c35.333 0 67 4.16699 95 12.5s51.667 20 71 35s34.166 32.333 44.499 52s15.5 41.167 15.5 64.5c0 26.667 -5 50 -15 70s-25.667 37.833 -47 53.5s-48.333 29.667 -81 42
s-71.667 24.5 -117 36.5c-48 12.667 -92.333 28.667 -133 48s-76 41.166 -106 65.499s-53.333 51 -70 80s-25 59.167 -25 90.5c0 44.667 8.16699 84.334 24.5 119.001s40.166 64 71.499 88s69.666 42.167 114.999 54.5s97 18.5 155 18.5c76 0 141.833 -6.83301 197.5 -20.5
s99.167 -27.5 130.5 -41.5l-31 -108l-62.5 22c-20.333 7.33301 -42.166 13.833 -65.499 19.5s-49.166 10.167 -77.499 13.5s-60.833 5 -97.5 5c-77.333 0 -134 -13.833 -170 -41.5s-54 -65.167 -54 -112.5c0 -18 3.33301 -36.167 10 -54.5s18.334 -36 35.001 -53
s39.334 -32.833 68.001 -47.5s65 -27.667 109 -39c65.333 -16.667 121.5 -35.667 168.5 -57s85.5 -44.5 115.5 -69.5s52.167 -51.833 66.5 -80.5s21.5 -58.334 21.5 -89.001zM339.998 1150h-188l306 232h104l305 -232h-190l-168 119z" />
    <glyph glyph-name="Scedilla" unicode="&#x15e;" horiz-adv-x="1115" 
d="M1004 348c0 -55.333 -11.0039 -105.665 -33.0039 -150.998s-53.167 -84 -93.5 -116s-89 -56.833 -146 -74.5s-120.5 -26.5 -190.5 -26.5c-41.333 0 -82.5 1.83301 -123.5 5.5s-79.667 8.5 -116 14.5s-69.666 13.167 -99.999 21.5s-55.5 17.166 -75.5 26.499l32 108
c28 -9.33301 55.833 -18 83.5 -26s56.834 -15 87.501 -21s63.5 -10.667 98.5 -14s74.167 -5 117.5 -5c47.333 0 90.833 5.5 130.5 16.5s73.667 27.167 102 48.5s50.5 47.666 66.5 78.999s24 67.333 24 108c0 36.667 -8.66699 69.667 -26 99s-41.666 55.666 -72.999 78.999
s-68.833 44.333 -112.5 63s-91.834 35.667 -144.501 51c-54 16 -104.5 35.333 -151.5 58s-87.833 49.5 -122.5 80.5s-62 66.167 -82 105.5s-30 83.333 -30 132c0 56 10.167 106.833 30.5 152.5s49.5 84.5 87.5 116.5s84.333 56.833 139 74.5s116.667 26.5 186 26.5
c42.667 0 83.5 -2.5 122.5 -7.5s74.833 -11 107.5 -18s61.834 -14.5 87.501 -22.5s47.167 -15.333 64.5 -22l-38 -108l-70.5 25c-23.667 8 -49 15.167 -76 21.5s-56.667 11.5 -89 15.5s-69.166 6 -110.499 6c-51.333 0 -96 -5.83301 -134 -17.5s-69.667 -28.5 -95 -50.5
s-44.333 -48.333 -57 -79s-19 -65 -19 -103c0 -30.667 5.5 -59.5 16.5 -86.5s28.5 -52.5 52.5 -76.5s55.333 -46.167 94 -66.5s86 -39.166 142 -56.499c70.667 -22 133.167 -45.5 187.5 -70.5s100 -52.833 137 -83.5s65 -65 84 -103s28.5 -81 28.5 -129zM652.996 12.001
c11.333 -21.333 19.834 -43.002 25.501 -65.002s8.5 -43.667 8.5 -65c0 -33.333 -6.83301 -65.166 -20.5 -95.499s-34.334 -56.833 -62.001 -79.5s-62.167 -40.167 -103.5 -52.5s-90 -17.166 -146 -14.499l-21 86c42 0.666992 77.5 5 106.5 13s52.5 18.833 70.5 32.5
s30.833 29.5 38.5 47.5s11.5 37.333 11.5 58c0 23.333 -4.16699 47.5 -12.5 72.5s-19.5 49.833 -33.5 74.5z" />
    <glyph glyph-name="scedilla" unicode="&#x15f;" horiz-adv-x="997" 
d="M876 266c0 -39.333 -8.66895 -76.333 -26.002 -111s-42 -65 -74 -91s-71 -46.5 -117 -61.5s-97.667 -22.5 -155 -22.5c-37.333 0 -74 1.83301 -110 5.5s-70.333 8.83398 -103 15.501s-63.167 14.5 -91.5 23.5s-52.833 18.833 -73.5 29.5l36 112l78.5 -29.5
c24.333 -9 49.833 -17 76.5 -24s55.834 -12.5 87.501 -16.5s68.167 -6 109.5 -6c35.333 0 67 4.16699 95 12.5s51.667 20 71 35s34.166 32.333 44.499 52s15.5 41.167 15.5 64.5c0 26.667 -5 50 -15 70s-25.667 37.833 -47 53.5s-48.333 29.667 -81 42
s-71.667 24.5 -117 36.5c-48 12.667 -92.333 28.667 -133 48s-76 41.166 -106 65.499s-53.333 51 -70 80s-25 59.167 -25 90.5c0 44.667 8.16699 84.334 24.5 119.001s40.166 64 71.499 88s69.666 42.167 114.999 54.5s97 18.5 155 18.5c76 0 141.833 -6.83301 197.5 -20.5
s99.167 -27.5 130.5 -41.5l-31 -108l-62.5 22c-20.333 7.33301 -42.166 13.833 -65.499 19.5s-49.166 10.167 -77.499 13.5s-60.833 5 -97.5 5c-77.333 0 -134 -13.833 -170 -41.5s-54 -65.167 -54 -112.5c0 -18 3.33301 -36.167 10 -54.5s18.334 -36 35.001 -53
s39.334 -32.833 68.001 -47.5s65 -27.667 109 -39c65.333 -16.667 121.5 -35.667 168.5 -57s85.5 -44.5 115.5 -69.5s52.167 -51.833 66.5 -80.5s21.5 -58.334 21.5 -89.001zM602.998 12c11.333 -21.333 19.834 -43.002 25.501 -65.002s8.5 -43.667 8.5 -65
c0 -33.333 -6.83301 -65.166 -20.5 -95.499s-34.334 -56.833 -62.001 -79.5s-62.167 -40.167 -103.5 -52.5s-90 -17.166 -146 -14.499l-21 86c42 0.666992 77.5 5 106.5 13s52.5 18.833 70.5 32.5s30.833 29.5 38.5 47.5s11.5 37.333 11.5 58
c0 23.333 -4.16699 47.5 -12.5 72.5s-19.5 49.833 -33.5 74.5z" />
    <glyph glyph-name="Scaron" unicode="&#x160;" horiz-adv-x="1115" 
d="M1004 348c0 -55.333 -11.0039 -105.665 -33.0039 -150.998s-53.167 -84 -93.5 -116s-89 -56.833 -146 -74.5s-120.5 -26.5 -190.5 -26.5c-41.333 0 -82.5 1.83301 -123.5 5.5s-79.667 8.5 -116 14.5s-69.666 13.167 -99.999 21.5s-55.5 17.166 -75.5 26.499l32 108
c28 -9.33301 55.833 -18 83.5 -26s56.834 -15 87.501 -21s63.5 -10.667 98.5 -14s74.167 -5 117.5 -5c47.333 0 90.833 5.5 130.5 16.5s73.667 27.167 102 48.5s50.5 47.666 66.5 78.999s24 67.333 24 108c0 36.667 -8.66699 69.667 -26 99s-41.666 55.666 -72.999 78.999
s-68.833 44.333 -112.5 63s-91.834 35.667 -144.501 51c-54 16 -104.5 35.333 -151.5 58s-87.833 49.5 -122.5 80.5s-62 66.167 -82 105.5s-30 83.333 -30 132c0 56 10.167 106.833 30.5 152.5s49.5 84.5 87.5 116.5s84.333 56.833 139 74.5s116.667 26.5 186 26.5
c42.667 0 83.5 -2.5 122.5 -7.5s74.833 -11 107.5 -18s61.834 -14.5 87.501 -22.5s47.167 -15.333 64.5 -22l-38 -108l-70.5 25c-23.667 8 -49 15.167 -76 21.5s-56.667 11.5 -89 15.5s-69.166 6 -110.499 6c-51.333 0 -96 -5.83301 -134 -17.5s-69.667 -28.5 -95 -50.5
s-44.333 -48.333 -57 -79s-19 -65 -19 -103c0 -30.667 5.5 -59.5 16.5 -86.5s28.5 -52.5 52.5 -76.5s55.333 -46.167 94 -66.5s86 -39.166 142 -56.499c70.667 -22 133.167 -45.5 187.5 -70.5s100 -52.833 137 -83.5s65 -65 84 -103s28.5 -81 28.5 -129zM730.996 1720h190
l-305 -232h-104l-306 232h188l169 -134z" />
    <glyph glyph-name="scaron" unicode="&#x161;" horiz-adv-x="997" 
d="M876 266c0 -39.333 -8.66895 -76.333 -26.002 -111s-42 -65 -74 -91s-71 -46.5 -117 -61.5s-97.667 -22.5 -155 -22.5c-37.333 0 -74 1.83301 -110 5.5s-70.333 8.83398 -103 15.501s-63.167 14.5 -91.5 23.5s-52.833 18.833 -73.5 29.5l36 112l78.5 -29.5
c24.333 -9 49.833 -17 76.5 -24s55.834 -12.5 87.501 -16.5s68.167 -6 109.5 -6c35.333 0 67 4.16699 95 12.5s51.667 20 71 35s34.166 32.333 44.499 52s15.5 41.167 15.5 64.5c0 26.667 -5 50 -15 70s-25.667 37.833 -47 53.5s-48.333 29.667 -81 42
s-71.667 24.5 -117 36.5c-48 12.667 -92.333 28.667 -133 48s-76 41.166 -106 65.499s-53.333 51 -70 80s-25 59.167 -25 90.5c0 44.667 8.16699 84.334 24.5 119.001s40.166 64 71.499 88s69.666 42.167 114.999 54.5s97 18.5 155 18.5c76 0 141.833 -6.83301 197.5 -20.5
s99.167 -27.5 130.5 -41.5l-31 -108l-62.5 22c-20.333 7.33301 -42.166 13.833 -65.499 19.5s-49.166 10.167 -77.499 13.5s-60.833 5 -97.5 5c-77.333 0 -134 -13.833 -170 -41.5s-54 -65.167 -54 -112.5c0 -18 3.33301 -36.167 10 -54.5s18.334 -36 35.001 -53
s39.334 -32.833 68.001 -47.5s65 -27.667 109 -39c65.333 -16.667 121.5 -35.667 168.5 -57s85.5 -44.5 115.5 -69.5s52.167 -51.833 66.5 -80.5s21.5 -58.334 21.5 -89.001zM662.998 1384h190l-305 -232h-104l-306 232h188l169 -134z" />
    <glyph glyph-name="Tcommaaccent" unicode="&#x162;" horiz-adv-x="1255" 
d="M705 1250v-1250h-136v1250h-473v110h1068v-110h-459zM580 -102h142l-144 -398l-102 20z" />
    <glyph glyph-name="tcommaaccent" unicode="&#x163;" horiz-adv-x="828" 
d="M96 1000l164.001 0.000976562v260l136 20v-280h314v-110h-314v-604c0 -37.333 3 -68.5 9 -93.5s15.5 -45 28.5 -60s29.5 -25.833 49.5 -32.5s43.667 -10 71 -10c16.667 0 33.834 0.666992 51.501 2s34.834 3 51.501 5s32.334 4.16699 47.001 6.5s27.667 4.5 39 6.5
l10 -104c-24.667 -7.33301 -55.334 -13.5 -92.001 -18.5s-72.334 -7.5 -107.001 -7.5c-48 0 -90.333 4.16699 -127 12.5s-67.334 23.666 -92.001 45.999s-43.334 53.333 -56.001 93s-19 91.167 -19 154.5v604h-192zM496.001 -101.999h142l-144 -398l-102 20z" />
    <glyph glyph-name="Tcaron" unicode="&#x164;" horiz-adv-x="1255" 
d="M705 1250v-1250h-136v1250h-473v110h1068v-110h-459zM797 1704h190l-305 -232h-104l-306 232h188l169 -134z" />
    <glyph glyph-name="tcaron" unicode="&#x165;" horiz-adv-x="828" 
d="M96 1000l164.001 0.000976562v260l136 20v-280h314v-110h-314v-604c0 -37.333 3 -68.5 9 -93.5s15.5 -45 28.5 -60s29.5 -25.833 49.5 -32.5s43.667 -10 71 -10c16.667 0 33.834 0.666992 51.501 2s34.834 3 51.501 5s32.334 4.16699 47.001 6.5s27.667 4.5 39 6.5
l10 -104c-24.667 -7.33301 -55.334 -13.5 -92.001 -18.5s-72.334 -7.5 -107.001 -7.5c-48 0 -90.333 4.16699 -127 12.5s-67.334 23.666 -92.001 45.999s-43.334 53.333 -56.001 93s-19 91.167 -19 154.5v604h-192zM790.001 1257h200l-180 -456l-114 20z" />
    <glyph glyph-name="Tbar" unicode="&#x166;" horiz-adv-x="1226" 
d="M705 1250v-248h453v-108h-453v-894h-136v894h-491v108h491v248h-473v110h1068v-110h-459z" />
    <glyph glyph-name="tbar" unicode="&#x167;" horiz-adv-x="874" 
d="M96 1000l164.001 0.000976562v260l136 20v-280h314v-110h-314v-184h333v-108h-333v-312c0 -37.333 3 -68.5 9 -93.5s15.5 -45 28.5 -60s29.5 -25.833 49.5 -32.5s43.667 -10 71 -10c16.667 0 33.834 0.666992 51.501 2s34.834 3 51.501 5s32.334 4.16699 47.001 6.5
s27.667 4.5 39 6.5l10 -104c-24.667 -7.33301 -55.334 -13.5 -92.001 -18.5s-72.334 -7.5 -107.001 -7.5c-48 0 -90.333 4.16699 -127 12.5s-67.334 23.666 -92.001 45.999s-43.334 53.333 -56.001 93s-19 91.167 -19 154.5v312h-187v108h187v184h-192z" />
    <glyph glyph-name="Utilde" unicode="&#x168;" horiz-adv-x="1457" 
d="M1123 1360h136.005v-960c0 -67.333 -12.833 -127 -38.5 -179s-61.834 -95.833 -108.501 -131.5s-102.334 -62.834 -167.001 -81.501s-136.334 -28 -215.001 -28c-78 0 -148.667 9.16699 -212 27.5s-117.333 45.333 -162 81s-79.167 79.334 -103.5 131.001
s-36.5 111.167 -36.5 178.5v962h136v-962c0 -49.333 9.33301 -93 28 -131s44.667 -70.167 78 -96.5s73.166 -46.333 119.499 -60s97.166 -20.5 152.499 -20.5c56 0 108 6.83301 156 20.5s89.5 33.667 124.5 60s62.5 58.5 82.5 96.5s30 81.667 30 131v962zM872.005 1594
c23.333 0 46.6699 8.16797 70.0029 24.501s40.666 40.166 51.999 71.499l97 -66c-9.33301 -24 -21.5 -45.333 -36.5 -64s-31.333 -34.667 -49 -48s-36 -24 -55 -32s-37.167 -13.333 -54.5 -16c-13.333 -2.66699 -27.333 -4 -42 -4c-35.333 0 -67.5 7.66699 -96.5 23
s-57.167 32.333 -84.5 51c-20.667 15.333 -39.834 26.5 -57.501 33.5s-33.167 10.5 -46.5 10.5c-11.333 -0.666992 -21.666 -2.16699 -30.999 -4.5s-18.666 -6.83301 -27.999 -13.5s-18.833 -16 -28.5 -28s-20.167 -27.333 -31.5 -46l-96 60c8 23.333 19.333 44.333 34 63
s31 34.667 49 48s36.667 24.333 56 33s37.666 14.667 54.999 18c12 2 23.333 3 34 3c36.667 0 70 -7.83301 100 -23.5s58.667 -32.834 86 -51.501c19.333 -16 38.166 -26.667 56.499 -32s34.166 -8.66602 47.499 -9.99902z" />
    <glyph glyph-name="utilde" unicode="&#x169;" horiz-adv-x="1221" 
d="M1031 0h-136.001v117c-52 -44 -109.5 -77.833 -172.5 -101.5s-128.5 -35.5 -196.5 -35.5c-50.667 0 -95.5 5.5 -134.5 16.5s-71.833 30 -98.5 57s-46.834 63.5 -60.501 109.5s-20.5 104.333 -20.5 175v662h136v-662c0 -46 3.83301 -84.833 11.5 -116.5
s19.834 -57.167 36.501 -76.5s37.834 -33.333 63.501 -42s56.5 -13 92.5 -13c62 0 122 11.333 180 34s112.333 52 163 88v788h136v-1000zM760.999 1254c23.333 0 46.6699 8.16797 70.0029 24.501s40.666 40.166 51.999 71.499l97 -66c-9.33301 -24 -21.5 -45.333 -36.5 -64
s-31.333 -34.667 -49 -48s-36 -24 -55 -32s-37.167 -13.333 -54.5 -16c-13.333 -2.66699 -27.333 -4 -42 -4c-35.333 0 -67.5 7.66699 -96.5 23s-57.167 32.333 -84.5 51c-20.667 15.333 -39.834 26.5 -57.501 33.5s-33.167 10.5 -46.5 10.5
c-11.333 -0.666992 -21.666 -2.16699 -30.999 -4.5s-18.666 -6.83301 -27.999 -13.5s-18.833 -16 -28.5 -28s-20.167 -27.333 -31.5 -46l-96 60c8 23.333 19.333 44.333 34 63s31 34.667 49 48s36.667 24.333 56 33s37.666 14.667 54.999 18c12 2 23.333 3 34 3
c36.667 0 70 -7.83301 100 -23.5s58.667 -32.834 86 -51.501c19.333 -16 38.166 -26.667 56.499 -32s34.166 -8.66602 47.499 -9.99902z" />
    <glyph glyph-name="Umacron" unicode="&#x16a;" horiz-adv-x="1457" 
d="M1123 1360h136.005v-960c0 -67.333 -12.833 -127 -38.5 -179s-61.834 -95.833 -108.501 -131.5s-102.334 -62.834 -167.001 -81.501s-136.334 -28 -215.001 -28c-78 0 -148.667 9.16699 -212 27.5s-117.333 45.333 -162 81s-79.167 79.334 -103.5 131.001
s-36.5 111.167 -36.5 178.5v962h136v-962c0 -49.333 9.33301 -93 28 -131s44.667 -70.167 78 -96.5s73.166 -46.333 119.499 -60s97.166 -20.5 152.499 -20.5c56 0 108 6.83301 156 20.5s89.5 33.667 124.5 60s62.5 58.5 82.5 96.5s30 81.667 30 131v962zM347.005 1616h772
v-108h-772v108z" />
    <glyph glyph-name="umacron" unicode="&#x16b;" horiz-adv-x="1221" 
d="M1031 0h-136.001v117c-52 -44 -109.5 -77.833 -172.5 -101.5s-128.5 -35.5 -196.5 -35.5c-50.667 0 -95.5 5.5 -134.5 16.5s-71.833 30 -98.5 57s-46.834 63.5 -60.501 109.5s-20.5 104.333 -20.5 175v662h136v-662c0 -46 3.83301 -84.833 11.5 -116.5
s19.834 -57.167 36.501 -76.5s37.834 -33.333 63.501 -42s56.5 -13 92.5 -13c62 0 122 11.333 180 34s112.333 52 163 88v788h136v-1000zM235.999 1277h772v-108h-772v108z" />
    <glyph glyph-name="Ubreve" unicode="&#x16c;" horiz-adv-x="1457" 
d="M1123 1360h136.005v-960c0 -67.333 -12.833 -127 -38.5 -179s-61.834 -95.833 -108.501 -131.5s-102.334 -62.834 -167.001 -81.501s-136.334 -28 -215.001 -28c-78 0 -148.667 9.16699 -212 27.5s-117.333 45.333 -162 81s-79.167 79.334 -103.5 131.001
s-36.5 111.167 -36.5 178.5v962h136v-962c0 -49.333 9.33301 -93 28 -131s44.667 -70.167 78 -96.5s73.166 -46.333 119.499 -60s97.166 -20.5 152.499 -20.5c56 0 108 6.83301 156 20.5s89.5 33.667 124.5 60s62.5 58.5 82.5 96.5s30 81.667 30 131v962zM736.005 1476
c-51.333 -0.666992 -98.333 3.83301 -141 13.5s-79.5 24.334 -110.5 44.001s-55.167 44 -72.5 73s-26 62.833 -26 101.5h136c0 -41.333 18 -74.333 54 -99s89.333 -37 160 -37s124.167 12.333 160.5 37s54.5 57.667 54.5 99h132c0 -38.667 -8.66699 -72.5 -26 -101.5
s-41.333 -53.333 -72 -73s-67.167 -34.334 -109.5 -44.001s-88.833 -14.167 -139.5 -13.5z" />
    <glyph glyph-name="ubreve" unicode="&#x16d;" horiz-adv-x="1221" 
d="M1031 0h-136.001v117c-52 -44 -109.5 -77.833 -172.5 -101.5s-128.5 -35.5 -196.5 -35.5c-50.667 0 -95.5 5.5 -134.5 16.5s-71.833 30 -98.5 57s-46.834 63.5 -60.501 109.5s-20.5 104.333 -20.5 175v662h136v-662c0 -46 3.83301 -84.833 11.5 -116.5
s19.834 -57.167 36.501 -76.5s37.834 -33.333 63.501 -42s56.5 -13 92.5 -13c62 0 122 11.333 180 34s112.333 52 163 88v788h136v-1000zM624.999 1137c-51.333 -0.666992 -98.333 3.83301 -141 13.5s-79.5 24.334 -110.5 44.001s-55.167 44 -72.5 73s-26 62.833 -26 101.5
h136c0 -41.333 18 -74.333 54 -99s89.333 -37 160 -37s124.167 12.333 160.5 37s54.5 57.667 54.5 99h132c0 -38.667 -8.66699 -72.5 -26 -101.5s-41.333 -53.333 -72 -73s-67.167 -34.334 -109.5 -44.001s-88.833 -14.167 -139.5 -13.5z" />
    <glyph glyph-name="Uring" unicode="&#x16e;" horiz-adv-x="1457" 
d="M1123 1360h136.005v-960c0 -67.333 -12.833 -127 -38.5 -179s-61.834 -95.833 -108.501 -131.5s-102.334 -62.834 -167.001 -81.501s-136.334 -28 -215.001 -28c-78 0 -148.667 9.16699 -212 27.5s-117.333 45.333 -162 81s-79.167 79.334 -103.5 131.001
s-36.5 111.167 -36.5 178.5v962h136v-962c0 -49.333 9.33301 -93 28 -131s44.667 -70.167 78 -96.5s73.166 -46.333 119.499 -60s97.166 -20.5 152.499 -20.5c56 0 108 6.83301 156 20.5s89.5 33.667 124.5 60s62.5 58.5 82.5 96.5s30 81.667 30 131v962zM737.005 1858
c30 0 58.167 -5.16699 84.5 -15.5s49.5 -24.333 69.5 -42s35.833 -38.167 47.5 -61.5s17.5 -48.333 17.5 -75c0 -27.333 -5.83301 -52.333 -17.5 -75s-27.5 -42.5 -47.5 -59.5s-43.167 -30.167 -69.5 -39.5s-54.5 -14 -84.5 -14s-58.5 4.66699 -85.5 14
s-50.667 22.5 -71 39.5s-36.5 36.833 -48.5 59.5s-18 47.667 -18 75c0 26.667 6 51.667 18 75s28.167 43.833 48.5 61.5s44 31.667 71 42s55.5 15.5 85.5 15.5zM737.005 1586c25.333 0 45.666 7.66895 60.999 23.002s23 33.666 23 54.999c0 22 -7.66699 41.5 -23 58.5
s-35.666 25.5 -60.999 25.5c-11.333 0 -22.333 -2.33301 -33 -7s-20.167 -10.834 -28.5 -18.501s-15 -16.667 -20 -27s-7.5 -20.833 -7.5 -31.5s2.5 -20.667 7.5 -30s11.667 -17.5 20 -24.5s17.833 -12.667 28.5 -17s21.667 -6.5 33 -6.5z" />
    <glyph glyph-name="uring" unicode="&#x16f;" horiz-adv-x="1221" 
d="M1031 0h-136.001v117c-52 -44 -109.5 -77.833 -172.5 -101.5s-128.5 -35.5 -196.5 -35.5c-50.667 0 -95.5 5.5 -134.5 16.5s-71.833 30 -98.5 57s-46.834 63.5 -60.501 109.5s-20.5 104.333 -20.5 175v662h136v-662c0 -46 3.83301 -84.833 11.5 -116.5
s19.834 -57.167 36.501 -76.5s37.834 -33.333 63.501 -42s56.5 -13 92.5 -13c62 0 122 11.333 180 34s112.333 52 163 88v788h136v-1000zM625.999 1519c30 0 58.167 -5.16699 84.5 -15.5s49.5 -24.333 69.5 -42s35.833 -38.167 47.5 -61.5s17.5 -48.333 17.5 -75
c0 -27.333 -5.83301 -52.333 -17.5 -75s-27.5 -42.5 -47.5 -59.5s-43.167 -30.167 -69.5 -39.5s-54.5 -14 -84.5 -14s-58.5 4.66699 -85.5 14s-50.667 22.5 -71 39.5s-36.5 36.833 -48.5 59.5s-18 47.667 -18 75c0 26.667 6 51.667 18 75s28.167 43.833 48.5 61.5
s44 31.667 71 42s55.5 15.5 85.5 15.5zM625.999 1247c25.333 0 45.666 7.66895 60.999 23.002s23 33.666 23 54.999c0 22 -7.66699 41.5 -23 58.5s-35.666 25.5 -60.999 25.5c-11.333 0 -22.333 -2.33301 -33 -7s-20.167 -10.834 -28.5 -18.501s-15 -16.667 -20 -27
s-7.5 -20.833 -7.5 -31.5s2.5 -20.667 7.5 -30s11.667 -17.5 20 -24.5s17.833 -12.667 28.5 -17s21.667 -6.5 33 -6.5z" />
    <glyph glyph-name="Uhungarumlaut" unicode="&#x170;" horiz-adv-x="1457" 
d="M1123 1360h136.005v-960c0 -67.333 -12.833 -127 -38.5 -179s-61.834 -95.833 -108.501 -131.5s-102.334 -62.834 -167.001 -81.501s-136.334 -28 -215.001 -28c-78 0 -148.667 9.16699 -212 27.5s-117.333 45.333 -162 81s-79.167 79.334 -103.5 131.001
s-36.5 111.167 -36.5 178.5v962h136v-962c0 -49.333 9.33301 -93 28 -131s44.667 -70.167 78 -96.5s73.166 -46.333 119.499 -60s97.166 -20.5 152.499 -20.5c56 0 108 6.83301 156 20.5s89.5 33.667 124.5 60s62.5 58.5 82.5 96.5s30 81.667 30 131v962zM698.005 1800
l204 -60l-317 -268l-131 40zM1130 1800l221 -60l-386 -268l-146 40z" />
    <glyph glyph-name="uhungarumlaut" unicode="&#x171;" horiz-adv-x="1221" 
d="M1031 0h-136.001v117c-52 -44 -109.5 -77.833 -172.5 -101.5s-128.5 -35.5 -196.5 -35.5c-50.667 0 -95.5 5.5 -134.5 16.5s-71.833 30 -98.5 57s-46.834 63.5 -60.501 109.5s-20.5 104.333 -20.5 175v662h136v-662c0 -46 3.83301 -84.833 11.5 -116.5
s19.834 -57.167 36.501 -76.5s37.834 -33.333 63.501 -42s56.5 -13 92.5 -13c62 0 122 11.333 180 34s112.333 52 163 88v788h136v-1000zM586.999 1460l204 -60l-317 -268l-131 40zM1019 1460l221 -60l-386 -268l-146 40z" />
    <glyph glyph-name="Uogonek" unicode="&#x172;" horiz-adv-x="1457" 
d="M1123 1360h136.005v-960c0 -67.333 -12.833 -127 -38.5 -179s-61.834 -95.833 -108.501 -131.5s-102.334 -62.834 -167.001 -81.501s-136.334 -28 -215.001 -28c-78 0 -148.667 9.16699 -212 27.5s-117.333 45.333 -162 81s-79.167 79.334 -103.5 131.001
s-36.5 111.167 -36.5 178.5v962h136v-962c0 -49.333 9.33301 -93 28 -131s44.667 -70.167 78 -96.5s73.166 -46.333 119.499 -60s97.166 -20.5 152.499 -20.5c56 0 108 6.83301 156 20.5s89.5 33.667 124.5 60s62.5 58.5 82.5 96.5s30 81.667 30 131v962zM913.005 0
l-81.502 -34.4971c-26.333 -11.667 -49.5 -25 -69.5 -40s-36 -32.333 -48 -52s-18 -42.834 -18 -69.501c0 -11.333 2 -21.5 6 -30.5s9.33301 -16.667 16 -23s14.334 -11.333 23.001 -15s17.334 -5.5 26.001 -5.5c10.667 0 19.334 0.333008 26.001 1s12.667 1.5 18 2.5
s10.833 2.33301 16.5 4s12.5 3.83398 20.5 6.50098l22 -90c-4.66699 -2.66699 -11.334 -5.33398 -20.001 -8.00098s-18.834 -5 -30.501 -7s-24 -3.66699 -37 -5s-25.833 -2 -38.5 -2c-28 0 -53.333 4 -76 12s-42 19.5 -58 34.5s-28.333 32.667 -37 53s-13 43.166 -13 68.499
c0 32.667 7.83301 62.334 23.5 89.001s35.667 50.167 60 70.5s51.333 37.666 81 51.999s58.834 25.166 87.501 32.499l101 -40v-4z" />
    <glyph glyph-name="uogonek" unicode="&#x173;" horiz-adv-x="1221" 
d="M1031 0h-136.001v117c-52 -44 -109.5 -77.833 -172.5 -101.5s-128.5 -35.5 -196.5 -35.5c-50.667 0 -95.5 5.5 -134.5 16.5s-71.833 30 -98.5 57s-46.834 63.5 -60.501 109.5s-20.5 104.333 -20.5 175v662h136v-662c0 -46 3.83301 -84.833 11.5 -116.5
s19.834 -57.167 36.501 -76.5s37.834 -33.333 63.501 -42s56.5 -13 92.5 -13c62 0 122 11.333 180 34s112.333 52 163 88v788h136v-1000zM1032 0l-81.502 -34.4971c-26.333 -11.667 -49.5 -25 -69.5 -40s-36 -32.333 -48 -52s-18 -42.834 -18 -69.501
c0 -11.333 2 -21.5 6 -30.5s9.33301 -16.667 16 -23s14.334 -11.333 23.001 -15s17.334 -5.5 26.001 -5.5c10.667 0 19.334 0.333008 26.001 1s12.667 1.5 18 2.5s10.833 2.33301 16.5 4s12.5 3.83398 20.5 6.50098l22 -90
c-4.66699 -2.66699 -11.334 -5.33398 -20.001 -8.00098s-18.834 -5 -30.501 -7s-24 -3.66699 -37 -5s-25.833 -2 -38.5 -2c-28 0 -53.333 4 -76 12s-42 19.5 -58 34.5s-28.333 32.667 -37 53s-13 43.166 -13 68.499c0 32.667 7.83301 62.334 23.5 89.001
s35.667 50.167 60 70.5s51.333 37.666 81 51.999s58.834 25.166 87.501 32.499l101 -40v-4z" />
    <glyph glyph-name="Ydieresis" unicode="&#x178;" horiz-adv-x="1184" 
d="M594 636l353 724h152l-434 -870v-490h-136v484l-439 876h152zM279 1640h197v-170h-197v170zM762 1640h198v-170h-198v170z" />
    <glyph glyph-name="Zacute" unicode="&#x179;" horiz-adv-x="1315" 
d="M164 1360h962v-80l-808 -1170h888l-46 -110h-1004v102l775 1148h-767v110zM787 1786l157 -66l-268 -248l-110 40z" />
    <glyph glyph-name="zacute" unicode="&#x17a;" horiz-adv-x="1188" 
d="M223 1000h807v-102l-666 -788h705l-27 -110h-824l-2 116l640 774h-633v110zM775 1446l157 -66l-268 -248l-110 40z" />
    <glyph glyph-name="Zdotaccent" unicode="&#x17b;" horiz-adv-x="1315" 
d="M164 1360h962v-80l-808 -1170h888l-46 -110h-1004v102l775 1148h-767v110zM536 1634h178v-164h-178v164z" />
    <glyph glyph-name="zdotaccent" unicode="&#x17c;" horiz-adv-x="1188" 
d="M223 1000h807v-102l-666 -788h705l-27 -110h-824l-2 116l640 774h-633v110zM524 1295h178v-164h-178v164z" />
    <glyph glyph-name="Zcaron" unicode="&#x17d;" horiz-adv-x="1315" 
d="M164 1360h962v-80l-808 -1170h888l-46 -110h-1004v102l775 1148h-767v110zM807 1704h190l-305 -232h-104l-306 232h188l169 -134z" />
    <glyph glyph-name="zcaron" unicode="&#x17e;" horiz-adv-x="1188" 
d="M223 1000h807v-102l-666 -788h705l-27 -110h-824l-2 116l640 774h-633v110zM795 1365h190l-305 -232h-104l-306 232h188l169 -134z" />
    <glyph glyph-name="florin" unicode="&#x192;" horiz-adv-x="787" 
d="M126 1000l134.003 -0.00390625v74c0 70.667 7.16699 128.334 21.5 173.001s35.166 79.834 62.499 105.501s60.666 43.334 99.999 53.001s84 14.5 134 14.5c34.667 0 70 -3 106 -9s66.667 -13 92 -21l-3 -102c-10 2.66699 -22.167 5.33398 -36.5 8.00098s-29.5 5 -45.5 7
s-32.333 3.66699 -49 5s-33 2 -49 2c-35.333 0 -65.5 -4.16699 -90.5 -12.5s-45.333 -21.833 -61 -40.5s-27.167 -43 -34.5 -73s-11 -66.667 -11 -110v-74h321v-110h-321v-1042c0 -50 -6.66699 -92 -20 -126s-32.5 -61.333 -57.5 -82s-55.333 -35.5 -91 -44.5
s-75.5 -13.5 -119.5 -13.5c-32 0 -63.833 2.66699 -95.5 8s-60.5 12.666 -86.5 21.999l16 102c23.333 -5.33301 49.333 -10.333 78 -15s58 -7 88 -7c27.333 0 50.666 2.83301 69.999 8.5s35 14.667 47 27s20.833 28.333 26.5 48s8.5 43.834 8.5 72.501v1042h-164z" />
    <glyph glyph-name="dotlessj" unicode="&#x237;" horiz-adv-x="526" 
d="M-146 -292c10.667 -2.66699 23 -4.99805 37 -6.99805s28.5 -3.83301 43.5 -5.5s30 -3 45 -4s29.167 -1.5 42.5 -1.5c28.667 0 54.167 4.33301 76.5 13s41.166 23 56.499 43s27 46.5 35 79.5s12 73.833 12 122.5v1052h134v-1052c0 -73.333 -7.16699 -133.833 -21.5 -181.5
s-35.333 -85.334 -63 -113.001s-61.667 -46.834 -102 -57.501s-86.166 -16 -137.499 -16c-30 0 -60.167 2 -90.5 6s-57.5 9.66699 -81.5 17z" />
    <glyph glyph-name="circumflex" unicode="&#x2c6;" horiz-adv-x="824" 
d="M276 1148h-188l306 232h104l305 -232h-190l-168 119z" />
    <glyph glyph-name="caron" unicode="&#x2c7;" horiz-adv-x="824" 
d="M613 1380h190l-305 -232h-104l-306 232h188l169 -134z" />
    </font>
</defs>
</svg>
