<?xml version="1.0" encoding="UTF-8" ?>
<!DOCTYPE svg PUBLIC "-//W3C//DTD SVG 1.1//EN" "http://www.w3.org/Graphics/SVG/1.1/DTD/svg11.dtd">
<svg width="67pt" height="67pt" viewBox="0 0 67 67" version="1.1" xmlns="http://www.w3.org/2000/svg">
<g id="#fefefefe">
<path fill="#fefefe" opacity="1.00" d=" M 25.62 1.79 C 40.14 -2.04 56.47 5.63 62.89 19.17 C 68.42 30.23 66.99 44.39 59.16 54.01 C 50.18 65.82 32.80 69.84 19.49 63.36 C 7.04 57.72 -0.84 43.69 0.84 30.11 C 2.08 16.70 12.51 4.83 25.62 1.79 M 29.91 2.04 C 19.20 3.08 9.32 10.05 4.79 19.81 C -0.25 30.03 0.87 42.90 7.48 52.16 C 11.50 57.35 16.77 61.80 23.12 63.79 C 33.94 67.43 46.80 65.03 55.06 56.99 C 60.89 51.59 64.70 43.98 65.13 36.01 C 66.09 24.98 60.78 13.56 51.49 7.49 C 45.37 2.95 37.42 1.30 29.91 2.04 Z" />
<path fill="#fefefe" opacity="1.00" d=" M 28.77 26.46 C 29.40 25.73 30.03 25.00 30.65 24.27 C 33.48 27.36 36.22 30.53 39.06 33.60 C 36.20 36.65 33.68 40.23 30.48 42.81 C 30.04 42.33 29.15 41.38 28.70 40.90 C 30.89 38.51 33.00 36.06 35.19 33.69 C 33.07 31.26 30.91 28.87 28.77 26.46 Z" />
</g>
</svg>
