<?xml version="1.0" encoding="UTF-8" ?>
<!DOCTYPE svg PUBLIC "-//W3C//DTD SVG 1.1//EN" "http://www.w3.org/Graphics/SVG/1.1/DTD/svg11.dtd">
<svg width="67pt" height="67pt" viewBox="0 0 67 67" version="1.1" xmlns="http://www.w3.org/2000/svg">
<g id="#fdfdfdfd">
<path fill="#fdfdfd" opacity="1.00" d=" M 9.92 10.93 C 20.86 -1.00 40.89 -2.50 53.51 7.62 C 65.55 16.51 69.85 34.04 63.30 47.50 C 58.67 57.52 48.92 64.84 38.02 66.54 L 37.77 67.00 L 37.27 67.00 C 35.69 66.18 33.83 66.53 32.12 66.36 C 22.07 66.13 12.41 60.71 6.68 52.49 C -2.25 40.18 -0.88 21.69 9.92 10.93 M 29.95 2.05 C 18.73 3.15 8.58 10.79 4.24 21.15 C 1.23 28.37 0.99 36.68 3.46 44.08 C 7.10 54.73 16.76 63.16 27.92 64.96 C 37.98 66.74 49.05 63.65 56.06 56.05 C 62.53 49.95 65.79 40.86 65.30 32.05 C 64.93 22.53 59.96 13.24 52.10 7.82 C 45.86 3.06 37.68 1.26 29.95 2.05 Z" />
<path fill="#fdfdfd" opacity="1.00" d=" M 27.95 33.55 C 30.80 30.53 33.52 27.39 36.29 24.30 C 36.78 24.80 37.75 25.81 38.24 26.32 C 36.39 28.97 33.51 31.03 32.07 33.85 C 33.93 36.36 36.43 38.36 38.11 41.01 C 37.64 41.52 36.71 42.53 36.25 43.04 C 33.55 39.82 30.61 36.80 27.95 33.55 Z" />
</g>
</svg>
